<svg width="19" height="27" viewBox="0 0 19 27" fill="none" xmlns="http://www.w3.org/2000/svg">
<path d="M18.8143 9.33105C18.8143 14.3016 14.7849 18.3311 9.81433 18.3311C4.84377 18.3311 0.814331 14.3016 0.814331 9.33105C0.814331 4.36049 4.84377 0.331055 9.81433 0.331055C14.7849 0.331055 18.8143 4.36049 18.8143 9.33105Z" fill="#EAE7C7"/>
<path d="M9.81431 26.4277C10.684 26.4277 17.6085 13.831 17.6085 13.831L9.81433 18.3311L2.02008 13.831C2.02008 13.831 8.94464 26.4277 9.81431 26.4277Z" fill="#EAE7C7"/>
<path d="M16.3529 11.8311C15.3464 14.462 12.7996 16.3309 9.81482 16.3311C6.82985 16.3311 4.28234 14.4621 3.27576 11.8311H16.3529Z" fill="#138808"/>
<path d="M16.3534 6.83105C16.6504 7.60756 16.8143 8.45011 16.8143 9.33105C16.8143 10.212 16.65 11.0545 16.3529 11.8311H3.27576C2.97869 11.0545 2.81433 10.212 2.81433 9.33105C2.81433 8.45008 2.9782 7.60759 3.27527 6.83105H16.3534Z" fill="white"/>
<path d="M12.2143 9.33106C12.2143 10.6565 11.1398 11.7311 9.81431 11.7311C8.48882 11.7311 7.41431 10.6565 7.41431 9.33106C7.41431 8.00558 8.48882 6.93106 9.81431 6.93106C11.1398 6.93106 12.2143 8.00558 12.2143 9.33106Z" fill="#000080"/>
<path d="M9.81482 2.33105C12.7996 2.33126 15.3469 4.20014 16.3534 6.83105H3.27527C4.28185 4.2 6.82985 2.33105 9.81482 2.33105Z" fill="#FF9933"/>
</svg>
