<svg width="101" height="99" viewBox="0 0 101 99" fill="none" xmlns="http://www.w3.org/2000/svg">
<path d="M34.3782 79.4744C34.3782 79.8776 33.9145 80.2002 33.3299 80.2002C32.6645 80.2607 32.2008 79.9381 32.2008 79.4744C32.2008 79.0711 32.6645 78.7486 33.2492 78.7486C33.8541 78.6881 34.3782 79.0107 34.3782 79.4744ZM28.1081 78.5671C27.967 78.9703 28.3702 79.4341 28.975 79.555C29.4992 79.7566 30.1041 79.555 30.225 79.1518C30.346 78.7486 29.9629 78.2849 29.3581 78.1034C28.8339 77.9623 28.2492 78.1639 28.1081 78.5671ZM37.0194 78.2244C36.4347 78.3655 36.0315 78.7486 36.092 79.2123C36.1524 79.6155 36.6766 79.8776 37.2815 79.7365C37.8661 79.5953 38.2694 79.2123 38.2089 78.8091C38.1484 78.426 37.604 78.1639 37.0194 78.2244ZM50.2855 0.966309C22.3218 0.966309 0.930664 22.1961 0.930664 50.1599C0.930664 72.5187 15.0032 91.6518 35.104 98.3857C37.6847 98.8494 38.592 97.2566 38.592 95.9462C38.592 94.6962 38.5315 87.801 38.5315 83.5671C38.5315 83.5671 24.4186 86.5913 21.4549 77.5591C21.4549 77.5591 19.1565 71.6921 15.85 70.18C15.85 70.18 11.2331 67.0147 16.1726 67.0752C16.1726 67.0752 21.1928 67.4784 23.9549 72.2768C28.3702 80.0591 35.7694 77.8212 38.6524 76.4905C39.1161 73.2647 40.4266 71.0268 41.8782 69.6961C30.6081 68.4461 19.2371 66.8131 19.2371 47.4179C19.2371 41.8736 20.7694 39.0913 23.9952 35.5429C23.471 34.2324 21.7573 28.8292 24.5194 21.8534C28.7331 20.5429 38.4307 27.297 38.4307 27.297C42.4629 26.1679 46.7976 25.5832 51.092 25.5832C55.3863 25.5832 59.721 26.1679 63.7532 27.297C63.7532 27.297 73.4508 20.5228 77.6645 21.8534C80.4266 28.8494 78.7129 34.2324 78.1887 35.5429C81.4145 39.1115 83.3903 41.8937 83.3903 47.4179C83.3903 66.8736 71.5153 68.426 60.2452 69.6961C62.1 71.2889 63.6726 74.3131 63.6726 79.051C63.6726 85.8453 63.6121 94.2526 63.6121 95.9058C63.6121 97.2163 64.5395 98.8091 67.1 98.3453C87.2613 91.6518 100.931 72.5187 100.931 50.1599C100.931 22.1961 78.2492 0.966309 50.2855 0.966309ZM20.5274 70.5026C20.2653 70.7042 20.3258 71.1679 20.6686 71.551C20.9911 71.8736 21.4549 72.0147 21.717 71.7526C21.9791 71.551 21.9186 71.0873 21.5758 70.7042C21.2532 70.3816 20.7895 70.2405 20.5274 70.5026ZM18.35 68.8695C18.2089 69.1316 18.4105 69.4542 18.8137 69.6558C19.1363 69.8574 19.5395 69.797 19.6807 69.5147C19.8218 69.2526 19.6202 68.93 19.217 68.7284C18.8137 68.6074 18.4911 68.6679 18.35 68.8695ZM24.8823 76.047C24.5597 76.3091 24.6807 76.9139 25.1444 77.297C25.6081 77.7607 26.1928 77.8212 26.4549 77.4986C26.717 77.2365 26.596 76.6316 26.1928 76.2486C25.7492 75.7849 25.1444 75.7244 24.8823 76.047ZM22.5839 73.0832C22.2613 73.2849 22.2613 73.8091 22.5839 74.2728C22.9065 74.7365 23.4508 74.9381 23.7129 74.7365C24.0355 74.4744 24.0355 73.9502 23.7129 73.4865C23.4307 73.0228 22.9065 72.8212 22.5839 73.0832Z" fill="white"/>
</svg>
