<svg width="49" height="44" viewBox="0 0 49 44" fill="none" xmlns="http://www.w3.org/2000/svg">
<path d="M24.2212 32.8616C10.7603 32.8616 0.221191 28.2703 0.221191 22.4268C0.221191 16.5833 10.7603 11.992 24.2212 11.992C37.6821 11.992 48.2212 16.5833 48.2212 22.4268C48.2212 28.2703 37.6821 32.8616 24.2212 32.8616ZM24.2212 14.079C11.0734 14.079 2.30815 18.3572 2.30815 22.4268C2.30815 26.4964 11.0734 30.7746 24.2212 30.7746C37.369 30.7746 46.1342 26.4964 46.1342 22.4268C46.1342 18.3572 37.369 14.079 24.2212 14.079Z" fill="#80DEEA"/>
<path d="M14.9341 43.9223C13.8907 43.9223 13.0559 43.7136 12.2211 43.1919C7.10805 40.2701 8.46457 28.8962 15.1428 17.2092C18.2733 11.7832 22.1341 7.19185 25.8907 4.27011C29.9602 1.13968 33.6124 0.200547 36.1168 1.66142C38.7254 3.12229 39.6646 6.77446 39.0385 11.8875C38.4124 16.6875 36.3254 22.3223 33.195 27.7484C30.0646 33.1745 26.2037 37.7658 22.4472 40.6875C19.7341 42.7745 17.1254 43.9223 14.9341 43.9223ZM33.5081 3.01794C31.8385 3.01794 29.6472 3.95707 27.2472 5.83533C23.6994 8.65272 20.0472 13.0353 17.0211 18.2527C10.4472 29.6266 9.82109 39.4353 13.2646 41.4179C15.0385 42.4614 17.9602 41.5223 21.195 39.0179C24.7428 36.2006 28.395 31.8179 31.4211 26.6006C34.4472 21.3832 36.4298 16.0614 37.0559 11.5745C37.5776 7.40055 36.9515 4.47881 35.1776 3.43533C34.6559 3.22664 34.1341 3.01794 33.5081 3.01794Z" fill="#80DEEA"/>
<path d="M33.6121 43.9221C28.3947 43.9221 20.8816 37.5569 15.2469 27.6438C8.46425 15.9568 7.10773 4.58292 12.2208 1.66118C17.3338 -1.26056 26.5164 5.52205 33.299 17.209C36.4295 22.6351 38.5164 28.2699 39.1425 33.0699C39.8729 38.1829 38.8295 41.7308 36.2208 43.296C35.386 43.7134 34.5512 43.9221 33.6121 43.9221ZM13.2642 3.4351C9.82077 5.41771 10.4469 15.2264 17.0208 26.6003C23.5947 37.9742 31.7338 43.4003 35.1773 41.4177C36.9512 40.3742 37.5773 37.4525 37.0556 33.2786C36.4295 28.7916 34.4469 23.4699 31.4208 18.2525C24.8469 6.87858 16.7077 1.45249 13.2642 3.4351Z" fill="#80DEEA"/>
<path d="M24.2208 26.6007C26.526 26.6007 28.3948 24.7319 28.3948 22.4268C28.3948 20.1216 26.526 18.2528 24.2208 18.2528C21.9157 18.2528 20.0469 20.1216 20.0469 22.4268C20.0469 24.7319 21.9157 26.6007 24.2208 26.6007Z" fill="#80DEEA"/>
</svg>
