<svg width="35" height="39" viewBox="0 0 35 39" fill="none" xmlns="http://www.w3.org/2000/svg">
<path d="M0.161888 2.22814L2.81772 32.3249C2.92792 33.5755 3.79837 34.6299 5.00547 34.9746L15.7653 38.049C16.6731 38.3088 17.6346 38.3088 18.5424 38.049L29.3022 34.9746C30.5093 34.6299 31.3798 33.5765 31.49 32.3249L34.1458 2.22814C34.251 1.0453 33.3199 0.0282593 32.133 0.0282593H2.17575C0.988866 0.0282593 0.0577578 1.0453 0.161888 2.22814Z" fill="url(#paint0_linear_72_72)"/>
<path d="M17.1544 3.06119V35.3113L27.1388 32.4583C27.9445 32.2278 28.5248 31.5242 28.5976 30.6901L30.9087 4.16012C30.9602 3.5687 30.4952 3.06119 29.9017 3.06119H17.1544Z" fill="#35C1F1"/>
<path d="M26.3542 8.11606H17.1544V12.16H22.1081L21.8048 16.2039H17.1544V20.2478H21.6026L21.2994 24.7971L17.1544 26.2125V30.4586L25.1411 27.8301L25.8487 16.2039L26.3542 8.11606Z" fill="white"/>
<path d="M17.1544 8.11606V12.16H8.15669L7.85339 8.11606H17.1544ZM12.5039 16.2039L12.7061 20.2478H17.1544V16.2039H12.5039ZM12.9083 22.2697H8.86437L9.16766 27.8301L17.1544 30.4586V26.2125L13.0094 24.7971L12.9083 22.2697Z" fill="#D6E0E9"/>
<path opacity="0.05" d="M26.3542 8.11608L25.8487 16.2039L25.1411 27.8301L17.1544 30.4586L9.16765 27.8301L8.86436 22.2697H12.9083L13.0094 24.7972L17.1544 26.2125L21.2994 24.7972L21.6026 20.2478H17.1544H12.7061L12.5039 16.2039H17.1544H21.8048L22.1081 12.16H17.1544H8.15667L7.85338 8.11608H17.1544H26.3542ZM27.4299 7.1051H26.3542H17.1544H7.85338H6.76355L6.84544 8.1919L7.14873 12.2358L7.21849 13.171H8.15667H17.1544H21.0183L20.8667 15.1929H17.1544H12.5039H11.4413L11.4939 16.2544L11.6961 20.2983L11.7446 21.2588H8.86436H7.79677L7.8554 22.3243L8.1587 27.8847L8.1961 28.5742L8.85222 28.7905L16.8389 31.4191L17.1544 31.5232L17.4708 31.4191L25.4575 28.7905L26.1086 28.5762L26.15 27.8918L26.8577 16.2656L27.3632 8.17977L27.4299 7.1051ZM13.8798 21.2588H17.1544H20.5219L20.3349 24.0581L17.1544 25.1439L13.992 24.0642L13.9182 22.2293L13.8798 21.2588Z" fill="black"/>
<path opacity="0.07" d="M26.3542 8.11605L25.8487 16.2039L25.1411 27.8301L17.1544 30.4586L9.16766 27.8301L8.86436 22.2697H12.9083L13.0094 24.7971L17.1544 26.2125L21.2994 24.7971L21.6027 20.2478H17.1544H12.7061L12.5039 16.2039H17.1544H21.8048L22.1081 12.16H17.1544H8.15668L7.85339 8.11605H17.1544H26.3542ZM26.8921 7.61057H26.3542H17.1544H7.85339H7.30847L7.34891 8.15346L7.6522 12.1974L7.68759 12.6654H8.15668H17.1544H21.5632L21.3358 15.6984H17.1544H12.5039H11.9721L11.9984 16.2291L12.2006 20.273L12.2248 20.7532H12.7061H17.1544H21.0628L20.8181 24.4271L17.1544 25.6787L13.5007 24.4312L13.4138 22.2495L13.3935 21.7642H12.9083H8.86436H8.33057L8.35989 22.297L8.66318 27.8574L8.68239 28.2021L9.00994 28.3103L16.9966 30.9388L17.1544 30.9904L17.3121 30.9388L25.2988 28.3103L25.6243 28.2031L25.6455 27.8604L26.3532 16.2342L26.8587 8.14739L26.8921 7.61057Z" fill="black"/>
<defs>
<linearGradient id="paint0_linear_72_72" x1="9.40018" y1="-7.80478" x2="25.5384" y2="36.5336" gradientUnits="userSpaceOnUse">
<stop stop-color="#2AA4F4"/>
<stop offset="1" stop-color="#007AD9"/>
</linearGradient>
</defs>
</svg>
