<svg width="35" height="39" viewBox="0 0 35 39" fill="none" xmlns="http://www.w3.org/2000/svg">
<path d="M34.0499 0.314148H0.0499268L3.04993 34.3142L17.0499 38.3142L31.0499 34.3142L34.0499 0.314148Z" fill="#E65100"/>
<path d="M17.0499 3.3143V35.2143L28.2499 32.0143L30.7499 3.3143H17.0499Z" fill="#FF6D00"/>
<path d="M17.0499 20.3142V16.3142H25.6499L24.9499 27.8142L17.0499 30.4142V26.2142L21.1499 24.8142L21.4499 20.3142H17.0499ZM25.9499 12.3142L26.2499 8.31418H17.0499V12.3142H25.9499Z" fill="white"/>
<path d="M17.0498 26.2142V30.4142L9.14983 27.8142L8.74983 22.3142H12.7498L12.9498 24.8142L17.0498 26.2142ZM12.1498 12.3142H17.0498V8.31418H7.94983L8.64983 20.3142H17.0498V16.3142H12.4498L12.1498 12.3142Z" fill="#EEEEEE"/>
</svg>
