<svg width="56" height="34" viewBox="0 0 56 34" fill="none" xmlns="http://www.w3.org/2000/svg">
<path d="M28.427 0.0282593C21.8348 0.0282593 17.4022 2.90507 15.1269 8.65987C14.891 9.25552 15.6188 9.74501 16.0894 9.30978C18.4897 7.08995 21.1872 6.35512 24.1808 7.10292C26.3346 7.64078 27.8738 9.20362 29.5782 10.9328C32.3524 13.7483 35.5642 17.0084 42.5811 17.0084C49.1733 17.0084 53.6071 14.1304 55.8811 8.37561C56.117 7.77996 55.3893 7.29046 54.9187 7.7257C52.5184 9.94553 49.8209 10.6815 46.8273 9.93373C44.6747 9.39588 43.1354 7.83304 41.431 6.10388C38.6557 3.28723 35.4427 0.0282593 28.427 0.0282593ZM14.273 17.0084C7.6807 17.0084 3.24695 19.8864 0.972861 25.6412C0.736961 26.2368 1.46471 26.7263 1.93534 26.2911C4.33563 24.0713 7.03315 23.3353 10.0267 24.0842C12.1793 24.6233 13.7186 26.1849 15.423 27.9129C18.1983 30.7296 21.4113 33.9897 28.427 33.9897C35.0193 33.9897 39.453 31.1117 41.7271 25.3569C41.963 24.7613 41.2352 24.2718 40.7646 24.707C38.3643 26.9268 35.6668 27.6629 32.6732 26.9139C30.5194 26.376 28.9802 24.8132 27.2758 23.0852C24.5016 20.2685 21.2898 17.0084 14.273 17.0084Z" fill="url(#paint0_linear_72_70)"/>
<defs>
<linearGradient id="paint0_linear_72_70" x1="25.904" y1="-1.58412" x2="30.4357" y2="31.8135" gradientUnits="userSpaceOnUse">
<stop stop-color="#00C1E0"/>
<stop offset="1" stop-color="#009BB8"/>
</linearGradient>
</defs>
</svg>
