<svg width="161" height="160" viewBox="0 0 161 160" fill="none" xmlns="http://www.w3.org/2000/svg">
<g clip-path="url(#clip0_44_297)">
<rect width="160" height="160" transform="translate(0.956268)" fill="#020018"/>
<path d="M14.1109 64.9066C14.1109 64.9066 60.0649 18.4906 104.336 16.172C148.607 13.8534 -1.90822 158.631 54.284 142.618C110.476 126.606 147.802 71.4924 147.802 71.4924" stroke="#04001C" stroke-width="37" stroke-linecap="round"/>
<g filter="url(#filter0_d_44_297)">
<mask id="path-2-inside-1_44_297" fill="white">
<path d="M126.918 34.0381C138.608 45.7283 145.405 61.4339 145.924 77.9583C146.443 94.4827 140.647 110.584 129.713 122.985L125.764 119.503C135.812 108.107 141.139 93.3096 140.662 78.1237C140.185 62.9378 133.939 48.5043 123.195 37.761L126.918 34.0381Z"/>
</mask>
<path d="M126.918 34.0381C138.608 45.7283 145.405 61.4339 145.924 77.9583C146.443 94.4827 140.647 110.584 129.713 122.985L125.764 119.503C135.812 108.107 141.139 93.3096 140.662 78.1237C140.185 62.9378 133.939 48.5043 123.195 37.761L126.918 34.0381Z" fill="#EBFF00"/>
<path d="M126.918 34.0381C138.608 45.7283 145.405 61.4339 145.924 77.9583C146.443 94.4827 140.647 110.584 129.713 122.985L125.764 119.503C135.812 108.107 141.139 93.3096 140.662 78.1237C140.185 62.9378 133.939 48.5043 123.195 37.761L126.918 34.0381Z" stroke="white" stroke-width="2" mask="url(#path-2-inside-1_44_297)"/>
</g>
<g filter="url(#filter1_d_44_297)">
<mask id="path-3-inside-2_44_297" fill="white">
<path d="M34.9943 34.0381C46.6846 22.3478 62.3902 15.5514 78.9146 15.0321C95.439 14.5128 111.54 20.3096 123.942 31.2428L120.46 35.1921C109.063 25.1445 94.2659 19.8172 79.0799 20.2945C63.894 20.7717 49.4606 27.0176 38.7172 37.761L34.9943 34.0381Z"/>
</mask>
<path d="M34.9943 34.0381C46.6846 22.3478 62.3902 15.5514 78.9146 15.0321C95.439 14.5128 111.54 20.3096 123.942 31.2428L120.46 35.1921C109.063 25.1445 94.2659 19.8172 79.0799 20.2945C63.894 20.7717 49.4606 27.0176 38.7172 37.761L34.9943 34.0381Z" fill="#4DEC14"/>
<path d="M34.9943 34.0381C46.6846 22.3478 62.3902 15.5514 78.9146 15.0321C95.439 14.5128 111.54 20.3096 123.942 31.2428L120.46 35.1921C109.063 25.1445 94.2659 19.8172 79.0799 20.2945C63.894 20.7717 49.4606 27.0176 38.7172 37.761L34.9943 34.0381Z" stroke="white" stroke-width="2" mask="url(#path-3-inside-2_44_297)"/>
</g>
<g filter="url(#filter2_d_44_297)">
<mask id="path-4-inside-3_44_297" fill="white">
<path d="M34.9943 125.962C23.304 114.272 16.5076 98.5661 15.9883 82.0417C15.469 65.5173 21.2659 49.416 32.199 37.0147L36.1484 40.4965C26.1008 51.8933 20.7735 66.6904 21.2507 81.8763C21.728 97.0622 27.9739 111.496 38.7172 122.239L34.9943 125.962Z"/>
</mask>
<path d="M34.9943 125.962C23.304 114.272 16.5076 98.5661 15.9883 82.0417C15.469 65.5173 21.2659 49.416 32.199 37.0147L36.1484 40.4965C26.1008 51.8933 20.7735 66.6904 21.2507 81.8763C21.728 97.0622 27.9739 111.496 38.7172 122.239L34.9943 125.962Z" fill="#FF0000"/>
<path d="M34.9943 125.962C23.304 114.272 16.5076 98.5661 15.9883 82.0417C15.469 65.5173 21.2659 49.416 32.199 37.0147L36.1484 40.4965C26.1008 51.8933 20.7735 66.6904 21.2507 81.8763C21.728 97.0622 27.9739 111.496 38.7172 122.239L34.9943 125.962Z" stroke="white" stroke-width="2" mask="url(#path-4-inside-3_44_297)"/>
</g>
<g filter="url(#filter3_d_44_297)">
<mask id="path-5-inside-4_44_297" fill="white">
<path d="M126.918 125.962C115.228 137.652 99.5224 144.449 82.998 144.968C66.4736 145.487 50.3722 139.69 37.971 128.757L41.4528 124.808C52.8495 134.855 67.6467 140.183 82.8326 139.706C98.0185 139.228 112.452 132.982 123.195 122.239L126.918 125.962Z"/>
</mask>
<path d="M126.918 125.962C115.228 137.652 99.5224 144.449 82.998 144.968C66.4736 145.487 50.3722 139.69 37.971 128.757L41.4528 124.808C52.8495 134.855 67.6467 140.183 82.8326 139.706C98.0185 139.228 112.452 132.982 123.195 122.239L126.918 125.962Z" fill="#0500FF"/>
<path d="M126.918 125.962C115.228 137.652 99.5224 144.449 82.998 144.968C66.4736 145.487 50.3722 139.69 37.971 128.757L41.4528 124.808C52.8495 134.855 67.6467 140.183 82.8326 139.706C98.0185 139.228 112.452 132.982 123.195 122.239L126.918 125.962Z" stroke="white" stroke-width="2" mask="url(#path-5-inside-4_44_297)"/>
</g>
<path d="M67.0105 118.491H52.9563L52.9563 102.692C52.9563 102.692 59.3311 95.2104 67.0105 102.692V118.491Z" fill="#1245CB"/>
<path d="M52.9563 41.5091L67.0105 41.5091V66.8757C60.9121 59.7096 57.7821 81.3684 52.9563 66.8757V41.5091Z" fill="#1245CB"/>
<path d="M95.4479 109.421L82.6206 73.0123V99.1999L89.8764 118.491H100.501L116.956 75.0854V73.0123H108.534L95.4479 109.421Z" fill="#1245CB"/>
<path d="M71.2919 86.2829L59.6543 73.972C58.1009 76.9979 54.858 77.5125 52.9563 74.9552V97.018C55.3956 94.9301 55.5244 93.9578 59.6543 93.9578L60.6785 87.0702L71.2919 98.4434H76.7526V73.9094L71.2919 74.7844V86.2829Z" fill="#2B63F7"/>
<path d="M67.0105 118.491H52.9563L52.9563 102.692C52.9563 102.692 59.3311 95.2104 67.0105 102.692V118.491Z" stroke="white"/>
<path d="M52.9563 41.5091L67.0105 41.5091V66.8757C60.9121 59.7096 57.7821 81.3684 52.9563 66.8757V41.5091Z" stroke="white"/>
<path d="M95.4479 109.421L82.6206 73.0123V99.1999L89.8764 118.491H100.501L116.956 75.0854V73.0123H108.534L95.4479 109.421Z" stroke="white"/>
<path d="M71.2919 86.2829L59.6543 73.972C58.1009 76.9979 54.858 77.5125 52.9563 74.9552V97.018C55.3956 94.9301 55.5244 93.9578 59.6543 93.9578L60.6785 87.0702L71.2919 98.4434H76.7526V73.9094L71.2919 74.7844V86.2829Z" stroke="white"/>
</g>
<defs>
<filter id="filter0_d_44_297" x="119.195" y="34.0381" width="30.761" height="96.9472" filterUnits="userSpaceOnUse" color-interpolation-filters="sRGB">
<feFlood flood-opacity="0" result="BackgroundImageFix"/>
<feColorMatrix in="SourceAlpha" type="matrix" values="0 0 0 0 0 0 0 0 0 0 0 0 0 0 0 0 0 0 127 0" result="hardAlpha"/>
<feOffset dy="4"/>
<feGaussianBlur stdDeviation="2"/>
<feComposite in2="hardAlpha" operator="out"/>
<feColorMatrix type="matrix" values="0 0 0 0 0 0 0 0 0 0 0 0 0 0 0 0 0 0 0.25 0"/>
<feBlend mode="normal" in2="BackgroundImageFix" result="effect1_dropShadow_44_297"/>
<feBlend mode="normal" in="SourceGraphic" in2="effect1_dropShadow_44_297" result="shape"/>
</filter>
<filter id="filter1_d_44_297" x="30.9943" y="15" width="96.9472" height="30.761" filterUnits="userSpaceOnUse" color-interpolation-filters="sRGB">
<feFlood flood-opacity="0" result="BackgroundImageFix"/>
<feColorMatrix in="SourceAlpha" type="matrix" values="0 0 0 0 0 0 0 0 0 0 0 0 0 0 0 0 0 0 127 0" result="hardAlpha"/>
<feOffset dy="4"/>
<feGaussianBlur stdDeviation="2"/>
<feComposite in2="hardAlpha" operator="out"/>
<feColorMatrix type="matrix" values="0 0 0 0 0 0 0 0 0 0 0 0 0 0 0 0 0 0 0.25 0"/>
<feBlend mode="normal" in2="BackgroundImageFix" result="effect1_dropShadow_44_297"/>
<feBlend mode="normal" in="SourceGraphic" in2="effect1_dropShadow_44_297" result="shape"/>
</filter>
<filter id="filter2_d_44_297" x="11.9562" y="37.0147" width="30.761" height="96.9472" filterUnits="userSpaceOnUse" color-interpolation-filters="sRGB">
<feFlood flood-opacity="0" result="BackgroundImageFix"/>
<feColorMatrix in="SourceAlpha" type="matrix" values="0 0 0 0 0 0 0 0 0 0 0 0 0 0 0 0 0 0 127 0" result="hardAlpha"/>
<feOffset dy="4"/>
<feGaussianBlur stdDeviation="2"/>
<feComposite in2="hardAlpha" operator="out"/>
<feColorMatrix type="matrix" values="0 0 0 0 0 0 0 0 0 0 0 0 0 0 0 0 0 0 0.25 0"/>
<feBlend mode="normal" in2="BackgroundImageFix" result="effect1_dropShadow_44_297"/>
<feBlend mode="normal" in="SourceGraphic" in2="effect1_dropShadow_44_297" result="shape"/>
</filter>
<filter id="filter3_d_44_297" x="33.971" y="122.239" width="96.9472" height="30.761" filterUnits="userSpaceOnUse" color-interpolation-filters="sRGB">
<feFlood flood-opacity="0" result="BackgroundImageFix"/>
<feColorMatrix in="SourceAlpha" type="matrix" values="0 0 0 0 0 0 0 0 0 0 0 0 0 0 0 0 0 0 127 0" result="hardAlpha"/>
<feOffset dy="4"/>
<feGaussianBlur stdDeviation="2"/>
<feComposite in2="hardAlpha" operator="out"/>
<feColorMatrix type="matrix" values="0 0 0 0 0 0 0 0 0 0 0 0 0 0 0 0 0 0 0.25 0"/>
<feBlend mode="normal" in2="BackgroundImageFix" result="effect1_dropShadow_44_297"/>
<feBlend mode="normal" in="SourceGraphic" in2="effect1_dropShadow_44_297" result="shape"/>
</filter>
<clipPath id="clip0_44_297">
<rect width="160" height="160" fill="white" transform="translate(0.956268)"/>
</clipPath>
</defs>
</svg>
