<svg width="430" height="60" viewBox="0 0 430 60" fill="none" xmlns="http://www.w3.org/2000/svg">
<path d="M0.255371 1.13025H255.1M255.1 1.13025H430.056M255.1 1.13025V59.3324M255.1 59.3324H0.255371M255.1 59.3324H430.056" stroke="#959366"/>
<path d="M285.888 18.4124H283.472L282.336 17.7564V21.5324H280.784V10.2524H281.952L282.336 10.9084L283.472 10.2524H285.888L287.744 11.3244V17.3404L285.888 18.4124ZM282.336 11.6444V17.0204H286.192V11.6444H282.336ZM294.764 11.7244H291.852V18.3324H290.3V10.3324H291.468L291.852 10.9884L292.988 10.3324H294.764V11.7244ZM298.07 10.3324V18.3324H296.518V10.3324H298.07ZM296.438 8.3644V6.6524H298.15V8.3644H296.438ZM311.396 11.3244V18.3324H309.844V11.6444H306.788V18.3324H305.236V11.6444H302.18V18.3324H300.628V10.2524H301.796L302.18 10.9084L303.316 10.2524H304.932L306.42 11.1164L307.924 10.2524H309.54L311.396 11.3244ZM315.188 15.0524V17.0204H318.404V15.0524H315.188ZM315.492 18.4124L313.636 17.3404V14.7324L315.492 13.6604H318.404V11.7244H314.436V10.3324H318.1L319.956 11.4044V18.4124H319.54L318.404 17.7564L317.268 18.4124H315.492ZM326.982 11.7244H324.07V18.3324H322.518V10.3324H323.686L324.07 10.9884L325.206 10.3324H326.982V11.7244ZM329.473 21.5324L330.865 17.9644L327.777 10.3324H329.329L331.601 16.0284H331.633L333.889 10.3324H335.441L330.993 21.5324H329.473Z" fill="white"/>
<path d="M262.937 49.3324V44.9824H267.287V49.3324H262.937ZM262.937 39.1824V34.8324H267.287V39.1824H262.937ZM280.319 49.3324V29.0324H283.219V46.7224H290.73V49.3324H280.319ZM296.139 43.3874V46.9544H301.968V43.3874H296.139ZM296.69 49.4774L293.326 47.5344V42.8074L296.69 40.8644H301.968V37.3554H294.776V34.8324H301.417L304.781 36.7754V49.4774H304.027L301.968 48.2884L299.909 49.4774H296.69ZM321.75 36.6304V49.3324H318.937V37.2104H312.238V49.3324H309.425V34.6874H311.542L312.238 35.8764L314.297 34.6874H318.386L321.75 36.6304ZM329.202 49.3324L326.389 47.7084V45.0984L328.448 43.9094L326.389 42.7204V36.7754L329.753 34.8324H339.004V35.8184L336.365 37.3554L338.134 38.3994V42.4014L334.77 44.3444H329.202V46.8094H335.64L339.004 48.7524V53.3344L335.64 55.2774H329.173L325.809 53.3344V51.5364L328.622 49.9124V52.8124H336.191V49.3324H329.202ZM329.202 37.2974V41.8794H335.321V37.2974H329.202ZM343.07 47.5344V34.8324H345.883V46.9544H352.582V34.8324H355.395V49.4774H353.278L352.582 48.2884L350.523 49.4774H346.434L343.07 47.5344ZM362.267 43.3874V46.9544H368.096V43.3874H362.267ZM362.818 49.4774L359.454 47.5344V42.8074L362.818 40.8644H368.096V37.3554H360.904V34.8324H367.545L370.909 36.7754V49.4774H370.155L368.096 48.2884L366.037 49.4774H362.818ZM378.366 49.3324L375.553 47.7084V45.0984L377.612 43.9094L375.553 42.7204V36.7754L378.917 34.8324H388.168V35.8184L385.529 37.3554L387.298 38.3994V42.4014L383.934 44.3444H378.366V46.8094H384.804L388.168 48.7524V53.3344L384.804 55.2774H378.337L374.973 53.3344V51.5364L377.786 49.9124V52.8124H385.355V49.3324H378.366ZM378.366 37.2974V41.8794H384.485V37.2974H378.366ZM403.689 46.8094V49.3324H395.598L392.234 47.3894V36.6304L395.598 34.6874H400.325L403.689 36.6304V43.0684H395.047V46.8094H403.689ZM395.047 37.2104V40.5454H400.876V37.2104H395.047ZM419.224 42.6624V47.3894L415.86 49.3324H408.32V46.8094H416.411V43.2424H411.684L408.32 41.2994V36.7754L411.684 34.8324H418.934V37.3554H411.133V40.7194H415.86L419.224 42.6624Z" fill="white"/>
<path d="M42.7678 12.0855C41.1596 12.093 39.6239 12.2302 38.2726 12.4693C34.2919 13.1725 33.5692 14.6445 33.5692 17.3591V20.9443H42.9761V22.1393H33.5692H30.0388C27.3049 22.1393 24.911 23.7826 24.1622 26.9086C23.2985 30.4917 23.2602 32.7276 24.1622 36.469C24.8309 39.2539 26.4278 41.2383 29.1617 41.2383H32.396V36.9404C32.396 33.8355 35.0825 31.0967 38.2726 31.0967H47.6686C50.2841 31.0967 52.3721 28.9432 52.3721 26.3165V17.3591C52.3721 14.8098 50.2214 12.8947 47.6686 12.4693C46.0526 12.2003 44.3759 12.0781 42.7678 12.0855ZM37.6806 14.969C38.6522 14.969 39.4457 15.7755 39.4457 16.7671C39.4457 17.7552 38.6522 18.5542 37.6806 18.5542C36.7054 18.5542 35.9154 17.7552 35.9154 16.7671C35.9154 15.7755 36.7054 14.969 37.6806 14.969Z" fill="url(#paint0_linear_104_3)"/>
<path d="M53.5453 22.1393V26.3165C53.5453 29.555 50.7996 32.2808 47.6687 32.2808H38.2727C35.699 32.2808 33.5692 34.4835 33.5692 37.061V46.0184C33.5692 48.5677 35.7861 50.0672 38.2727 50.7986C41.2504 51.6742 44.1059 51.8324 47.6687 50.7986C50.0369 50.1129 52.3721 48.733 52.3721 46.0184V42.4332H42.9762V41.2382H52.3721H57.0756C59.8095 41.2382 60.8283 39.3312 61.7791 36.4689C62.7612 33.5223 62.7194 30.6885 61.7791 26.9085C61.1034 24.1869 59.813 22.1393 57.0756 22.1393H53.5453ZM48.2607 44.8233C49.2359 44.8233 50.0259 45.6224 50.0259 46.6104C50.0259 47.602 49.2359 48.4085 48.2607 48.4085C47.2891 48.4085 46.4956 47.602 46.4956 46.6104C46.4956 45.6224 47.2891 44.8233 48.2607 44.8233Z" fill="url(#paint1_linear_104_3)"/>
<path opacity="0.44382" d="M43.0827 59.3323C50.0449 59.3323 55.6888 58.2379 55.6888 56.8878C55.6888 55.5378 50.0449 54.4434 43.0827 54.4434C36.1206 54.4434 30.4767 55.5378 30.4767 56.8878C30.4767 58.2379 36.1206 59.3323 43.0827 59.3323Z" fill="url(#paint2_radial_104_3)"/>
<path fill-rule="evenodd" clip-rule="evenodd" d="M97.6184 8.8014C98.3331 8.40035 99.2131 8.40035 99.9268 8.8014C103.458 10.7835 114.086 16.7498 117.618 18.7319C118.333 19.1319 118.773 19.8729 118.773 20.6751C118.773 24.6393 118.773 36.5708 118.773 40.535C118.773 41.3371 118.333 42.0782 117.618 42.4792C114.087 44.4613 103.459 50.4276 99.9268 52.4097C99.2121 52.8108 98.3321 52.8108 97.6184 52.4097C94.0868 50.4276 83.4595 44.4613 79.9269 42.4792C79.2132 42.0782 78.7732 41.3382 78.7732 40.5361C78.7732 36.5719 78.7732 24.6403 78.7732 20.6761C78.7732 19.874 79.2132 19.133 79.9279 18.7319C83.4584 16.7498 94.0879 10.7835 97.6184 8.8014Z" fill="url(#paint3_linear_104_3)"/>
<path fill-rule="evenodd" clip-rule="evenodd" d="M79.0932 41.5561C78.8132 41.1814 78.7732 40.8256 78.7732 40.3466C78.7732 36.4056 78.7732 24.5424 78.7732 20.6003C78.7732 19.8025 79.2121 19.0656 79.9248 18.6677C83.4437 16.6972 94.0353 10.7656 97.5542 8.79406C98.2668 8.39511 99.2321 8.40353 99.9447 8.80248C103.464 10.773 114.019 16.654 117.538 18.6246C117.823 18.7846 118.039 18.9772 118.233 19.2309L79.0932 41.5561Z" fill="url(#paint4_linear_104_3)"/>
<path fill-rule="evenodd" clip-rule="evenodd" d="M98.7728 15.868C106.906 15.868 113.51 22.4711 113.51 30.6048C113.51 38.7385 106.906 45.3416 98.7728 45.3416C90.6391 45.3416 84.0359 38.7385 84.0359 30.6048C84.0359 22.4711 90.6391 15.868 98.7728 15.868ZM98.7728 23.2364C102.839 23.2364 106.141 26.5375 106.141 30.6048C106.141 34.6711 102.839 37.9732 98.7728 37.9732C94.7065 37.9732 91.4044 34.6711 91.4044 30.6048C91.4044 26.5375 94.7054 23.2364 98.7728 23.2364Z" fill="white"/>
<path fill-rule="evenodd" clip-rule="evenodd" d="M118.231 19.2416C118.774 19.75 118.764 20.5163 118.764 21.1195C118.764 25.1142 118.73 36.4763 118.773 40.471C118.777 40.8878 118.639 41.3268 118.433 41.6573L98.3447 30.6047L118.231 19.2416Z" fill="url(#paint5_linear_104_3)"/>
<path opacity="0.05" d="M98.7728 15.8679C104.171 15.8679 108.88 18.7848 111.448 23.1174L105.055 26.77C103.759 24.6542 101.433 23.2363 98.7728 23.2363C94.7055 23.2363 91.4044 26.5374 91.4044 30.6047C91.4044 34.671 94.7065 37.9731 98.7728 37.9731C101.478 37.9731 103.838 36.5079 105.119 34.3321L111.574 37.8837C109.036 42.3331 104.257 45.3415 98.7728 45.3415C90.6392 45.3415 84.036 38.7384 84.036 30.6047C84.036 22.4711 90.6392 15.8679 98.7728 15.8679ZM98.7728 14.8153C90.0665 14.8153 82.9834 21.8984 82.9834 30.6047C82.9834 39.311 90.0665 46.3942 98.7728 46.3942C104.422 46.3942 109.678 43.3331 112.489 38.4047L113.018 37.4763L112.081 36.9605L105.627 33.4089L104.731 32.9163L104.212 33.7974C103.078 35.7237 100.994 36.9205 98.7728 36.9205C95.2907 36.9205 92.4571 34.0868 92.4571 30.6047C92.4571 27.1226 95.2907 24.289 98.7728 24.289C100.982 24.289 102.995 25.4216 104.157 27.3195L104.691 28.1911L105.577 27.6847L111.97 24.0321L112.898 23.5016L112.353 22.5816C109.515 17.7911 104.312 14.8153 98.7728 14.8153Z" fill="black"/>
<path opacity="0.07" d="M98.7735 15.8673C104.171 15.8673 108.881 18.7842 111.448 23.1168L105.056 26.7694C103.76 24.6536 101.433 23.2358 98.7735 23.2358C94.7061 23.2358 91.4051 26.5368 91.4051 30.6042C91.4051 34.6705 94.7072 37.9726 98.7735 37.9726C101.479 37.9726 103.839 36.5073 105.12 34.3315L111.575 37.8831C109.037 42.3326 104.258 45.341 98.7735 45.341C90.6398 45.341 84.0367 38.7378 84.0367 30.6042C84.0367 22.4705 90.6398 15.8673 98.7735 15.8673ZM98.7735 15.341C90.3577 15.341 83.5104 22.1884 83.5104 30.6042C83.5104 39.0199 90.3577 45.8673 98.7735 45.8673C104.235 45.8673 109.315 42.9073 112.031 38.1441L112.297 37.6799L111.828 37.422L105.373 33.8705L104.926 33.6242L104.667 34.0642C103.438 36.1505 101.18 37.4463 98.7735 37.4463C95.0009 37.4463 91.9314 34.3768 91.9314 30.6042C91.9314 26.8315 95.0009 23.7621 98.7735 23.7621C101.168 23.7621 103.348 24.9894 104.607 27.0442L104.873 27.48L105.317 27.2263L111.709 23.5736L112.173 23.3084L111.901 22.8484C109.157 18.2179 104.127 15.341 98.7735 15.341Z" fill="black"/>
<path fill-rule="evenodd" clip-rule="evenodd" d="M153.891 8.80198C154.606 8.40093 155.486 8.40093 156.2 8.80198C159.731 10.7841 170.359 16.7504 173.891 18.7325C174.606 19.1325 175.046 19.8735 175.046 20.6756C175.046 24.6398 175.046 36.5714 175.046 40.5356C175.046 41.3377 174.606 42.0787 173.891 42.4798C170.36 44.4619 159.732 50.4282 156.2 52.4103C155.485 52.8114 154.605 52.8114 153.891 52.4103C150.36 50.4282 139.733 44.4619 136.2 42.4798C135.486 42.0787 135.046 41.3387 135.046 40.5366C135.046 36.5724 135.046 24.6409 135.046 20.6767C135.046 19.8746 135.486 19.1335 136.201 18.7325C139.731 16.7504 150.361 10.7841 153.891 8.80198Z" fill="url(#paint6_linear_104_3)"/>
<path fill-rule="evenodd" clip-rule="evenodd" d="M135.366 41.5577C135.086 41.1829 135.046 40.8272 135.046 40.3482C135.046 36.4072 135.046 24.544 135.046 20.6019C135.046 19.804 135.485 19.0672 136.198 18.6693C139.717 16.6988 150.308 10.7672 153.827 8.79564C154.54 8.3967 155.505 8.40512 156.218 8.80406C159.737 10.7746 170.292 16.6556 173.811 18.6261C174.096 18.7861 174.312 18.9788 174.506 19.2325L135.366 41.5577Z" fill="url(#paint7_linear_104_3)"/>
<path fill-rule="evenodd" clip-rule="evenodd" d="M155.046 15.8693C163.18 15.8693 169.783 22.4724 169.783 30.6061C169.783 38.7398 163.18 45.3429 155.046 45.3429C146.912 45.3429 140.309 38.7398 140.309 30.6061C140.309 22.4724 146.912 15.8693 155.046 15.8693ZM155.046 23.2377C159.112 23.2377 162.415 26.5387 162.415 30.6061C162.415 34.6724 159.112 37.9745 155.046 37.9745C150.98 37.9745 147.678 34.6724 147.678 30.6061C147.678 26.5387 150.979 23.2377 155.046 23.2377Z" fill="white"/>
<path fill-rule="evenodd" clip-rule="evenodd" d="M174.504 19.243C175.047 19.7514 175.037 20.5177 175.037 21.1209C175.037 25.1156 175.003 36.4777 175.046 40.4724C175.05 40.8893 174.912 41.3282 174.706 41.6588L154.618 30.6061L174.504 19.243Z" fill="url(#paint8_linear_104_3)"/>
<g opacity="0.05">
<path d="M164.52 27.4482V29.5535H166.625V31.6587H164.52V33.764H162.415V31.6587H160.309V29.5535H162.415V27.4482H164.52ZM165.572 26.3956H164.52H162.415H161.362V27.4482V28.5009H160.309H159.257V29.5535V31.6587V32.7114H160.309H161.362V33.764V34.8166H162.415H164.52H165.572V33.764V32.7114H166.625H167.678V31.6587V29.5535V28.5009H166.625H165.572V27.4482V26.3956Z" fill="black"/>
<path d="M171.888 27.4483V29.5535H173.994V31.6588H171.888V33.7641H169.783V31.6588H167.678V29.5535H169.783V27.4483H171.888ZM172.941 26.3957H171.888H169.783H168.73V27.4483V28.5009H167.678H166.625V29.5535V31.6588V32.7114H167.678H168.73V33.7641V34.8167H169.783H171.888H172.941V33.7641V32.7114H173.994H175.046V31.6588V29.5535V28.5009H173.994H172.941V27.4483V26.3957Z" fill="black"/>
</g>
<g opacity="0.07">
<path d="M164.52 27.4482V29.5535H166.625V31.6587H164.52V33.764H162.415V31.6587H160.309V29.5535H162.415V27.4482H164.52ZM165.046 26.9219H164.52H162.415H161.888V27.4482V29.0272H160.309H159.783V29.5535V31.6587V32.1851H160.309H161.888V33.764V34.2903H162.415H164.52H165.046V33.764V32.1851H166.625H167.151V31.6587V29.5535V29.0272H166.625H165.046V27.4482V26.9219Z" fill="black"/>
<path d="M171.888 27.4482V29.5535H173.993V31.6587H171.888V33.764H169.783V31.6587H167.678V29.5535H169.783V27.4482H171.888ZM172.415 26.9219H171.888H169.783H169.257V27.4482V29.0272H167.678H167.151V29.5535V31.6587V32.1851H167.678H169.257V33.764V34.2903H169.783H171.888H172.415V33.764V32.1851H173.993H174.52V31.6587V29.5535V29.0272H173.993H172.415V27.4482V26.9219Z" fill="black"/>
</g>
<path d="M164.52 27.4482H162.415V29.5535H160.309V31.6588H162.415V33.764H164.52V31.6588H166.625V29.5535H164.52V27.4482Z" fill="white"/>
<path d="M173.994 29.5535H171.888V27.4482H169.783V29.5535H167.678V31.6588H169.783V33.764H171.888V31.6588H173.994V29.5535Z" fill="white"/>
<path opacity="0.05" d="M155.046 15.8693C160.444 15.8693 165.153 18.7861 167.721 23.1188L161.328 26.7714C160.032 24.6556 157.706 23.2377 155.046 23.2377C150.979 23.2377 147.678 26.5388 147.678 30.6061C147.678 34.6724 150.98 37.9745 155.046 37.9745C157.751 37.9745 160.111 36.5093 161.392 34.3335L167.847 37.8851C165.309 42.3345 160.53 45.3429 155.046 45.3429C146.912 45.3429 140.309 38.7398 140.309 30.6061C140.309 22.4725 146.912 15.8693 155.046 15.8693ZM155.046 14.8167C146.34 14.8167 139.257 21.8998 139.257 30.6061C139.257 39.3124 146.34 46.3956 155.046 46.3956C160.696 46.3956 165.951 43.3345 168.762 38.4061L169.291 37.4777L168.355 36.9619L161.9 33.4103L161.004 32.9177L160.485 33.7987C159.351 35.7251 157.267 36.9219 155.046 36.9219C151.564 36.9219 148.73 34.0882 148.73 30.6061C148.73 27.124 151.564 24.2903 155.046 24.2903C157.256 24.2903 159.268 25.423 160.43 27.3209L160.964 28.1924L161.85 27.6861L168.243 24.0335L169.171 23.503L168.626 22.583C165.788 17.7925 160.585 14.8167 155.046 14.8167Z" fill="black"/>
<path opacity="0.07" d="M155.046 15.8693C160.444 15.8693 165.154 18.7861 167.721 23.1188L161.328 26.7714C160.033 24.6556 157.706 23.2377 155.046 23.2377C150.979 23.2377 147.678 26.5388 147.678 30.6061C147.678 34.6724 150.98 37.9745 155.046 37.9745C157.751 37.9745 160.111 36.5093 161.393 34.3335L167.847 37.885C165.309 42.3345 160.53 45.3429 155.046 45.3429C146.913 45.3429 140.309 38.7398 140.309 30.6061C140.309 22.4724 146.913 15.8693 155.046 15.8693ZM155.046 15.343C146.63 15.343 139.783 22.1903 139.783 30.6061C139.783 39.0219 146.63 45.8692 155.046 45.8692C160.507 45.8692 165.587 42.9092 168.304 38.1461L168.569 37.6819L168.101 37.424L161.646 33.8724L161.199 33.6261L160.94 34.0661C159.71 36.1524 157.453 37.4482 155.046 37.4482C151.274 37.4482 148.204 34.3787 148.204 30.6061C148.204 26.8335 151.274 23.764 155.046 23.764C157.441 23.764 159.621 24.9914 160.88 27.0461L161.146 27.4819L161.589 27.2282L167.982 23.5756L168.446 23.3103L168.174 22.8503C165.429 18.2198 160.4 15.343 155.046 15.343Z" fill="black"/>
<path fill-rule="evenodd" clip-rule="evenodd" d="M210.164 10.5343C210.879 10.1332 211.759 10.1332 212.473 10.5343C216.004 12.5164 226.632 18.4827 230.164 20.4648C230.879 20.8648 231.319 21.6058 231.319 22.4079C231.319 26.3721 231.319 38.3037 231.319 42.2679C231.319 43.07 230.879 43.811 230.164 44.2121C226.633 46.1942 216.005 52.1605 212.473 54.1426C211.758 54.5437 210.878 54.5437 210.164 54.1426C206.633 52.1605 196.006 46.1942 192.473 44.2121C191.759 43.811 191.319 43.071 191.319 42.2689C191.319 38.3047 191.319 26.3732 191.319 22.409C191.319 21.6069 191.759 20.8658 192.474 20.4648C196.004 18.4827 206.634 12.5164 210.164 10.5343Z" fill="url(#paint9_linear_104_3)"/>
<path fill-rule="evenodd" clip-rule="evenodd" d="M191.639 43.29C191.359 42.9152 191.319 42.5595 191.319 42.0805C191.319 38.1395 191.319 26.2763 191.319 22.3342C191.319 21.5363 191.758 20.7995 192.471 20.4016C195.99 18.4311 206.581 12.4995 210.1 10.5279C210.813 10.129 211.778 10.1374 212.491 10.5364C216.01 12.5069 226.565 18.3879 230.084 20.3584C230.369 20.5184 230.585 20.7111 230.779 20.9648L191.639 43.29Z" fill="url(#paint10_linear_104_3)"/>
<path fill-rule="evenodd" clip-rule="evenodd" d="M211.319 17.6016C219.453 17.6016 226.056 24.2047 226.056 32.3384C226.056 40.4721 219.453 47.0752 211.319 47.0752C203.185 47.0752 196.582 40.4721 196.582 32.3384C196.582 24.2047 203.185 17.6016 211.319 17.6016ZM211.319 24.97C215.385 24.97 218.688 28.271 218.688 32.3384C218.688 36.4047 215.385 39.7068 211.319 39.7068C207.253 39.7068 203.951 36.4047 203.951 32.3384C203.951 28.271 207.252 24.97 211.319 24.97Z" fill="white"/>
<path fill-rule="evenodd" clip-rule="evenodd" d="M230.777 20.9753C231.32 21.4837 231.31 22.25 231.31 22.8532C231.31 26.8479 231.276 38.21 231.319 42.2047C231.323 42.6216 231.185 43.0605 230.979 43.3911L210.891 32.3384L230.777 20.9753Z" fill="url(#paint11_linear_104_3)"/>
<path opacity="0.05" d="M226.056 28.1279V30.2332H228.161V31.2858H226.056V33.3911H228.161V34.4437H226.056V36.549H225.003V34.4437H222.898V36.549H221.845V34.4437H219.74V33.3911H221.845V31.2858H219.74V30.2332H221.845V28.1279H222.898V30.2332H225.003V28.1279H226.056ZM222.898 33.3911H225.003V31.2858H222.898V33.3911ZM227.109 27.0753H226.056H225.003H223.951H222.898H221.845H220.793V28.1279V29.1805H219.74H218.688V30.2332V31.2858V32.3384V33.3911V34.4437V35.4963H219.74H220.793V36.549V37.6016H221.845H222.898H223.951H225.003H226.056H227.109V36.549V35.4963H228.161H229.214V34.4437V33.3911V32.3384V31.2858V30.2332V29.1805H228.161H227.109V28.1279V27.0753Z" fill="black"/>
<path opacity="0.07" d="M226.056 28.1279V30.2332H228.161V31.2858H226.056V33.3911H228.161V34.4437H226.056V36.5489H225.003V34.4437H222.898V36.5489H221.845V34.4437H219.74V33.3911H221.845V31.2858H219.74V30.2332H221.845V28.1279H222.898V30.2332H225.003V28.1279H226.056ZM222.898 33.3911H225.003V31.2858H222.898V33.3911ZM226.582 27.6016H226.056H225.003H224.477V28.1279V29.7069H223.424V28.1279V27.6016H222.898H221.845H221.319V28.1279V29.7069H219.74H219.214V30.2332V31.2858V31.8121H219.74H221.319V32.8647H219.74H219.214V33.3911V34.4437V34.97H219.74H221.319V36.5489V37.0753H221.845H222.898H223.424V36.5489V34.97H224.477V36.5489V37.0753H225.003H226.056H226.582V36.5489V34.97H228.161H228.688V34.4437V33.3911V32.8647H228.161H226.582V31.8121H228.161H228.688V31.2858V30.2332V29.7069H228.161H226.582V28.1279V27.6016ZM223.424 31.8121H224.477V32.8647H223.424V31.8121Z" fill="black"/>
<path d="M228.161 31.2858V30.2332H226.056V28.1279H225.003V30.2332H222.898V28.1279H221.845V30.2332H219.74V31.2858H221.845V33.391H219.74V34.4437H221.845V36.5489H222.898V34.4437H225.003V36.5489H226.056V34.4437H228.161V33.391H226.056V31.2858H228.161ZM225.003 33.391H222.898V31.2858H225.003V33.391Z" fill="white"/>
<path opacity="0.05" d="M211.319 17.6016C216.717 17.6016 221.427 20.5184 223.994 24.8511L217.601 28.5037C216.305 26.3879 213.979 24.97 211.319 24.97C207.252 24.97 203.951 28.2711 203.951 32.3384C203.951 36.4047 207.253 39.7068 211.319 39.7068C214.024 39.7068 216.384 38.2416 217.665 36.0658L224.12 39.6174C221.582 44.0668 216.803 47.0752 211.319 47.0752C203.185 47.0752 196.582 40.4721 196.582 32.3384C196.582 24.2048 203.185 17.6016 211.319 17.6016ZM211.319 16.549C202.613 16.549 195.53 23.6321 195.53 32.3384C195.53 41.0447 202.613 48.1279 211.319 48.1279C216.969 48.1279 222.224 45.0668 225.035 40.1384L225.564 39.21L224.628 38.6942L218.173 35.1426L217.277 34.65L216.758 35.531C215.624 37.4574 213.54 38.6542 211.319 38.6542C207.837 38.6542 205.003 35.8205 205.003 32.3384C205.003 28.8563 207.837 26.0226 211.319 26.0226C213.529 26.0226 215.541 27.1553 216.703 29.0532L217.237 29.9247L218.123 29.4184L224.516 25.7658L225.444 25.2353L224.899 24.3153C222.061 19.5248 216.858 16.549 211.319 16.549Z" fill="black"/>
<path opacity="0.07" d="M211.319 17.6016C216.717 17.6016 221.427 20.5184 223.994 24.851L217.601 28.5037C216.306 26.3879 213.979 24.97 211.319 24.97C207.252 24.97 203.951 28.271 203.951 32.3384C203.951 36.4047 207.253 39.7068 211.319 39.7068C214.024 39.7068 216.384 38.2415 217.666 36.0657L224.12 39.6173C221.582 44.0668 216.803 47.0752 211.319 47.0752C203.186 47.0752 196.582 40.472 196.582 32.3384C196.582 24.2047 203.186 17.6016 211.319 17.6016ZM211.319 17.0753C202.903 17.0753 196.056 23.9226 196.056 32.3384C196.056 40.7541 202.903 47.6015 211.319 47.6015C216.78 47.6015 221.86 44.6415 224.577 39.8784L224.842 39.4142L224.374 39.1563L217.919 35.6047L217.472 35.3584L217.213 35.7984C215.983 37.8847 213.726 39.1805 211.319 39.1805C207.547 39.1805 204.477 36.111 204.477 32.3384C204.477 28.5658 207.547 25.4963 211.319 25.4963C213.714 25.4963 215.894 26.7237 217.153 28.7784L217.419 29.2142L217.862 28.9605L224.255 25.3079L224.719 25.0426L224.447 24.5826C221.702 19.9521 216.673 17.0753 211.319 17.0753Z" fill="black"/>
<defs>
<linearGradient id="paint0_linear_104_3" x1="23.5" y1="12.0852" x2="45.1914" y2="30.5692" gradientUnits="userSpaceOnUse">
<stop stop-color="#5A9FD4"/>
<stop offset="1" stop-color="#306998"/>
</linearGradient>
<linearGradient id="paint1_linear_104_3" x1="48.0347" y1="46.309" x2="40.2526" y2="35.4041" gradientUnits="userSpaceOnUse">
<stop stop-color="#FFD43B"/>
<stop offset="1" stop-color="#FFE873"/>
</linearGradient>
<radialGradient id="paint2_radial_104_3" cx="0" cy="0" r="1" gradientUnits="userSpaceOnUse" gradientTransform="translate(43.0827 56.8878) rotate(-90) scale(2.44443 10.7443)">
<stop stop-color="#B8B8B8" stop-opacity="0.498039"/>
<stop offset="1" stop-color="#7F7F7F" stop-opacity="0"/>
</radialGradient>
<linearGradient id="paint3_linear_104_3" x1="97.1731" y1="26.2087" x2="107.018" y2="53.2581" gradientUnits="userSpaceOnUse">
<stop stop-color="#3940A4"/>
<stop offset="1" stop-color="#293091"/>
</linearGradient>
<linearGradient id="paint4_linear_104_3" x1="90.8047" y1="8.90142" x2="101.602" y2="38.5645" gradientUnits="userSpaceOnUse">
<stop stop-color="#7B83EB"/>
<stop offset="1" stop-color="#5961C3"/>
</linearGradient>
<linearGradient id="paint5_linear_104_3" x1="106.174" y1="18.8837" x2="115.335" y2="44.0541" gradientUnits="userSpaceOnUse">
<stop stop-color="#5C65D6"/>
<stop offset="0.999" stop-color="#464EB0"/>
</linearGradient>
<linearGradient id="paint6_linear_104_3" x1="135.046" y1="30.6061" x2="175.046" y2="30.6061" gradientUnits="userSpaceOnUse">
<stop offset="0.002" stop-color="#427FDB"/>
<stop offset="0.397" stop-color="#2668CB"/>
<stop offset="0.763" stop-color="#1358BF"/>
<stop offset="1" stop-color="#0C52BB"/>
</linearGradient>
<linearGradient id="paint7_linear_104_3" x1="135.046" y1="25.0293" x2="174.506" y2="25.0293" gradientUnits="userSpaceOnUse">
<stop stop-color="#32BDEF"/>
<stop offset="1" stop-color="#1EA2E4"/>
</linearGradient>
<linearGradient id="paint8_linear_104_3" x1="154.618" y1="30.4504" x2="175.046" y2="30.4504" gradientUnits="userSpaceOnUse">
<stop stop-color="#2AA4F4"/>
<stop offset="1" stop-color="#007AD9"/>
</linearGradient>
<linearGradient id="paint9_linear_104_3" x1="197.556" y1="-5.47621" x2="213.644" y2="38.7258" gradientUnits="userSpaceOnUse">
<stop stop-color="#889097"/>
<stop offset="1" stop-color="#4C5963"/>
</linearGradient>
<linearGradient id="paint10_linear_104_3" x1="207.333" y1="21.5763" x2="224.716" y2="69.3352" gradientUnits="userSpaceOnUse">
<stop stop-color="#889097"/>
<stop offset="1" stop-color="#4C5963"/>
</linearGradient>
<linearGradient id="paint11_linear_104_3" x1="214.728" y1="9.64692" x2="230.865" y2="53.9868" gradientUnits="userSpaceOnUse">
<stop stop-color="#889097"/>
<stop offset="1" stop-color="#4C5963"/>
</linearGradient>
</defs>
</svg>
