<svg width="101" height="101" viewBox="0 0 101 101" fill="none" xmlns="http://www.w3.org/2000/svg">
<path d="M93.5788 0.478027H7.84222C3.91364 0.478027 0.72168 3.71464 0.72168 7.68785V93.2682C0.72168 97.2414 3.91364 100.478 7.84222 100.478H93.5788C97.5074 100.478 100.722 97.2414 100.722 93.2682V7.68785C100.722 3.71464 97.5074 0.478027 93.5788 0.478027ZM30.9449 86.1923H16.1235V38.4691H30.9672V86.1923H30.9449ZM23.5342 31.9512C18.7797 31.9512 14.9404 28.0896 14.9404 23.3575C14.9404 18.6253 18.7797 14.7637 23.5342 14.7637C28.2663 14.7637 32.1279 18.6253 32.1279 23.3575C32.1279 28.112 28.2886 31.9512 23.5342 31.9512ZM86.5029 86.1923H71.6815V62.978C71.6815 57.4423 71.5699 50.3218 63.9806 50.3218C56.2574 50.3218 55.0744 56.3486 55.0744 62.5762V86.1923H40.2529V38.4691H54.4717V44.987H54.6726C56.6592 41.237 61.5029 37.2861 68.7128 37.2861C83.7128 37.2861 86.5029 47.1745 86.5029 60.0316V86.1923Z" fill="white"/>
</svg>
