<svg width="101" height="76" viewBox="0 0 101 76" fill="none" xmlns="http://www.w3.org/2000/svg">
<path d="M13.2217 9.61401C11.5029 9.61401 10.0967 11.0203 10.0967 12.739V17.0554L43.7881 44.7117C47.8311 48.032 53.6318 48.032 57.6748 44.7117L91.3467 17.0554V12.739C91.3467 11.0203 89.9404 9.61401 88.2217 9.61401H13.2217ZM10.0967 29.1843V62.739C10.0967 64.4578 11.5029 65.864 13.2217 65.864H88.2217C89.9404 65.864 91.3467 64.4578 91.3467 62.739V29.1843L63.6123 51.9578C56.1123 58.1101 45.3115 58.1101 37.8311 51.9578L10.0967 29.1843ZM0.72168 12.739C0.72168 5.84448 6.32715 0.239014 13.2217 0.239014H88.2217C95.1162 0.239014 100.722 5.84448 100.722 12.739V62.739C100.722 69.6335 95.1162 75.239 88.2217 75.239H13.2217C6.32715 75.239 0.72168 69.6335 0.72168 62.739V12.739Z" fill="white"/>
</svg>
