<svg width="1632" height="295" viewBox="0 0 1632 295" fill="none" xmlns="http://www.w3.org/2000/svg">
<mask id="path-1-outside-1_144_2" maskUnits="userSpaceOnUse" x="4" y="46.8387" width="1623" height="163" fill="black">
<rect fill="white" x="4" y="46.8387" width="1623" height="163"/>
<path d="M10.293 99.7187C10.293 84.8267 16.425 72.7087 28.689 63.3647C41.099 54.0207 57.305 49.3487 77.307 49.3487C97.455 49.3487 113.88 54.2397 126.582 64.0217C139.43 73.8037 145.854 84.0237 145.854 94.6817C145.854 95.9957 145.343 97.1637 144.321 98.1857C143.445 99.0617 142.423 99.4997 141.255 99.4997H97.455C94.097 99.4997 91.031 98.2587 88.257 95.7767C85.483 93.2947 81.76 92.0537 77.088 92.0537C70.08 92.0537 66.576 94.0977 66.576 98.1857C66.576 100.376 68.255 102.201 71.613 103.661C75.117 105.121 81.541 106.435 90.885 107.603C112.639 110.377 128.115 115.487 137.313 122.933C146.657 130.233 151.329 141.402 151.329 156.44C151.329 171.332 144.467 183.523 130.743 193.013C117.165 202.357 99.353 207.029 77.307 207.029C55.261 207.029 37.96 202.503 25.404 193.451C12.848 184.399 6.57 173.376 6.57 160.382C6.57 159.068 7.008 157.973 7.884 157.097C8.906 156.075 10.074 155.564 11.388 155.564H52.998C56.064 155.564 59.422 157.024 63.072 159.944C66.868 162.864 72.051 164.324 78.621 164.324C89.571 164.324 95.046 162.28 95.046 158.192C95.046 155.564 93.075 153.593 89.133 152.279C85.191 150.819 77.745 149.359 66.795 147.899C29.127 142.935 10.293 126.875 10.293 99.7187ZM313.105 197.612C313.543 198.488 313.762 199.437 313.762 200.459C313.762 201.481 313.251 202.503 312.229 203.525C311.353 204.401 310.258 204.839 308.944 204.839H264.049C259.523 204.839 256.384 202.868 254.632 198.926L235.798 157.097H226.819V198.926C226.819 200.532 226.235 201.919 225.067 203.087C223.899 204.255 222.512 204.839 220.906 204.839H177.982C176.376 204.839 174.989 204.255 173.821 203.087C172.653 201.919 172.069 200.532 172.069 198.926V57.4517C172.069 55.8457 172.653 54.4587 173.821 53.2907C174.989 52.1227 176.376 51.5387 177.982 51.5387H242.806C263.83 51.5387 280.255 56.2837 292.081 65.7737C303.907 75.1177 309.82 88.6227 309.82 106.289C309.82 123.809 301.936 137.606 286.168 147.68L313.105 197.612ZM226.819 92.2727V115.487H242.806C246.018 115.487 248.5 114.465 250.252 112.421C252.004 110.231 252.88 107.53 252.88 104.318C252.88 101.106 252.004 98.3317 250.252 95.9957C248.646 93.5137 246.164 92.2727 242.806 92.2727H226.819ZM385.197 204.839H340.521C338.915 204.839 337.528 204.255 336.36 203.087C335.192 201.919 334.608 200.532 334.608 198.926V57.4517C334.608 55.8457 335.192 54.4587 336.36 53.2907C337.528 52.1227 338.915 51.5387 340.521 51.5387H385.197C386.803 51.5387 388.19 52.1227 389.358 53.2907C390.526 54.4587 391.11 55.8457 391.11 57.4517V198.926C391.11 200.532 390.526 201.919 389.358 203.087C388.19 204.255 386.803 204.839 385.197 204.839ZM498.134 112.421H558.359C559.965 112.421 561.352 113.005 562.52 114.173C563.688 115.341 564.272 116.728 564.272 118.334V146.804C564.272 166.076 557.41 180.968 543.686 191.48C529.962 201.846 511.639 207.029 488.717 207.029C465.941 207.029 447.983 201.992 434.843 191.918C421.703 181.698 415.133 166.441 415.133 146.147V109.355C415.133 89.9367 421.849 75.1177 435.281 64.8977C448.713 54.5317 466.598 49.3487 488.936 49.3487C511.42 49.3487 529.597 54.0937 543.467 63.5837C557.337 72.9277 564.272 84.4617 564.272 98.1857C564.272 99.4997 563.761 100.668 562.739 101.69C561.863 102.566 560.768 103.004 559.454 103.004H511.055C508.135 103.004 506.018 102.201 504.704 100.595C501.784 96.7987 499.594 94.6087 498.134 94.0247C494.776 92.7107 491.71 92.0537 488.936 92.0537C477.694 92.0537 472.073 97.5287 472.073 108.479V145.709C472.073 158.119 478.059 164.324 490.031 164.324C502.295 164.324 508.427 159.068 508.427 148.556H498.134C496.528 148.556 495.141 147.972 493.973 146.804C492.805 145.636 492.221 144.249 492.221 142.643V118.334C492.221 116.728 492.805 115.341 493.973 114.173C495.141 113.005 496.528 112.421 498.134 112.421ZM636.429 51.5387H683.952C689.208 51.5387 692.493 53.9477 693.807 58.7657L742.644 198.488C742.79 198.926 742.863 199.656 742.863 200.678C742.863 201.554 742.352 202.503 741.33 203.525C740.454 204.401 739.359 204.839 738.045 204.839H697.53C693.15 204.839 690.303 203.014 688.989 199.364L683.733 184.91H636.648L631.392 199.364C630.078 203.014 627.231 204.839 622.851 204.839H582.336C581.022 204.839 579.854 204.401 578.832 203.525C577.956 202.503 577.518 201.554 577.518 200.678C577.518 199.656 577.591 198.926 577.737 198.488L626.574 58.7657C627.888 53.9477 631.173 51.5387 636.429 51.5387ZM647.817 142.205H672.564L660.081 101.471L647.817 142.205ZM852.836 51.5387H892.475C894.081 51.5387 895.468 52.1227 896.636 53.2907C897.804 54.4587 898.388 55.8457 898.388 57.4517V198.926C898.388 200.532 897.804 201.919 896.636 203.087C895.468 204.255 894.081 204.839 892.475 204.839H857.873C854.077 204.839 851.084 203.16 848.894 199.802L811.883 143.957V198.926C811.883 200.532 811.299 201.919 810.131 203.087C808.963 204.255 807.576 204.839 805.97 204.839H766.331C764.725 204.839 763.338 204.255 762.17 203.087C761.002 201.919 760.418 200.532 760.418 198.926V57.4517C760.418 55.8457 761.002 54.4587 762.17 53.2907C763.338 52.1227 764.725 51.5387 766.331 51.5387H800.933C805.021 51.5387 808.014 53.2177 809.912 56.5757L846.923 117.239V57.4517C846.923 55.8457 847.507 54.4587 848.675 53.2907C849.843 52.1227 851.23 51.5387 852.836 51.5387ZM979.366 162.134H1046.82C1048.42 162.134 1049.81 162.718 1050.98 163.886C1052.15 165.054 1052.73 166.441 1052.73 168.047V198.926C1052.73 200.532 1052.15 201.919 1050.98 203.087C1049.81 204.255 1048.42 204.839 1046.82 204.839H932.719C931.113 204.839 929.726 204.255 928.558 203.087C927.39 201.919 926.806 200.532 926.806 198.926V57.4517C926.806 55.8457 927.39 54.4587 928.558 53.2907C929.726 52.1227 931.113 51.5387 932.719 51.5387H1045.07C1046.67 51.5387 1048.06 52.1227 1049.23 53.2907C1050.4 54.4587 1050.98 55.8457 1050.98 57.4517V88.3307C1050.98 89.9367 1050.4 91.3237 1049.23 92.4917C1048.06 93.6597 1046.67 94.2437 1045.07 94.2437H979.366V108.041H1040.25C1041.85 108.041 1043.24 108.625 1044.41 109.793C1045.58 110.961 1046.16 112.348 1046.16 113.954V142.424C1046.16 144.03 1045.58 145.417 1044.41 146.585C1043.24 147.753 1041.85 148.337 1040.25 148.337H979.366V162.134ZM1075.14 99.7187C1075.14 84.8267 1081.27 72.7087 1093.53 63.3647C1105.94 54.0207 1122.15 49.3487 1142.15 49.3487C1162.3 49.3487 1178.72 54.2397 1191.43 64.0217C1204.27 73.8037 1210.7 84.0237 1210.7 94.6817C1210.7 95.9957 1210.19 97.1637 1209.17 98.1857C1208.29 99.0617 1207.27 99.4997 1206.1 99.4997H1162.3C1158.94 99.4997 1155.88 98.2587 1153.1 95.7767C1150.33 93.2947 1146.6 92.0537 1141.93 92.0537C1134.92 92.0537 1131.42 94.0977 1131.42 98.1857C1131.42 100.376 1133.1 102.201 1136.46 103.661C1139.96 105.121 1146.39 106.435 1155.73 107.603C1177.48 110.377 1192.96 115.487 1202.16 122.933C1211.5 130.233 1216.17 141.402 1216.17 156.44C1216.17 171.332 1209.31 183.523 1195.59 193.013C1182.01 202.357 1164.2 207.029 1142.15 207.029C1120.11 207.029 1102.8 202.503 1090.25 193.451C1077.69 184.399 1071.41 173.376 1071.41 160.382C1071.41 159.068 1071.85 157.973 1072.73 157.097C1073.75 156.075 1074.92 155.564 1076.23 155.564H1117.84C1120.91 155.564 1124.27 157.024 1127.92 159.944C1131.71 162.864 1136.9 164.324 1143.47 164.324C1154.42 164.324 1159.89 162.28 1159.89 158.192C1159.89 155.564 1157.92 153.593 1153.98 152.279C1150.04 150.819 1142.59 149.359 1131.64 147.899C1093.97 142.935 1075.14 126.875 1075.14 99.7187ZM1333.05 51.5387H1375.98C1377.58 51.5387 1378.97 52.1227 1380.14 53.2907C1381.31 54.4587 1381.89 55.8457 1381.89 57.4517V198.926C1381.89 200.532 1381.31 201.919 1380.14 203.087C1378.97 204.255 1377.58 204.839 1375.98 204.839H1333.05C1331.45 204.839 1330.06 204.255 1328.89 203.087C1327.73 201.919 1327.14 200.532 1327.14 198.926V151.622H1291.66V198.926C1291.66 200.532 1291.08 201.919 1289.91 203.087C1288.74 204.255 1287.36 204.839 1285.75 204.839H1242.83C1241.22 204.839 1239.83 204.328 1238.67 203.306C1237.5 202.138 1236.91 200.678 1236.91 198.926V57.4517C1236.91 55.8457 1237.5 54.4587 1238.67 53.2907C1239.83 52.1227 1241.22 51.5387 1242.83 51.5387H1285.75C1287.36 51.5387 1288.74 52.1227 1289.91 53.2907C1291.08 54.4587 1291.66 55.8457 1291.66 57.4517V103.442H1327.14V57.4517C1327.14 55.8457 1327.73 54.4587 1328.89 53.2907C1330.06 52.1227 1331.45 51.5387 1333.05 51.5387ZM1415.18 154.907H1453.28C1454.89 154.907 1456.28 155.491 1457.45 156.659C1458.61 157.827 1459.2 159.214 1459.2 160.82V198.926C1459.2 200.532 1458.61 201.919 1457.45 203.087C1456.28 204.255 1454.89 204.839 1453.28 204.839H1415.18C1413.57 204.839 1412.19 204.255 1411.02 203.087C1409.85 201.919 1409.27 200.532 1409.27 198.926V160.82C1409.27 159.214 1409.85 157.827 1411.02 156.659C1412.19 155.491 1413.57 154.907 1415.18 154.907ZM1492.41 51.5387H1557.67C1578.7 51.5387 1595.12 56.0647 1606.95 65.1167C1618.77 74.1687 1624.69 87.5277 1624.69 105.194C1624.69 122.86 1618.77 135.927 1606.95 144.395C1595.27 152.863 1578.84 157.097 1557.67 157.097H1543.44V198.926C1543.44 200.532 1542.85 201.919 1541.68 203.087C1540.52 204.255 1539.13 204.839 1537.52 204.839H1492.41C1490.8 204.839 1489.42 204.255 1488.25 203.087C1487.08 201.919 1486.5 200.532 1486.5 198.926V57.4517C1486.5 55.8457 1487.08 54.4587 1488.25 53.2907C1489.42 52.1227 1490.8 51.5387 1492.41 51.5387ZM1542.34 92.2727V116.582H1557.67C1560.3 116.582 1562.64 115.633 1564.68 113.735C1566.72 111.691 1567.75 108.844 1567.75 105.194C1567.75 101.544 1566.94 98.4777 1565.34 95.9957C1563.73 93.5137 1561.18 92.2727 1557.67 92.2727H1542.34Z"/>
</mask>
<path d="M10.293 99.7187C10.293 84.8267 16.425 72.7087 28.689 63.3647C41.099 54.0207 57.305 49.3487 77.307 49.3487C97.455 49.3487 113.88 54.2397 126.582 64.0217C139.43 73.8037 145.854 84.0237 145.854 94.6817C145.854 95.9957 145.343 97.1637 144.321 98.1857C143.445 99.0617 142.423 99.4997 141.255 99.4997H97.455C94.097 99.4997 91.031 98.2587 88.257 95.7767C85.483 93.2947 81.76 92.0537 77.088 92.0537C70.08 92.0537 66.576 94.0977 66.576 98.1857C66.576 100.376 68.255 102.201 71.613 103.661C75.117 105.121 81.541 106.435 90.885 107.603C112.639 110.377 128.115 115.487 137.313 122.933C146.657 130.233 151.329 141.402 151.329 156.44C151.329 171.332 144.467 183.523 130.743 193.013C117.165 202.357 99.353 207.029 77.307 207.029C55.261 207.029 37.96 202.503 25.404 193.451C12.848 184.399 6.57 173.376 6.57 160.382C6.57 159.068 7.008 157.973 7.884 157.097C8.906 156.075 10.074 155.564 11.388 155.564H52.998C56.064 155.564 59.422 157.024 63.072 159.944C66.868 162.864 72.051 164.324 78.621 164.324C89.571 164.324 95.046 162.28 95.046 158.192C95.046 155.564 93.075 153.593 89.133 152.279C85.191 150.819 77.745 149.359 66.795 147.899C29.127 142.935 10.293 126.875 10.293 99.7187ZM313.105 197.612C313.543 198.488 313.762 199.437 313.762 200.459C313.762 201.481 313.251 202.503 312.229 203.525C311.353 204.401 310.258 204.839 308.944 204.839H264.049C259.523 204.839 256.384 202.868 254.632 198.926L235.798 157.097H226.819V198.926C226.819 200.532 226.235 201.919 225.067 203.087C223.899 204.255 222.512 204.839 220.906 204.839H177.982C176.376 204.839 174.989 204.255 173.821 203.087C172.653 201.919 172.069 200.532 172.069 198.926V57.4517C172.069 55.8457 172.653 54.4587 173.821 53.2907C174.989 52.1227 176.376 51.5387 177.982 51.5387H242.806C263.83 51.5387 280.255 56.2837 292.081 65.7737C303.907 75.1177 309.82 88.6227 309.82 106.289C309.82 123.809 301.936 137.606 286.168 147.68L313.105 197.612ZM226.819 92.2727V115.487H242.806C246.018 115.487 248.5 114.465 250.252 112.421C252.004 110.231 252.88 107.53 252.88 104.318C252.88 101.106 252.004 98.3317 250.252 95.9957C248.646 93.5137 246.164 92.2727 242.806 92.2727H226.819ZM385.197 204.839H340.521C338.915 204.839 337.528 204.255 336.36 203.087C335.192 201.919 334.608 200.532 334.608 198.926V57.4517C334.608 55.8457 335.192 54.4587 336.36 53.2907C337.528 52.1227 338.915 51.5387 340.521 51.5387H385.197C386.803 51.5387 388.19 52.1227 389.358 53.2907C390.526 54.4587 391.11 55.8457 391.11 57.4517V198.926C391.11 200.532 390.526 201.919 389.358 203.087C388.19 204.255 386.803 204.839 385.197 204.839ZM498.134 112.421H558.359C559.965 112.421 561.352 113.005 562.52 114.173C563.688 115.341 564.272 116.728 564.272 118.334V146.804C564.272 166.076 557.41 180.968 543.686 191.48C529.962 201.846 511.639 207.029 488.717 207.029C465.941 207.029 447.983 201.992 434.843 191.918C421.703 181.698 415.133 166.441 415.133 146.147V109.355C415.133 89.9367 421.849 75.1177 435.281 64.8977C448.713 54.5317 466.598 49.3487 488.936 49.3487C511.42 49.3487 529.597 54.0937 543.467 63.5837C557.337 72.9277 564.272 84.4617 564.272 98.1857C564.272 99.4997 563.761 100.668 562.739 101.69C561.863 102.566 560.768 103.004 559.454 103.004H511.055C508.135 103.004 506.018 102.201 504.704 100.595C501.784 96.7987 499.594 94.6087 498.134 94.0247C494.776 92.7107 491.71 92.0537 488.936 92.0537C477.694 92.0537 472.073 97.5287 472.073 108.479V145.709C472.073 158.119 478.059 164.324 490.031 164.324C502.295 164.324 508.427 159.068 508.427 148.556H498.134C496.528 148.556 495.141 147.972 493.973 146.804C492.805 145.636 492.221 144.249 492.221 142.643V118.334C492.221 116.728 492.805 115.341 493.973 114.173C495.141 113.005 496.528 112.421 498.134 112.421ZM636.429 51.5387H683.952C689.208 51.5387 692.493 53.9477 693.807 58.7657L742.644 198.488C742.79 198.926 742.863 199.656 742.863 200.678C742.863 201.554 742.352 202.503 741.33 203.525C740.454 204.401 739.359 204.839 738.045 204.839H697.53C693.15 204.839 690.303 203.014 688.989 199.364L683.733 184.91H636.648L631.392 199.364C630.078 203.014 627.231 204.839 622.851 204.839H582.336C581.022 204.839 579.854 204.401 578.832 203.525C577.956 202.503 577.518 201.554 577.518 200.678C577.518 199.656 577.591 198.926 577.737 198.488L626.574 58.7657C627.888 53.9477 631.173 51.5387 636.429 51.5387ZM647.817 142.205H672.564L660.081 101.471L647.817 142.205ZM852.836 51.5387H892.475C894.081 51.5387 895.468 52.1227 896.636 53.2907C897.804 54.4587 898.388 55.8457 898.388 57.4517V198.926C898.388 200.532 897.804 201.919 896.636 203.087C895.468 204.255 894.081 204.839 892.475 204.839H857.873C854.077 204.839 851.084 203.16 848.894 199.802L811.883 143.957V198.926C811.883 200.532 811.299 201.919 810.131 203.087C808.963 204.255 807.576 204.839 805.97 204.839H766.331C764.725 204.839 763.338 204.255 762.17 203.087C761.002 201.919 760.418 200.532 760.418 198.926V57.4517C760.418 55.8457 761.002 54.4587 762.17 53.2907C763.338 52.1227 764.725 51.5387 766.331 51.5387H800.933C805.021 51.5387 808.014 53.2177 809.912 56.5757L846.923 117.239V57.4517C846.923 55.8457 847.507 54.4587 848.675 53.2907C849.843 52.1227 851.23 51.5387 852.836 51.5387ZM979.366 162.134H1046.82C1048.42 162.134 1049.81 162.718 1050.98 163.886C1052.15 165.054 1052.73 166.441 1052.73 168.047V198.926C1052.73 200.532 1052.15 201.919 1050.98 203.087C1049.81 204.255 1048.42 204.839 1046.82 204.839H932.719C931.113 204.839 929.726 204.255 928.558 203.087C927.39 201.919 926.806 200.532 926.806 198.926V57.4517C926.806 55.8457 927.39 54.4587 928.558 53.2907C929.726 52.1227 931.113 51.5387 932.719 51.5387H1045.07C1046.67 51.5387 1048.06 52.1227 1049.23 53.2907C1050.4 54.4587 1050.98 55.8457 1050.98 57.4517V88.3307C1050.98 89.9367 1050.4 91.3237 1049.23 92.4917C1048.06 93.6597 1046.67 94.2437 1045.07 94.2437H979.366V108.041H1040.25C1041.85 108.041 1043.24 108.625 1044.41 109.793C1045.58 110.961 1046.16 112.348 1046.16 113.954V142.424C1046.16 144.03 1045.58 145.417 1044.41 146.585C1043.24 147.753 1041.85 148.337 1040.25 148.337H979.366V162.134ZM1075.14 99.7187C1075.14 84.8267 1081.27 72.7087 1093.53 63.3647C1105.94 54.0207 1122.15 49.3487 1142.15 49.3487C1162.3 49.3487 1178.72 54.2397 1191.43 64.0217C1204.27 73.8037 1210.7 84.0237 1210.7 94.6817C1210.7 95.9957 1210.19 97.1637 1209.17 98.1857C1208.29 99.0617 1207.27 99.4997 1206.1 99.4997H1162.3C1158.94 99.4997 1155.88 98.2587 1153.1 95.7767C1150.33 93.2947 1146.6 92.0537 1141.93 92.0537C1134.92 92.0537 1131.42 94.0977 1131.42 98.1857C1131.42 100.376 1133.1 102.201 1136.46 103.661C1139.96 105.121 1146.39 106.435 1155.73 107.603C1177.48 110.377 1192.96 115.487 1202.16 122.933C1211.5 130.233 1216.17 141.402 1216.17 156.44C1216.17 171.332 1209.31 183.523 1195.59 193.013C1182.01 202.357 1164.2 207.029 1142.15 207.029C1120.11 207.029 1102.8 202.503 1090.25 193.451C1077.69 184.399 1071.41 173.376 1071.41 160.382C1071.41 159.068 1071.85 157.973 1072.73 157.097C1073.75 156.075 1074.92 155.564 1076.23 155.564H1117.84C1120.91 155.564 1124.27 157.024 1127.92 159.944C1131.71 162.864 1136.9 164.324 1143.47 164.324C1154.42 164.324 1159.89 162.28 1159.89 158.192C1159.89 155.564 1157.92 153.593 1153.98 152.279C1150.04 150.819 1142.59 149.359 1131.64 147.899C1093.97 142.935 1075.14 126.875 1075.14 99.7187ZM1333.05 51.5387H1375.98C1377.58 51.5387 1378.97 52.1227 1380.14 53.2907C1381.31 54.4587 1381.89 55.8457 1381.89 57.4517V198.926C1381.89 200.532 1381.31 201.919 1380.14 203.087C1378.97 204.255 1377.58 204.839 1375.98 204.839H1333.05C1331.45 204.839 1330.06 204.255 1328.89 203.087C1327.73 201.919 1327.14 200.532 1327.14 198.926V151.622H1291.66V198.926C1291.66 200.532 1291.08 201.919 1289.91 203.087C1288.74 204.255 1287.36 204.839 1285.75 204.839H1242.83C1241.22 204.839 1239.83 204.328 1238.67 203.306C1237.5 202.138 1236.91 200.678 1236.91 198.926V57.4517C1236.91 55.8457 1237.5 54.4587 1238.67 53.2907C1239.83 52.1227 1241.22 51.5387 1242.83 51.5387H1285.75C1287.36 51.5387 1288.74 52.1227 1289.91 53.2907C1291.08 54.4587 1291.66 55.8457 1291.66 57.4517V103.442H1327.14V57.4517C1327.14 55.8457 1327.73 54.4587 1328.89 53.2907C1330.06 52.1227 1331.45 51.5387 1333.05 51.5387ZM1415.18 154.907H1453.28C1454.89 154.907 1456.28 155.491 1457.45 156.659C1458.61 157.827 1459.2 159.214 1459.2 160.82V198.926C1459.2 200.532 1458.61 201.919 1457.45 203.087C1456.28 204.255 1454.89 204.839 1453.28 204.839H1415.18C1413.57 204.839 1412.19 204.255 1411.02 203.087C1409.85 201.919 1409.27 200.532 1409.27 198.926V160.82C1409.27 159.214 1409.85 157.827 1411.02 156.659C1412.19 155.491 1413.57 154.907 1415.18 154.907ZM1492.41 51.5387H1557.67C1578.7 51.5387 1595.12 56.0647 1606.95 65.1167C1618.77 74.1687 1624.69 87.5277 1624.69 105.194C1624.69 122.86 1618.77 135.927 1606.95 144.395C1595.27 152.863 1578.84 157.097 1557.67 157.097H1543.44V198.926C1543.44 200.532 1542.85 201.919 1541.68 203.087C1540.52 204.255 1539.13 204.839 1537.52 204.839H1492.41C1490.8 204.839 1489.42 204.255 1488.25 203.087C1487.08 201.919 1486.5 200.532 1486.5 198.926V57.4517C1486.5 55.8457 1487.08 54.4587 1488.25 53.2907C1489.42 52.1227 1490.8 51.5387 1492.41 51.5387ZM1542.34 92.2727V116.582H1557.67C1560.3 116.582 1562.64 115.633 1564.68 113.735C1566.72 111.691 1567.75 108.844 1567.75 105.194C1567.75 101.544 1566.94 98.4777 1565.34 95.9957C1563.73 93.5137 1561.18 92.2727 1557.67 92.2727H1542.34Z" fill="url(#paint0_linear_144_2)"/>
<path d="M28.689 63.3647L27.486 61.767L27.4769 61.7739L28.689 63.3647ZM126.582 64.0217L125.362 65.6063L125.37 65.613L126.582 64.0217ZM144.321 98.1857L145.735 99.6L145.735 99.6L144.321 98.1857ZM88.257 95.7767L86.9234 97.2672L86.9234 97.2672L88.257 95.7767ZM71.613 103.661L70.8156 105.495L70.8296 105.501L70.8438 105.507L71.613 103.661ZM90.885 107.603L91.138 105.619L91.1331 105.618L90.885 107.603ZM137.313 122.933L136.055 124.487L136.068 124.498L136.082 124.509L137.313 122.933ZM130.743 193.013L131.877 194.66L131.881 194.658L130.743 193.013ZM25.404 193.451L24.2344 195.073L24.2344 195.073L25.404 193.451ZM7.884 157.097L9.29821 158.511L9.29821 158.511L7.884 157.097ZM63.072 159.944L61.8226 161.505L61.8375 161.517L61.8526 161.529L63.072 159.944ZM89.133 152.279L88.4384 154.154L88.4693 154.166L88.5005 154.176L89.133 152.279ZM66.795 147.899L67.0593 145.916L67.0563 145.916L66.795 147.899ZM12.293 99.7187C12.293 85.4763 18.1131 73.937 29.9011 64.9556L27.4769 61.7739C14.7369 71.4805 8.293 84.1772 8.293 99.7187H12.293ZM29.892 64.9625C41.8669 55.9461 57.6135 51.3487 77.307 51.3487V47.3487C56.9965 47.3487 40.3311 52.0954 27.486 61.767L29.892 64.9625ZM77.307 51.3487C97.1287 51.3487 113.091 56.1564 125.362 65.6063L127.802 62.4372C114.669 52.3231 97.7813 47.3487 77.307 47.3487V51.3487ZM125.37 65.613C137.985 75.2174 143.854 84.9179 143.854 94.6817H147.854C147.854 83.1295 140.875 72.3901 127.794 62.4305L125.37 65.613ZM143.854 94.6817C143.854 95.4098 143.595 96.0834 142.907 96.7715L145.735 99.6C147.091 98.2441 147.854 96.5817 147.854 94.6817H143.854ZM142.907 96.7715C142.381 97.2977 141.858 97.4997 141.255 97.4997V101.5C142.988 101.5 144.509 100.826 145.735 99.6L142.907 96.7715ZM141.255 97.4997H97.455V101.5H141.255V97.4997ZM97.455 97.4997C94.6437 97.4997 92.0408 96.4785 89.5906 94.2863L86.9234 97.2672C90.0212 100.039 93.5503 101.5 97.455 101.5V97.4997ZM89.5906 94.2863C86.3632 91.3986 82.1218 90.0537 77.088 90.0537V94.0537C81.3982 94.0537 84.6028 95.1909 86.9234 97.2672L89.5906 94.2863ZM77.088 90.0537C73.4551 90.0537 70.4029 90.572 68.1963 91.8592C65.824 93.243 64.576 95.4372 64.576 98.1857H68.576C68.576 96.8462 69.0801 95.9744 70.2117 95.3143C71.5091 94.5575 73.713 94.0537 77.088 94.0537V90.0537ZM64.576 98.1857C64.576 101.626 67.2625 103.95 70.8156 105.495L72.4105 101.827C69.2475 100.451 68.576 99.1255 68.576 98.1857H64.576ZM70.8438 105.507C74.6275 107.083 81.3008 108.42 90.6369 109.587L91.1331 105.618C81.7812 104.449 75.6065 103.158 72.3822 101.815L70.8438 105.507ZM90.632 109.587C112.285 112.348 127.301 117.401 136.055 124.487L138.571 121.378C128.929 113.573 112.993 108.406 91.138 105.619L90.632 109.587ZM136.082 124.509C144.814 131.331 149.329 141.836 149.329 156.44H153.329C153.329 140.967 148.5 129.135 138.544 121.357L136.082 124.509ZM149.329 156.44C149.329 170.588 142.865 182.199 129.605 191.368L131.881 194.658C146.069 184.847 153.329 172.076 153.329 156.44H149.329ZM129.609 191.365C116.46 200.414 99.0824 205.029 77.307 205.029V209.029C99.6236 209.029 117.87 204.3 131.877 194.66L129.609 191.365ZM77.307 205.029C55.5089 205.029 38.672 200.55 26.5736 191.828L24.2344 195.073C37.248 204.455 55.0131 209.029 77.307 209.029V205.029ZM26.5736 191.828C14.4259 183.071 8.57 172.605 8.57 160.382H4.57C4.57 174.146 11.2701 185.727 24.2344 195.073L26.5736 191.828ZM8.57 160.382C8.57 159.562 8.8218 158.987 9.29821 158.511L6.46979 155.683C5.1942 156.958 4.57 158.573 4.57 160.382H8.57ZM9.29821 158.511C9.98633 157.823 10.66 157.564 11.388 157.564V153.564C9.48803 153.564 7.82567 154.327 6.46979 155.683L9.29821 158.511ZM11.388 157.564H52.998V153.564H11.388V157.564ZM52.998 157.564C55.4257 157.564 58.3502 158.728 61.8226 161.505L64.3214 158.382C60.4938 155.32 56.7023 153.564 52.998 153.564V157.564ZM61.8526 161.529C66.1078 164.802 71.7716 166.324 78.621 166.324V162.324C72.3304 162.324 67.6282 160.925 64.2914 158.358L61.8526 161.529ZM78.621 166.324C84.1637 166.324 88.56 165.814 91.6393 164.664C93.1919 164.085 94.5389 163.296 95.5113 162.207C96.521 161.076 97.046 159.708 97.046 158.192H93.046C93.046 158.719 92.8867 159.14 92.5276 159.542C92.1313 159.986 91.4251 160.475 90.2402 160.917C87.8445 161.811 84.0283 162.324 78.621 162.324V166.324ZM97.046 158.192C97.046 154.235 93.9688 151.782 89.7655 150.381L88.5005 154.176C92.1813 155.403 93.046 156.892 93.046 158.192H97.046ZM89.8276 150.403C85.649 148.856 77.9935 147.374 67.0593 145.916L66.5307 149.881C77.4965 151.343 84.733 152.782 88.4384 154.154L89.8276 150.403ZM67.0563 145.916C48.4152 143.459 34.7216 138.288 25.7162 130.609C16.7915 122.999 12.293 112.775 12.293 99.7187H8.293C8.293 113.818 13.2115 125.203 23.1208 133.653C32.9494 142.034 47.5068 147.374 66.5337 149.882L67.0563 145.916ZM313.105 197.612L314.894 196.717L314.88 196.69L314.865 196.662L313.105 197.612ZM312.229 203.525L313.643 204.939L313.643 204.939L312.229 203.525ZM254.632 198.926L256.46 198.113L256.456 198.105L254.632 198.926ZM235.798 157.097L237.622 156.276L237.091 155.097H235.798V157.097ZM226.819 157.097V155.097H224.819V157.097H226.819ZM225.067 203.087L223.653 201.673L223.653 201.673L225.067 203.087ZM173.821 203.087L175.235 201.673L175.235 201.673L173.821 203.087ZM173.821 53.2907L175.235 54.705L175.235 54.7049L173.821 53.2907ZM292.081 65.7737L290.829 67.3336L290.835 67.3383L290.841 67.343L292.081 65.7737ZM286.168 147.68L285.091 145.994L283.526 146.994L284.408 148.629L286.168 147.68ZM226.819 92.2727V90.2727H224.819V92.2727H226.819ZM226.819 115.487H224.819V117.487H226.819V115.487ZM250.252 112.421L251.771 113.722L251.793 113.697L251.814 113.67L250.252 112.421ZM250.252 95.9957L248.573 97.0822L248.61 97.1404L248.652 97.1957L250.252 95.9957ZM311.316 198.506C311.609 199.092 311.762 199.733 311.762 200.459H315.762C315.762 199.14 315.477 197.883 314.894 196.717L311.316 198.506ZM311.762 200.459C311.762 200.763 311.619 201.307 310.815 202.111L313.643 204.939C314.883 203.699 315.762 202.198 315.762 200.459H311.762ZM310.815 202.111C310.338 202.587 309.763 202.839 308.944 202.839V206.839C310.753 206.839 312.368 206.215 313.643 204.939L310.815 202.111ZM308.944 202.839H264.049V206.839H308.944V202.839ZM264.049 202.839C262.079 202.839 260.551 202.412 259.364 201.667C258.183 200.926 257.201 199.782 256.46 198.113L252.804 199.738C253.815 202.011 255.278 203.824 257.237 205.054C259.189 206.28 261.493 206.839 264.049 206.839V202.839ZM256.456 198.105L237.622 156.276L233.974 157.918L252.808 199.747L256.456 198.105ZM235.798 155.097H226.819V159.097H235.798V155.097ZM224.819 157.097V198.926H228.819V157.097H224.819ZM224.819 198.926C224.819 199.985 224.458 200.868 223.653 201.673L226.481 204.501C228.012 202.97 228.819 201.079 228.819 198.926H224.819ZM223.653 201.673C222.848 202.477 221.965 202.839 220.906 202.839V206.839C223.059 206.839 224.95 206.032 226.481 204.501L223.653 201.673ZM220.906 202.839H177.982V206.839H220.906V202.839ZM177.982 202.839C176.923 202.839 176.04 202.477 175.235 201.673L172.407 204.501C173.938 206.032 175.829 206.839 177.982 206.839V202.839ZM175.235 201.673C174.43 200.868 174.069 199.985 174.069 198.926H170.069C170.069 201.079 170.876 202.97 172.407 204.501L175.235 201.673ZM174.069 198.926V57.4517H170.069V198.926H174.069ZM174.069 57.4517C174.069 56.3929 174.43 55.5099 175.235 54.705L172.407 51.8765C170.876 53.4076 170.069 55.2986 170.069 57.4517H174.069ZM175.235 54.7049C176.04 53.9001 176.923 53.5387 177.982 53.5387V49.5387C175.829 49.5387 173.938 50.3454 172.407 51.8765L175.235 54.7049ZM177.982 53.5387H242.806V49.5387H177.982V53.5387ZM242.806 53.5387C263.549 53.5387 279.473 58.2209 290.829 67.3336L293.333 64.2139C281.037 54.3465 264.111 49.5387 242.806 49.5387V53.5387ZM290.841 67.343C302.101 76.24 307.82 89.1164 307.82 106.289H311.82C311.82 88.1291 305.713 73.9954 293.321 64.2045L290.841 67.343ZM307.82 106.289C307.82 123.072 300.331 136.258 285.091 145.994L287.245 149.365C303.541 138.954 311.82 124.545 311.82 106.289H307.82ZM284.408 148.629L311.345 198.561L314.865 196.662L287.928 146.73L284.408 148.629ZM224.819 92.2727V115.487H228.819V92.2727H224.819ZM226.819 117.487H242.806V113.487H226.819V117.487ZM242.806 117.487C246.478 117.487 249.565 116.296 251.771 113.722L248.733 111.119C247.435 112.634 245.558 113.487 242.806 113.487V117.487ZM251.814 113.67C253.89 111.075 254.88 107.915 254.88 104.318H250.88C250.88 107.145 250.118 109.387 248.69 111.171L251.814 113.67ZM254.88 104.318C254.88 100.719 253.89 97.5128 251.852 94.7957L248.652 97.1957C250.118 99.1507 250.88 101.493 250.88 104.318H254.88ZM251.931 94.9092C249.901 91.7723 246.734 90.2727 242.806 90.2727V94.2727C245.594 94.2727 247.391 95.2552 248.573 97.0822L251.931 94.9092ZM242.806 90.2727H226.819V94.2727H242.806V90.2727ZM336.36 203.087L337.774 201.673L337.774 201.673L336.36 203.087ZM336.36 53.2907L337.774 54.705L337.774 54.7049L336.36 53.2907ZM389.358 53.2907L390.772 51.8765L390.772 51.8765L389.358 53.2907ZM389.358 203.087L390.772 204.501L390.772 204.501L389.358 203.087ZM385.197 202.839H340.521V206.839H385.197V202.839ZM340.521 202.839C339.462 202.839 338.579 202.477 337.774 201.673L334.946 204.501C336.477 206.032 338.368 206.839 340.521 206.839V202.839ZM337.774 201.673C336.969 200.868 336.608 199.985 336.608 198.926H332.608C332.608 201.079 333.415 202.97 334.946 204.501L337.774 201.673ZM336.608 198.926V57.4517H332.608V198.926H336.608ZM336.608 57.4517C336.608 56.3929 336.969 55.5099 337.774 54.705L334.946 51.8765C333.415 53.4076 332.608 55.2986 332.608 57.4517H336.608ZM337.774 54.7049C338.579 53.9001 339.462 53.5387 340.521 53.5387V49.5387C338.368 49.5387 336.477 50.3454 334.946 51.8765L337.774 54.7049ZM340.521 53.5387H385.197V49.5387H340.521V53.5387ZM385.197 53.5387C386.256 53.5387 387.139 53.9001 387.944 54.705L390.772 51.8765C389.241 50.3454 387.35 49.5387 385.197 49.5387V53.5387ZM387.944 54.7049C388.749 55.5098 389.11 56.3929 389.11 57.4517H393.11C393.11 55.2986 392.303 53.4076 390.772 51.8765L387.944 54.7049ZM389.11 57.4517V198.926H393.11V57.4517H389.11ZM389.11 198.926C389.11 199.985 388.749 200.868 387.944 201.673L390.772 204.501C392.303 202.97 393.11 201.079 393.11 198.926H389.11ZM387.944 201.673C387.139 202.477 386.256 202.839 385.197 202.839V206.839C387.35 206.839 389.241 206.032 390.772 204.501L387.944 201.673ZM562.52 114.173L563.935 112.759L563.935 112.759L562.52 114.173ZM543.686 191.48L544.892 193.076L544.902 193.068L543.686 191.48ZM434.843 191.918L433.615 193.496L433.626 193.505L434.843 191.918ZM435.281 64.8977L436.492 66.4894L436.503 66.4811L435.281 64.8977ZM543.467 63.5837L542.338 65.2344L542.344 65.2384L542.35 65.2424L543.467 63.5837ZM562.739 101.69L564.154 103.104L564.154 103.104L562.739 101.69ZM504.704 100.595L503.119 101.814L503.137 101.838L503.156 101.861L504.704 100.595ZM498.134 94.0247L498.877 92.1678L498.87 92.165L498.863 92.1623L498.134 94.0247ZM508.427 148.556H510.427V146.556H508.427V148.556ZM493.973 146.804L495.388 145.39L495.388 145.39L493.973 146.804ZM498.134 114.421H558.359V110.421H498.134V114.421ZM558.359 114.421C559.418 114.421 560.301 114.782 561.106 115.587L563.935 112.759C562.403 111.227 560.512 110.421 558.359 110.421V114.421ZM561.106 115.587C561.911 116.392 562.272 117.275 562.272 118.334H566.272C566.272 116.181 565.466 114.29 563.935 112.759L561.106 115.587ZM562.272 118.334V146.804H566.272V118.334H562.272ZM562.272 146.804C562.272 165.535 555.639 179.806 542.47 189.892L544.902 193.068C559.182 182.13 566.272 166.616 566.272 146.804H562.272ZM542.481 189.884C529.204 199.912 511.348 205.029 488.717 205.029V209.029C511.93 209.029 530.721 203.779 544.892 193.076L542.481 189.884ZM488.717 205.029C466.219 205.029 448.741 200.052 436.06 190.331L433.626 193.505C447.226 203.931 465.664 209.029 488.717 209.029V205.029ZM436.071 190.339C423.526 180.582 417.133 165.974 417.133 146.147H413.133C413.133 166.908 419.881 182.814 433.615 193.496L436.071 190.339ZM417.133 146.147V109.355H413.133V146.147H417.133ZM417.133 109.355C417.133 90.4546 423.637 76.2709 436.492 66.4894L434.07 63.3061C420.062 73.9646 413.133 89.4189 413.133 109.355H417.133ZM436.503 66.4811C449.488 56.4599 466.9 51.3487 488.936 51.3487V47.3487C466.296 47.3487 447.938 52.6036 434.059 63.3144L436.503 66.4811ZM488.936 51.3487C511.151 51.3487 528.896 56.0373 542.338 65.2344L544.597 61.9331C530.299 52.1502 511.69 47.3487 488.936 47.3487V51.3487ZM542.35 65.2424C555.806 74.3074 562.272 85.2774 562.272 98.1857H566.272C566.272 83.6461 558.869 71.548 544.585 61.925L542.35 65.2424ZM562.272 98.1857C562.272 98.9138 562.013 99.5874 561.325 100.276L564.154 103.104C565.509 101.748 566.272 100.086 566.272 98.1857H562.272ZM561.325 100.276C560.849 100.752 560.274 101.004 559.454 101.004V105.004C561.263 105.004 562.878 104.38 564.154 103.104L561.325 100.276ZM559.454 101.004H511.055V105.004H559.454V101.004ZM511.055 101.004C508.479 101.004 507.05 100.303 506.252 99.3283L503.156 101.861C504.987 104.099 507.791 105.004 511.055 105.004V101.004ZM506.29 99.3753C504.802 97.4414 503.466 95.8707 502.286 94.691C501.149 93.5542 500 92.617 498.877 92.1678L497.392 95.8817C497.729 96.0165 498.404 96.4663 499.458 97.5195C500.468 98.5298 501.687 99.952 503.119 101.814L506.29 99.3753ZM498.863 92.1623C495.339 90.7833 492.022 90.0537 488.936 90.0537V94.0537C491.399 94.0537 494.214 94.6382 497.406 95.8872L498.863 92.1623ZM488.936 90.0537C483.02 90.0537 478.213 91.4941 474.894 94.7273C471.564 97.97 470.073 102.682 470.073 108.479H474.073C474.073 103.326 475.393 99.8249 477.685 97.5927C479.986 95.3509 483.611 94.0537 488.936 94.0537V90.0537ZM470.073 108.479V145.709H474.073V108.479H470.073ZM470.073 145.709C470.073 152.204 471.639 157.447 475.123 161.059C478.621 164.684 483.718 166.324 490.031 166.324V162.324C484.372 162.324 480.491 160.861 478.002 158.281C475.501 155.688 474.073 151.623 474.073 145.709H470.073ZM490.031 166.324C496.403 166.324 501.554 164.965 505.13 161.9C508.764 158.785 510.427 154.207 510.427 148.556H506.427C506.427 153.416 505.024 156.723 502.527 158.863C499.97 161.054 495.924 162.324 490.031 162.324V166.324ZM508.427 146.556H498.134V150.556H508.427V146.556ZM498.134 146.556C497.075 146.556 496.192 146.194 495.388 145.39L492.559 148.218C494.09 149.749 495.981 150.556 498.134 150.556V146.556ZM495.388 145.39C494.583 144.585 494.221 143.702 494.221 142.643H490.221C490.221 144.796 491.028 146.687 492.559 148.218L495.388 145.39ZM494.221 142.643V118.334H490.221V142.643H494.221ZM494.221 118.334C494.221 117.275 494.583 116.392 495.388 115.587L492.559 112.759C491.028 114.29 490.221 116.181 490.221 118.334H494.221ZM495.388 115.587C496.192 114.782 497.075 114.421 498.134 114.421V110.421C495.981 110.421 494.09 111.227 492.559 112.759L495.388 115.587ZM693.807 58.7657L691.878 59.292L691.896 59.3595L691.919 59.4256L693.807 58.7657ZM742.644 198.488L744.542 197.855L744.537 197.842L744.532 197.828L742.644 198.488ZM741.33 203.525L739.916 202.111L739.916 202.111L741.33 203.525ZM688.989 199.364L690.871 198.686L690.869 198.68L688.989 199.364ZM683.733 184.91L685.613 184.226L685.134 182.91H683.733V184.91ZM636.648 184.91V182.91H635.248L634.769 184.226L636.648 184.91ZM631.392 199.364L629.513 198.68L629.511 198.686L631.392 199.364ZM578.832 203.525L577.314 204.826L577.414 204.943L577.531 205.043L578.832 203.525ZM577.737 198.488L575.849 197.828L575.845 197.842L575.84 197.855L577.737 198.488ZM626.574 58.7657L628.462 59.4256L628.486 59.3595L628.504 59.292L626.574 58.7657ZM647.817 142.205L645.902 141.628L645.127 144.205H647.817V142.205ZM672.564 142.205V144.205H675.269L674.477 141.619L672.564 142.205ZM660.081 101.471L661.994 100.885L660.064 94.5896L658.166 100.894L660.081 101.471ZM636.429 53.5387H683.952V49.5387H636.429V53.5387ZM683.952 53.5387C686.279 53.5387 687.964 54.0698 689.175 54.9583C690.377 55.8393 691.312 57.2178 691.878 59.292L695.737 58.2395C694.989 55.4957 693.625 53.2607 691.541 51.7327C689.467 50.2122 686.882 49.5387 683.952 49.5387V53.5387ZM691.919 59.4256L740.756 199.148L744.532 197.828L695.695 58.1058L691.919 59.4256ZM740.747 199.12C740.747 199.12 740.748 199.122 740.749 199.128C740.751 199.133 740.753 199.14 740.755 199.151C740.761 199.172 740.767 199.201 740.774 199.24C740.789 199.318 740.805 199.425 740.819 199.563C740.846 199.842 740.863 200.21 740.863 200.678H744.863C744.863 199.637 744.798 198.624 744.542 197.855L740.747 199.12ZM740.863 200.678C740.863 200.767 740.795 201.232 739.916 202.111L742.745 204.939C743.91 203.773 744.863 202.34 744.863 200.678H740.863ZM739.916 202.111C739.44 202.587 738.865 202.839 738.045 202.839V206.839C739.854 206.839 741.469 206.215 742.745 204.939L739.916 202.111ZM738.045 202.839H697.53V206.839H738.045V202.839ZM697.53 202.839C695.612 202.839 694.208 202.439 693.189 201.786C692.19 201.146 691.402 200.16 690.871 198.686L687.108 200.041C687.891 202.217 689.183 203.969 691.031 205.154C692.859 206.326 695.069 206.839 697.53 206.839V202.839ZM690.869 198.68L685.613 184.226L681.854 185.593L687.11 200.047L690.869 198.68ZM683.733 182.91H636.648V186.91H683.733V182.91ZM634.769 184.226L629.513 198.68L633.272 200.047L638.528 185.593L634.769 184.226ZM629.511 198.686C628.98 200.16 628.191 201.146 627.192 201.786C626.173 202.439 624.77 202.839 622.851 202.839V206.839C625.313 206.839 627.523 206.326 629.351 205.154C631.199 203.969 632.491 202.217 633.274 200.041L629.511 198.686ZM622.851 202.839H582.336V206.839H622.851V202.839ZM582.336 202.839C581.512 202.839 580.803 202.58 580.134 202.006L577.531 205.043C578.906 206.222 580.532 206.839 582.336 206.839V202.839ZM580.351 202.223C579.626 201.377 579.518 200.878 579.518 200.678H575.518C575.518 202.23 576.287 203.628 577.314 204.826L580.351 202.223ZM579.518 200.678C579.518 200.21 579.535 199.842 579.563 199.563C579.577 199.425 579.593 199.318 579.607 199.24C579.615 199.201 579.621 199.172 579.626 199.151C579.629 199.14 579.631 199.133 579.633 199.128C579.634 199.122 579.635 199.12 579.635 199.12L575.84 197.855C575.584 198.624 575.518 199.637 575.518 200.678H579.518ZM579.625 199.148L628.462 59.4256L624.686 58.1058L575.849 197.828L579.625 199.148ZM628.504 59.292C629.07 57.2178 630.005 55.8393 631.206 54.9583C632.418 54.0698 634.103 53.5387 636.429 53.5387V49.5387C633.5 49.5387 630.914 50.2122 628.841 51.7327C626.757 53.2607 625.393 55.4957 624.645 58.2395L628.504 59.292ZM647.817 144.205H672.564V140.205H647.817V144.205ZM674.477 141.619L661.994 100.885L658.169 102.057L670.652 142.791L674.477 141.619ZM658.166 100.894L645.902 141.628L649.732 142.781L661.996 102.047L658.166 100.894ZM896.636 203.087L895.221 201.673L896.636 203.087ZM848.894 199.802L850.569 198.709L850.565 198.703L850.561 198.697L848.894 199.802ZM811.883 143.957L813.55 142.852L809.883 137.319V143.957H811.883ZM810.131 203.087L811.545 204.501L811.545 204.501L810.131 203.087ZM762.17 203.087L763.584 201.673L763.584 201.673L762.17 203.087ZM762.17 53.2907L763.584 54.705L763.584 54.7049L762.17 53.2907ZM809.912 56.5757L808.17 57.5598L808.187 57.5889L808.204 57.6174L809.912 56.5757ZM846.923 117.239L845.215 118.28L848.923 124.357V117.239H846.923ZM848.675 53.2907L850.089 54.705L850.089 54.7049L848.675 53.2907ZM852.836 53.5387H892.475V49.5387H852.836V53.5387ZM892.475 53.5387C893.533 53.5387 894.417 53.9001 895.221 54.705L898.05 51.8765C896.519 50.3454 894.628 49.5387 892.475 49.5387V53.5387ZM895.221 54.705C896.026 55.5099 896.388 56.3929 896.388 57.4517H900.388C900.388 55.2986 899.581 53.4076 898.05 51.8765L895.221 54.705ZM896.388 57.4517V198.926H900.388V57.4517H896.388ZM896.388 198.926C896.388 199.985 896.026 200.868 895.221 201.673L898.05 204.501C899.581 202.97 900.388 201.079 900.388 198.926H896.388ZM895.221 201.673C894.417 202.477 893.533 202.839 892.475 202.839V206.839C894.628 206.839 896.519 206.032 898.05 204.501L895.221 201.673ZM892.475 202.839H857.873V206.839H892.475V202.839ZM857.873 202.839C854.797 202.839 852.414 201.539 850.569 198.709L847.218 200.894C849.753 204.78 853.357 206.839 857.873 206.839V202.839ZM850.561 198.697L813.55 142.852L810.216 145.062L847.227 200.907L850.561 198.697ZM809.883 143.957V198.926H813.883V143.957H809.883ZM809.883 198.926C809.883 199.985 809.521 200.868 808.716 201.673L811.545 204.501C813.076 202.97 813.883 201.079 813.883 198.926H809.883ZM808.716 201.673C807.912 202.477 807.028 202.839 805.97 202.839V206.839C808.123 206.839 810.014 206.032 811.545 204.501L808.716 201.673ZM805.97 202.839H766.331V206.839H805.97V202.839ZM766.331 202.839C765.272 202.839 764.389 202.477 763.584 201.673L760.755 204.501C762.287 206.032 764.177 206.839 766.331 206.839V202.839ZM763.584 201.673C762.779 200.868 762.418 199.985 762.418 198.926H758.418C758.418 201.079 759.224 202.97 760.755 204.501L763.584 201.673ZM762.418 198.926V57.4517H758.418V198.926H762.418ZM762.418 57.4517C762.418 56.3929 762.779 55.5099 763.584 54.705L760.755 51.8765C759.224 53.4076 758.418 55.2986 758.418 57.4517H762.418ZM763.584 54.7049C764.389 53.9001 765.272 53.5387 766.331 53.5387V49.5387C764.177 49.5387 762.287 50.3454 760.755 51.8765L763.584 54.7049ZM766.331 53.5387H800.933V49.5387H766.331V53.5387ZM800.933 53.5387C804.353 53.5387 806.653 54.8745 808.17 57.5598L811.653 55.5916C809.375 51.561 805.689 49.5387 800.933 49.5387V53.5387ZM808.204 57.6174L845.215 118.28L848.63 116.197L811.619 55.5341L808.204 57.6174ZM848.923 117.239V57.4517H844.923V117.239H848.923ZM848.923 57.4517C848.923 56.3929 849.284 55.5099 850.089 54.705L847.26 51.8765C845.729 53.4076 844.923 55.2986 844.923 57.4517H848.923ZM850.089 54.7049C850.894 53.9001 851.777 53.5387 852.836 53.5387V49.5387C850.682 49.5387 848.792 50.3454 847.26 51.8765L850.089 54.7049ZM979.366 162.134H977.366V164.134H979.366V162.134ZM1050.98 203.087L1049.57 201.673L1050.98 203.087ZM928.558 203.087L929.973 201.673L929.973 201.673L928.558 203.087ZM928.558 53.2907L929.973 54.705L929.973 54.7049L928.558 53.2907ZM1049.23 53.2907L1047.81 54.7049L1047.81 54.705L1049.23 53.2907ZM1049.23 92.4917L1047.81 91.0775L1047.81 91.0775L1049.23 92.4917ZM979.366 94.2437V92.2437H977.366V94.2437H979.366ZM979.366 108.041H977.366V110.041H979.366V108.041ZM1044.41 109.793L1045.82 108.379L1045.82 108.379L1044.41 109.793ZM1044.41 146.585L1045.82 147.999L1045.82 147.999L1044.41 146.585ZM979.366 148.337V146.337H977.366V148.337H979.366ZM979.366 164.134H1046.82V160.134H979.366V164.134ZM1046.82 164.134C1047.88 164.134 1048.76 164.495 1049.57 165.3L1052.39 162.472C1050.86 160.94 1048.97 160.134 1046.82 160.134V164.134ZM1049.57 165.3C1050.37 166.105 1050.73 166.988 1050.73 168.047H1054.73C1054.73 165.894 1053.92 164.003 1052.39 162.472L1049.57 165.3ZM1050.73 168.047V198.926H1054.73V168.047H1050.73ZM1050.73 198.926C1050.73 199.985 1050.37 200.868 1049.57 201.673L1052.39 204.501C1053.92 202.97 1054.73 201.079 1054.73 198.926H1050.73ZM1049.57 201.673C1048.76 202.477 1047.88 202.839 1046.82 202.839V206.839C1048.97 206.839 1050.86 206.032 1052.39 204.501L1049.57 201.673ZM1046.82 202.839H932.719V206.839H1046.82V202.839ZM932.719 202.839C931.66 202.839 930.777 202.477 929.973 201.673L927.144 204.501C928.675 206.032 930.566 206.839 932.719 206.839V202.839ZM929.973 201.673C929.168 200.868 928.806 199.985 928.806 198.926H924.806C924.806 201.079 925.613 202.97 927.144 204.501L929.973 201.673ZM928.806 198.926V57.4517H924.806V198.926H928.806ZM928.806 57.4517C928.806 56.3929 929.168 55.5099 929.973 54.705L927.144 51.8765C925.613 53.4076 924.806 55.2986 924.806 57.4517H928.806ZM929.973 54.7049C930.777 53.9001 931.66 53.5387 932.719 53.5387V49.5387C930.566 49.5387 928.675 50.3454 927.144 51.8765L929.973 54.7049ZM932.719 53.5387H1045.07V49.5387H932.719V53.5387ZM1045.07 53.5387C1046.13 53.5387 1047.01 53.9001 1047.81 54.7049L1050.64 51.8765C1049.11 50.3454 1047.22 49.5387 1045.07 49.5387V53.5387ZM1047.81 54.705C1048.62 55.5099 1048.98 56.3929 1048.98 57.4517H1052.98C1052.98 55.2986 1052.17 53.4076 1050.64 51.8765L1047.81 54.705ZM1048.98 57.4517V88.3307H1052.98V57.4517H1048.98ZM1048.98 88.3307C1048.98 89.3896 1048.62 90.2726 1047.81 91.0775L1050.64 93.906C1052.17 92.3749 1052.98 90.4839 1052.98 88.3307H1048.98ZM1047.81 91.0775C1047.01 91.8824 1046.13 92.2437 1045.07 92.2437V96.2437C1047.22 96.2437 1049.11 95.4371 1050.64 93.906L1047.81 91.0775ZM1045.07 92.2437H979.366V96.2437H1045.07V92.2437ZM977.366 94.2437V108.041H981.366V94.2437H977.366ZM979.366 110.041H1040.25V106.041H979.366V110.041ZM1040.25 110.041C1041.31 110.041 1042.19 110.402 1043 111.207L1045.82 108.379C1044.29 106.847 1042.4 106.041 1040.25 106.041V110.041ZM1043 111.207C1043.8 112.012 1044.16 112.895 1044.16 113.954H1048.16C1048.16 111.801 1047.35 109.91 1045.82 108.379L1043 111.207ZM1044.16 113.954V142.424H1048.16V113.954H1044.16ZM1044.16 142.424C1044.16 143.483 1043.8 144.366 1043 145.171L1045.82 147.999C1047.35 146.468 1048.16 144.577 1048.16 142.424H1044.16ZM1043 145.171C1042.19 145.975 1041.31 146.337 1040.25 146.337V150.337C1042.4 150.337 1044.29 149.53 1045.82 147.999L1043 145.171ZM1040.25 146.337H979.366V150.337H1040.25V146.337ZM977.366 148.337V162.134H981.366V148.337H977.366ZM1093.53 63.3647L1092.33 61.767L1092.32 61.7739L1093.53 63.3647ZM1191.43 64.0217L1190.21 65.6063L1190.22 65.613L1191.43 64.0217ZM1209.17 98.1857L1210.58 99.6L1210.58 99.6L1209.17 98.1857ZM1153.1 95.7767L1151.77 97.2672L1151.77 97.2672L1153.1 95.7767ZM1136.46 103.661L1135.66 105.495L1135.67 105.501L1135.69 105.507L1136.46 103.661ZM1155.73 107.603L1155.98 105.619L1155.98 105.618L1155.73 107.603ZM1202.16 122.933L1200.9 124.487L1200.91 124.498L1200.93 124.509L1202.16 122.933ZM1195.59 193.013L1196.72 194.66L1196.73 194.658L1195.59 193.013ZM1090.25 193.451L1089.08 195.073L1089.08 195.073L1090.25 193.451ZM1072.73 157.097L1074.14 158.511L1074.14 158.511L1072.73 157.097ZM1127.92 159.944L1126.67 161.505L1126.68 161.517L1126.7 161.529L1127.92 159.944ZM1153.98 152.279L1153.28 154.154L1153.31 154.166L1153.35 154.176L1153.98 152.279ZM1131.64 147.899L1131.9 145.916L1131.9 145.916L1131.64 147.899ZM1077.14 99.7187C1077.14 85.4763 1082.96 73.937 1094.75 64.9556L1092.32 61.7739C1079.58 71.4805 1073.14 84.1772 1073.14 99.7187H1077.14ZM1094.74 64.9625C1106.71 55.9461 1122.46 51.3487 1142.15 51.3487V47.3487C1121.84 47.3487 1105.18 52.0954 1092.33 61.767L1094.74 64.9625ZM1142.15 51.3487C1161.97 51.3487 1177.94 56.1564 1190.21 65.6063L1192.65 62.4372C1179.51 52.3231 1162.63 47.3487 1142.15 47.3487V51.3487ZM1190.22 65.613C1202.83 75.2174 1208.7 84.9179 1208.7 94.6817H1212.7C1212.7 83.1295 1205.72 72.3901 1192.64 62.4305L1190.22 65.613ZM1208.7 94.6817C1208.7 95.4098 1208.44 96.0834 1207.75 96.7715L1210.58 99.6C1211.94 98.2441 1212.7 96.5817 1212.7 94.6817H1208.7ZM1207.75 96.7715C1207.23 97.2977 1206.7 97.4997 1206.1 97.4997V101.5C1207.83 101.5 1209.35 100.826 1210.58 99.6L1207.75 96.7715ZM1206.1 97.4997H1162.3V101.5H1206.1V97.4997ZM1162.3 97.4997C1159.49 97.4997 1156.89 96.4785 1154.44 94.2863L1151.77 97.2672C1154.87 100.039 1158.39 101.5 1162.3 101.5V97.4997ZM1154.44 94.2863C1151.21 91.3986 1146.97 90.0537 1141.93 90.0537V94.0537C1146.24 94.0537 1149.45 95.1909 1151.77 97.2672L1154.44 94.2863ZM1141.93 90.0537C1138.3 90.0537 1135.25 90.572 1133.04 91.8592C1130.67 93.243 1129.42 95.4372 1129.42 98.1857H1133.42C1133.42 96.8462 1133.92 95.9744 1135.06 95.3143C1136.35 94.5575 1138.56 94.0537 1141.93 94.0537V90.0537ZM1129.42 98.1857C1129.42 101.626 1132.11 103.95 1135.66 105.495L1137.26 101.827C1134.09 100.451 1133.42 99.1255 1133.42 98.1857H1129.42ZM1135.69 105.507C1139.47 107.083 1146.15 108.42 1155.48 109.587L1155.98 105.618C1146.63 104.449 1140.45 103.158 1137.23 101.815L1135.69 105.507ZM1155.48 109.587C1177.13 112.348 1192.15 117.401 1200.9 124.487L1203.42 121.378C1193.77 113.573 1177.84 108.406 1155.98 105.619L1155.48 109.587ZM1200.93 124.509C1209.66 131.331 1214.17 141.836 1214.17 156.44H1218.17C1218.17 140.967 1213.34 129.135 1203.39 121.357L1200.93 124.509ZM1214.17 156.44C1214.17 170.588 1207.71 182.199 1194.45 191.368L1196.73 194.658C1210.91 184.847 1218.17 172.076 1218.17 156.44H1214.17ZM1194.45 191.365C1181.31 200.414 1163.93 205.029 1142.15 205.029V209.029C1164.47 209.029 1182.71 204.3 1196.72 194.66L1194.45 191.365ZM1142.15 205.029C1120.35 205.029 1103.52 200.55 1091.42 191.828L1089.08 195.073C1102.09 204.455 1119.86 209.029 1142.15 209.029V205.029ZM1091.42 191.828C1079.27 183.071 1073.41 172.605 1073.41 160.382H1069.41C1069.41 174.146 1076.11 185.727 1089.08 195.073L1091.42 191.828ZM1073.41 160.382C1073.41 159.562 1073.67 158.987 1074.14 158.511L1071.31 155.683C1070.04 156.958 1069.41 158.573 1069.41 160.382H1073.41ZM1074.14 158.511C1074.83 157.823 1075.5 157.564 1076.23 157.564V153.564C1074.33 153.564 1072.67 154.327 1071.31 155.683L1074.14 158.511ZM1076.23 157.564H1117.84V153.564H1076.23V157.564ZM1117.84 157.564C1120.27 157.564 1123.19 158.728 1126.67 161.505L1129.17 158.382C1125.34 155.32 1121.55 153.564 1117.84 153.564V157.564ZM1126.7 161.529C1130.95 164.802 1136.62 166.324 1143.47 166.324V162.324C1137.18 162.324 1132.47 160.925 1129.14 158.358L1126.7 161.529ZM1143.47 166.324C1149.01 166.324 1153.4 165.814 1156.48 164.664C1158.04 164.085 1159.38 163.296 1160.36 162.207C1161.37 161.076 1161.89 159.708 1161.89 158.192H1157.89C1157.89 158.719 1157.73 159.14 1157.37 159.542C1156.98 159.986 1156.27 160.475 1155.08 160.917C1152.69 161.811 1148.87 162.324 1143.47 162.324V166.324ZM1161.89 158.192C1161.89 154.235 1158.81 151.782 1154.61 150.381L1153.35 154.176C1157.03 155.403 1157.89 156.892 1157.89 158.192H1161.89ZM1154.67 150.403C1150.49 148.856 1142.84 147.374 1131.9 145.916L1131.38 149.881C1142.34 151.343 1149.58 152.782 1153.28 154.154L1154.67 150.403ZM1131.9 145.916C1113.26 143.459 1099.57 138.288 1090.56 130.609C1081.64 122.999 1077.14 112.775 1077.14 99.7187H1073.14C1073.14 113.818 1078.06 125.203 1087.97 133.653C1097.79 142.034 1112.35 147.374 1131.38 149.882L1131.9 145.916ZM1380.14 203.087L1378.73 201.673L1380.14 203.087ZM1328.89 203.087L1327.48 204.501L1327.48 204.501L1328.89 203.087ZM1327.14 151.622H1329.14V149.622H1327.14V151.622ZM1291.66 151.622V149.622H1289.66V151.622H1291.66ZM1289.91 203.087L1288.5 201.673L1288.5 201.673L1289.91 203.087ZM1238.67 203.306L1237.25 204.72L1237.3 204.767L1237.35 204.811L1238.67 203.306ZM1238.67 53.2907L1240.08 54.705L1240.08 54.7049L1238.67 53.2907ZM1289.91 53.2907L1288.5 54.7049L1288.5 54.705L1289.91 53.2907ZM1291.66 103.442H1289.66V105.442H1291.66V103.442ZM1327.14 103.442V105.442H1329.14V103.442H1327.14ZM1328.89 53.2907L1327.48 51.8765L1327.48 51.8765L1328.89 53.2907ZM1333.05 53.5387H1375.98V49.5387H1333.05V53.5387ZM1375.98 53.5387C1377.04 53.5387 1377.92 53.9001 1378.73 54.705L1381.55 51.8765C1380.02 50.3454 1378.13 49.5387 1375.98 49.5387V53.5387ZM1378.73 54.705C1379.53 55.5099 1379.89 56.3929 1379.89 57.4517H1383.89C1383.89 55.2986 1383.09 53.4076 1381.55 51.8765L1378.73 54.705ZM1379.89 57.4517V198.926H1383.89V57.4517H1379.89ZM1379.89 198.926C1379.89 199.985 1379.53 200.868 1378.73 201.673L1381.55 204.501C1383.09 202.97 1383.89 201.079 1383.89 198.926H1379.89ZM1378.73 201.673C1377.92 202.477 1377.04 202.839 1375.98 202.839V206.839C1378.13 206.839 1380.02 206.032 1381.55 204.501L1378.73 201.673ZM1375.98 202.839H1333.05V206.839H1375.98V202.839ZM1333.05 202.839C1332 202.839 1331.11 202.477 1330.31 201.673L1327.48 204.501C1329.01 206.032 1330.9 206.839 1333.05 206.839V202.839ZM1330.31 201.673C1329.5 200.868 1329.14 199.985 1329.14 198.926H1325.14C1325.14 201.079 1325.95 202.97 1327.48 204.501L1330.31 201.673ZM1329.14 198.926V151.622H1325.14V198.926H1329.14ZM1327.14 149.622H1291.66V153.622H1327.14V149.622ZM1289.66 151.622V198.926H1293.66V151.622H1289.66ZM1289.66 198.926C1289.66 199.985 1289.3 200.868 1288.5 201.673L1291.33 204.501C1292.86 202.97 1293.66 201.079 1293.66 198.926H1289.66ZM1288.5 201.673C1287.69 202.477 1286.81 202.839 1285.75 202.839V206.839C1287.9 206.839 1289.79 206.032 1291.33 204.501L1288.5 201.673ZM1285.75 202.839H1242.83V206.839H1285.75V202.839ZM1242.83 202.839C1241.69 202.839 1240.77 202.492 1239.98 201.801L1237.35 204.811C1238.89 206.164 1240.75 206.839 1242.83 206.839V202.839ZM1240.08 201.892C1239.31 201.123 1238.91 200.183 1238.91 198.926H1234.91C1234.91 201.172 1235.68 203.152 1237.25 204.72L1240.08 201.892ZM1238.91 198.926V57.4517H1234.91V198.926H1238.91ZM1238.91 57.4517C1238.91 56.3929 1239.28 55.5099 1240.08 54.705L1237.25 51.8765C1235.72 53.4076 1234.91 55.2986 1234.91 57.4517H1238.91ZM1240.08 54.7049C1240.88 53.9001 1241.77 53.5387 1242.83 53.5387V49.5387C1240.67 49.5387 1238.78 50.3454 1237.25 51.8765L1240.08 54.7049ZM1242.83 53.5387H1285.75V49.5387H1242.83V53.5387ZM1285.75 53.5387C1286.81 53.5387 1287.69 53.9001 1288.5 54.7049L1291.33 51.8765C1289.79 50.3454 1287.9 49.5387 1285.75 49.5387V53.5387ZM1288.5 54.705C1289.3 55.5099 1289.66 56.3929 1289.66 57.4517H1293.66C1293.66 55.2986 1292.86 53.4076 1291.33 51.8765L1288.5 54.705ZM1289.66 57.4517V103.442H1293.66V57.4517H1289.66ZM1291.66 105.442H1327.14V101.442H1291.66V105.442ZM1329.14 103.442V57.4517H1325.14V103.442H1329.14ZM1329.14 57.4517C1329.14 56.3929 1329.5 55.5098 1330.31 54.7049L1327.48 51.8765C1325.95 53.4076 1325.14 55.2986 1325.14 57.4517H1329.14ZM1330.31 54.705C1331.11 53.9001 1332 53.5387 1333.05 53.5387V49.5387C1330.9 49.5387 1329.01 50.3454 1327.48 51.8765L1330.31 54.705ZM1457.45 156.659L1456.03 158.073L1456.03 158.073L1457.45 156.659ZM1457.45 203.087L1456.03 201.673L1456.03 201.673L1457.45 203.087ZM1415.18 156.907H1453.28V152.907H1415.18V156.907ZM1453.28 156.907C1454.34 156.907 1455.23 157.268 1456.03 158.073L1458.86 155.245C1457.33 153.713 1455.44 152.907 1453.28 152.907V156.907ZM1456.03 158.073C1456.84 158.878 1457.2 159.761 1457.2 160.82H1461.2C1461.2 158.667 1460.39 156.776 1458.86 155.245L1456.03 158.073ZM1457.2 160.82V198.926H1461.2V160.82H1457.2ZM1457.2 198.926C1457.2 199.985 1456.84 200.868 1456.03 201.673L1458.86 204.501C1460.39 202.97 1461.2 201.079 1461.2 198.926H1457.2ZM1456.03 201.673C1455.23 202.477 1454.34 202.839 1453.28 202.839V206.839C1455.44 206.839 1457.33 206.032 1458.86 204.501L1456.03 201.673ZM1453.28 202.839H1415.18V206.839H1453.28V202.839ZM1415.18 202.839C1414.12 202.839 1413.24 202.477 1412.43 201.673L1409.6 204.501C1411.13 206.032 1413.02 206.839 1415.18 206.839V202.839ZM1412.43 201.673C1411.63 200.868 1411.27 199.985 1411.27 198.926H1407.27C1407.27 201.079 1408.07 202.97 1409.6 204.501L1412.43 201.673ZM1411.27 198.926V160.82H1407.27V198.926H1411.27ZM1411.27 160.82C1411.27 159.761 1411.63 158.878 1412.43 158.073L1409.6 155.245C1408.07 156.776 1407.27 158.667 1407.27 160.82H1411.27ZM1412.43 158.073C1413.24 157.268 1414.12 156.907 1415.18 156.907V152.907C1413.02 152.907 1411.13 153.713 1409.6 155.245L1412.43 158.073ZM1606.95 65.1167L1605.73 66.7049L1605.73 66.7049L1606.95 65.1167ZM1606.95 144.395L1605.78 142.769L1605.77 142.776L1606.95 144.395ZM1543.44 157.097V155.097H1541.44V157.097H1543.44ZM1541.68 203.087L1540.27 201.673L1540.27 201.673L1541.68 203.087ZM1488.25 203.087L1489.66 201.673L1489.66 201.673L1488.25 203.087ZM1488.25 53.2907L1489.66 54.705L1489.66 54.7049L1488.25 53.2907ZM1542.34 92.2727V90.2727H1540.34V92.2727H1542.34ZM1542.34 116.582H1540.34V118.582H1542.34V116.582ZM1564.68 113.735L1566.04 115.2L1566.07 115.175L1566.09 115.149L1564.68 113.735ZM1565.34 95.9957L1563.66 97.0822L1563.66 97.0822L1565.34 95.9957ZM1492.41 53.5387H1557.67V49.5387H1492.41V53.5387ZM1557.67 53.5387C1578.43 53.5387 1594.37 58.0104 1605.73 66.7049L1608.16 63.5286C1595.87 54.1191 1578.96 49.5387 1557.67 49.5387V53.5387ZM1605.73 66.7049C1616.97 75.3057 1622.69 88.02 1622.69 105.194H1626.69C1626.69 87.0354 1620.58 73.0318 1608.16 63.5286L1605.73 66.7049ZM1622.69 105.194C1622.69 122.371 1616.97 134.759 1605.78 142.769L1608.11 146.021C1620.58 137.095 1626.69 123.349 1626.69 105.194H1622.69ZM1605.77 142.776C1594.56 150.905 1578.61 155.097 1557.67 155.097V159.097C1579.08 159.097 1595.97 154.821 1608.12 146.014L1605.77 142.776ZM1557.67 155.097H1543.44V159.097H1557.67V155.097ZM1541.44 157.097V198.926H1545.44V157.097H1541.44ZM1541.44 198.926C1541.44 199.985 1541.08 200.868 1540.27 201.673L1543.1 204.501C1544.63 202.97 1545.44 201.079 1545.44 198.926H1541.44ZM1540.27 201.673C1539.47 202.477 1538.58 202.839 1537.52 202.839V206.839C1539.68 206.839 1541.57 206.032 1543.1 204.501L1540.27 201.673ZM1537.52 202.839H1492.41V206.839H1537.52V202.839ZM1492.41 202.839C1491.35 202.839 1490.47 202.477 1489.66 201.673L1486.83 204.501C1488.37 206.032 1490.26 206.839 1492.41 206.839V202.839ZM1489.66 201.673C1488.86 200.868 1488.5 199.985 1488.5 198.926H1484.5C1484.5 201.079 1485.3 202.97 1486.83 204.501L1489.66 201.673ZM1488.5 198.926V57.4517H1484.5V198.926H1488.5ZM1488.5 57.4517C1488.5 56.3929 1488.86 55.5099 1489.66 54.705L1486.83 51.8765C1485.3 53.4076 1484.5 55.2986 1484.5 57.4517H1488.5ZM1489.66 54.7049C1490.47 53.9001 1491.35 53.5387 1492.41 53.5387V49.5387C1490.26 49.5387 1488.37 50.3454 1486.83 51.8765L1489.66 54.7049ZM1540.34 92.2727V116.582H1544.34V92.2727H1540.34ZM1542.34 118.582H1557.67V114.582H1542.34V118.582ZM1557.67 118.582C1560.84 118.582 1563.65 117.419 1566.04 115.2L1563.32 112.269C1561.62 113.847 1559.76 114.582 1557.67 114.582V118.582ZM1566.09 115.149C1568.61 112.638 1569.75 109.227 1569.75 105.194H1565.75C1565.75 108.46 1564.84 110.744 1563.27 112.321L1566.09 115.149ZM1569.75 105.194C1569.75 101.249 1568.88 97.7835 1567.02 94.9092L1563.66 97.0822C1565.01 99.172 1565.75 101.839 1565.75 105.194H1569.75ZM1567.02 94.9092C1564.97 91.7452 1561.71 90.2727 1557.67 90.2727V94.2727C1560.64 94.2727 1562.49 95.2823 1563.66 97.0822L1567.02 94.9092ZM1557.67 90.2727H1542.34V94.2727H1557.67V90.2727Z" fill="black" mask="url(#path-1-outside-1_144_2)"/>
<path d="M31.46 227.13C39.182 227.13 45.203 229.317 49.523 233.691C53.843 238.011 56.003 244.032 56.003 251.754C56.003 258.99 53.897 264.66 49.685 268.764C45.473 272.814 39.614 274.839 32.108 274.839H9.91399V269.25H17.609V232.719H9.91399V227.13H31.46ZM30.65 269.25C36.752 269.25 41.342 267.765 44.42 264.795C47.552 261.825 49.118 257.478 49.118 251.754C49.118 245.49 47.606 240.765 44.582 237.579C41.612 234.339 37.238 232.719 31.46 232.719H24.089V269.25H30.65ZM95.6455 270.708C93.4855 272.544 91.2715 273.894 89.0035 274.758C86.7895 275.622 84.2515 276.054 81.3895 276.054C77.6095 276.054 74.3155 275.325 71.5075 273.867C68.6995 272.355 66.5125 270.222 64.9465 267.468C63.4345 264.66 62.6785 261.312 62.6785 257.424C62.6785 253.698 63.4075 250.458 64.8655 247.704C66.3235 244.896 68.3755 242.736 71.0215 241.224C73.7215 239.658 76.8265 238.875 80.3365 238.875C83.6305 238.875 86.4385 239.577 88.7605 240.981C91.0825 242.385 92.8645 244.356 94.1065 246.894C95.4025 249.378 96.0505 252.348 96.0505 255.804C96.0505 256.29 96.0235 256.803 95.9695 257.343C95.9695 257.829 95.9425 258.342 95.8885 258.882L68.9155 259.044C69.0775 261.798 69.7255 264.039 70.8595 265.767C72.0475 267.495 73.5325 268.764 75.3145 269.574C77.1505 270.384 79.0945 270.789 81.1465 270.789C83.5225 270.789 85.6555 270.465 87.5455 269.817C89.4355 269.169 91.1635 268.197 92.7295 266.901L95.6455 270.708ZM89.8135 253.941C89.7595 250.917 88.8685 248.487 87.1405 246.651C85.4665 244.761 83.2255 243.816 80.4175 243.816C77.5555 243.816 75.0445 244.761 72.8845 246.651C70.7245 248.487 69.4285 250.944 68.9965 254.022L89.8135 253.941ZM96.3056 240.09H113.316V245.112H109.59L116.88 262.365L119.796 269.25L122.712 262.365L130.002 245.112H126.438V240.09H142.638V245.112H136.32L123.036 274.839H115.908L103.029 245.112H96.3056V240.09ZM176.013 270.708C173.853 272.544 171.639 273.894 169.371 274.758C167.157 275.622 164.619 276.054 161.757 276.054C157.977 276.054 154.683 275.325 151.875 273.867C149.067 272.355 146.88 270.222 145.314 267.468C143.802 264.66 143.046 261.312 143.046 257.424C143.046 253.698 143.775 250.458 145.233 247.704C146.691 244.896 148.743 242.736 151.389 241.224C154.089 239.658 157.194 238.875 160.704 238.875C163.998 238.875 166.806 239.577 169.128 240.981C171.45 242.385 173.232 244.356 174.474 246.894C175.77 249.378 176.418 252.348 176.418 255.804C176.418 256.29 176.391 256.803 176.337 257.343C176.337 257.829 176.31 258.342 176.256 258.882L149.283 259.044C149.445 261.798 150.093 264.039 151.227 265.767C152.415 267.495 153.9 268.764 155.682 269.574C157.518 270.384 159.462 270.789 161.514 270.789C163.89 270.789 166.023 270.465 167.913 269.817C169.803 269.169 171.531 268.197 173.097 266.901L176.013 270.708ZM170.181 253.941C170.127 250.917 169.236 248.487 167.508 246.651C165.834 244.761 163.593 243.816 160.785 243.816C157.923 243.816 155.412 244.761 153.252 246.651C151.092 248.487 149.796 250.944 149.364 254.022L170.181 253.941ZM181.538 274.839V269.817H188.342V228.993L180.242 227.211L181.619 222.027L194.66 225.024V269.817H201.464V274.839H181.538ZM224.305 238.875C227.923 238.875 231.055 239.631 233.701 241.143C236.401 242.601 238.507 244.734 240.019 247.542C241.531 250.296 242.287 253.617 242.287 257.505C242.287 263.283 240.64 267.819 237.346 271.113C234.052 274.407 229.705 276.054 224.305 276.054C220.849 276.054 217.771 275.325 215.071 273.867C212.425 272.355 210.346 270.222 208.834 267.468C207.376 264.66 206.647 261.339 206.647 257.505C206.647 253.617 207.376 250.296 208.834 247.542C210.346 244.734 212.425 242.601 215.071 241.143C217.771 239.631 220.849 238.875 224.305 238.875ZM224.386 244.059C220.66 244.059 217.852 245.247 215.962 247.623C214.072 249.945 213.127 253.239 213.127 257.505C213.127 261.771 214.072 265.065 215.962 267.387C217.852 269.709 220.66 270.87 224.386 270.87C228.22 270.87 231.082 269.709 232.972 267.387C234.862 265.065 235.807 261.771 235.807 257.505C235.807 253.239 234.862 249.945 232.972 247.623C231.082 245.247 228.22 244.059 224.386 244.059ZM246.414 291.687V286.665H253.218V246.327L245.604 243.816L247.224 238.632L258.078 242.358C259.806 241.278 261.615 240.441 263.505 239.847C265.395 239.199 267.177 238.875 268.851 238.875C274.197 238.875 278.409 240.441 281.487 243.573C284.619 246.651 286.185 250.917 286.185 256.371C286.185 260.205 285.429 263.607 283.917 266.577C282.459 269.547 280.407 271.869 277.761 273.543C275.115 275.217 272.037 276.054 268.527 276.054C265.449 276.054 262.452 275.595 259.536 274.677V286.665H266.34V291.687H246.414ZM268.446 270.87C271.956 270.87 274.71 269.601 276.708 267.063C278.706 264.471 279.705 260.907 279.705 256.371C279.705 252.267 278.787 249.189 276.951 247.137C275.169 245.085 272.442 244.059 268.77 244.059C267.096 244.059 265.368 244.356 263.586 244.95C261.858 245.49 260.508 246.192 259.536 247.056V268.845C260.454 269.439 261.75 269.925 263.424 270.303C265.098 270.681 266.772 270.87 268.446 270.87ZM325.515 270.708C323.355 272.544 321.141 273.894 318.873 274.758C316.659 275.622 314.121 276.054 311.259 276.054C307.479 276.054 304.185 275.325 301.377 273.867C298.569 272.355 296.382 270.222 294.816 267.468C293.304 264.66 292.548 261.312 292.548 257.424C292.548 253.698 293.277 250.458 294.735 247.704C296.193 244.896 298.245 242.736 300.891 241.224C303.591 239.658 306.696 238.875 310.206 238.875C313.5 238.875 316.308 239.577 318.63 240.981C320.952 242.385 322.734 244.356 323.976 246.894C325.272 249.378 325.92 252.348 325.92 255.804C325.92 256.29 325.893 256.803 325.839 257.343C325.839 257.829 325.812 258.342 325.758 258.882L298.785 259.044C298.947 261.798 299.595 264.039 300.729 265.767C301.917 267.495 303.402 268.764 305.184 269.574C307.02 270.384 308.964 270.789 311.016 270.789C313.392 270.789 315.525 270.465 317.415 269.817C319.305 269.169 321.033 268.197 322.599 266.901L325.515 270.708ZM319.683 253.941C319.629 250.917 318.738 248.487 317.01 246.651C315.336 244.761 313.095 243.816 310.287 243.816C307.425 243.816 304.914 244.761 302.754 246.651C300.594 248.487 299.298 250.944 298.866 254.022L319.683 253.941ZM342.58 242.682C344.416 241.44 346.495 240.495 348.817 239.847C351.139 239.199 353.461 238.875 355.783 238.875C357.727 238.875 358.753 238.929 358.861 239.037L360.238 247.542L354.973 248.676L354.163 244.14C352.489 244.14 350.761 244.383 348.979 244.869C347.251 245.355 345.658 246.03 344.2 246.894V269.817H352.138V274.839H331.078V269.817H337.882V246.651L330.106 243.978L331.807 238.956L342.58 242.682Z" fill="#31F1FD"/>
<defs>
<linearGradient id="paint0_linear_144_2" x1="586.184" y1="18.0741" x2="625.88" y2="274.142" gradientUnits="userSpaceOnUse">
<stop stop-color="#05A99F"/>
<stop offset="0.787498" stop-color="#92FFF2"/>
</linearGradient>
</defs>
</svg>
