<svg width="429" height="65" viewBox="0 0 429 65" fill="none" xmlns="http://www.w3.org/2000/svg">
<path d="M-0.345751 0.753479H124.178M124.178 0.753479H428.854M124.178 0.753479V58.9557M124.178 58.9557H-0.345751M124.178 58.9557H428.854" stroke="#959366"/>
<path d="M10.01 38.6022V28.9542L14.186 26.5422H22.574L26.75 28.9542V32.6622H23.15V29.7822H13.61V37.4142H22.574L26.75 39.8262V49.6902L22.574 52.1022H13.826L9.65002 49.6902V45.9822H13.25V48.8622H23.15V41.0142H14.186L10.01 38.6022ZM36.3451 25.6422V42.8862H36.4171L43.8331 33.9222H48.0091L41.0611 42.0582L49.0891 51.9222H44.8051L38.9731 44.5422L36.3451 47.6382V51.9222H32.8531V25.6422H36.3451ZM55.4701 33.9222V51.9222H51.9781V33.9222H55.4701ZM51.7981 29.4942V25.6422H55.6501V29.4942H51.7981ZM65.4002 51.9222L61.2242 49.5102V25.6422H64.7162V48.7902H69.0362V51.9222H65.4002ZM76.826 51.9222L72.65 49.5102V25.6422H76.142V48.7902H80.462V51.9222H76.826ZM97.6118 43.6422V49.5102L93.4358 51.9222H84.0758V48.7902H94.1198V44.3622H88.2518L84.0758 41.9502V36.3342L88.2518 33.9222H97.2518V37.0542H87.5678V41.2302H93.4358L97.6118 43.6422ZM113.448 51.9222V46.5222H118.848V51.9222H113.448ZM113.448 39.3222V33.9222H118.848V39.3222H113.448Z" fill="white"/>
<path d="M15.904 17.8335H13.488L12.352 17.1775V20.9535H10.8V9.67348H11.968L12.352 10.3295L13.488 9.67348H15.904L17.76 10.7455V16.7615L15.904 17.8335ZM12.352 11.0655V16.4415H16.208V11.0655H12.352ZM24.7796 11.1455H21.8676V17.7535H20.3156V9.75348H21.4836L21.8676 10.4095L23.0036 9.75348H24.7796V11.1455ZM28.0864 9.75348V17.7535H26.5344V9.75348H28.0864ZM26.4544 7.78548V6.07348H28.1664V7.78548H26.4544ZM41.4118 10.7455V17.7535H39.8598V11.0655H36.8038V17.7535H35.2518V11.0655H32.1958V17.7535H30.6438V9.67348H31.8118L32.1958 10.3295L33.3318 9.67348H34.9478L36.4358 10.5375L37.9398 9.67348H39.5558L41.4118 10.7455ZM45.2039 14.4735V16.4415H48.4199V14.4735H45.2039ZM45.5079 17.8335L43.6519 16.7615V14.1535L45.5079 13.0815H48.4199V11.1455H44.4519V9.75348H48.1159L49.9719 10.8255V17.8335H49.5559L48.4199 17.1775L47.2839 17.8335H45.5079ZM56.9984 11.1455H54.0864V17.7535H52.5344V9.75348H53.7024L54.0864 10.4095L55.2224 9.75348H56.9984V11.1455ZM59.4891 20.9535L60.8811 17.3855L57.7931 9.75348H59.3451L61.6171 15.4495H61.6491L63.9051 9.75348H65.4571L61.0091 20.9535H59.4891Z" fill="white"/>
<g clip-path="url(#clip0_102_2)">
<path d="M394.831 16.9287L401.268 20.6445C401.5 20.7743 401.505 21.1414 401.268 21.2656L393.617 25.6816C393.385 25.8172 393.114 25.8059 392.894 25.6816L385.248 21.2656C385.016 21.1358 385.005 20.7687 385.248 20.6445L391.68 16.9287V9.65527L375.258 19.1367V38.0995L381.56 34.4628V27.0313C381.554 26.7659 381.871 26.5795 382.102 26.7207L389.754 31.1367C389.985 31.2722 390.115 31.5151 390.115 31.7635V40.5955C390.121 40.861 389.81 41.0473 389.579 40.9061L383.141 37.1904L376.833 40.8327L393.255 50.3141L409.677 40.8327L403.38 37.196L396.943 40.9118C396.717 41.0473 396.395 40.8722 396.406 40.6012V31.7692C396.406 31.5038 396.553 31.2666 396.768 31.1424L404.414 26.7263C404.64 26.5852 404.961 26.7659 404.956 27.0369V34.4685L411.258 38.1052V19.1367L394.831 9.65527V16.9287Z" fill="white"/>
</g>
<path d="M169.221 40.8616C155.76 40.8616 145.221 36.2703 145.221 30.4268C145.221 24.5833 155.76 19.992 169.221 19.992C182.682 19.992 193.221 24.5833 193.221 30.4268C193.221 36.2703 182.682 40.8616 169.221 40.8616ZM169.221 22.079C156.073 22.079 147.308 26.3572 147.308 30.4268C147.308 34.4964 156.073 38.7746 169.221 38.7746C182.369 38.7746 191.134 34.4964 191.134 30.4268C191.134 26.3572 182.369 22.079 169.221 22.079Z" fill="#80DEEA"/>
<path d="M159.934 51.9223C158.891 51.9223 158.056 51.7136 157.221 51.1919C152.108 48.2701 153.465 36.8962 160.143 25.2092C163.273 19.7832 167.134 15.1919 170.891 12.2701C174.96 9.13968 178.612 8.20055 181.117 9.66142C183.725 11.1223 184.665 14.7745 184.038 19.8875C183.412 24.6875 181.325 30.3223 178.195 35.7484C175.065 41.1745 171.204 45.7658 167.447 48.6875C164.734 50.7745 162.125 51.9223 159.934 51.9223ZM178.508 11.0179C176.838 11.0179 174.647 11.9571 172.247 13.8353C168.699 16.6527 165.047 21.0353 162.021 26.2527C155.447 37.6266 154.821 47.4353 158.265 49.4179C160.038 50.4614 162.96 49.5223 166.195 47.0179C169.743 44.2006 173.395 39.8179 176.421 34.6006C179.447 29.3832 181.43 24.0614 182.056 19.5745C182.578 15.4005 181.952 12.4788 180.178 11.4353C179.656 11.2266 179.134 11.0179 178.508 11.0179Z" fill="#80DEEA"/>
<path d="M178.612 51.9221C173.395 51.9221 165.882 45.5569 160.247 35.6438C153.464 23.9568 152.108 12.5829 157.221 9.66118C162.334 6.73944 171.516 13.5221 178.299 25.209C181.429 30.6351 183.516 36.2699 184.143 41.0699C184.873 46.1829 183.829 49.7308 181.221 51.296C180.386 51.7134 179.551 51.9221 178.612 51.9221ZM158.264 11.4351C154.821 13.4177 155.447 23.2264 162.021 34.6003C168.595 45.9742 176.734 51.4003 180.177 49.4177C181.951 48.3742 182.577 45.4525 182.056 41.2786C181.429 36.7916 179.447 31.4699 176.421 26.2525C169.847 14.8786 161.708 9.45249 158.264 11.4351Z" fill="#80DEEA"/>
<path d="M169.221 34.6007C171.526 34.6007 173.395 32.7319 173.395 30.4268C173.395 28.1216 171.526 26.2528 169.221 26.2528C166.916 26.2528 165.047 28.1216 165.047 30.4268C165.047 32.7319 166.916 34.6007 169.221 34.6007Z" fill="#80DEEA"/>
<path d="M231.427 15.0283C224.835 15.0283 220.402 17.9051 218.127 23.6599C217.891 24.2555 218.619 24.745 219.089 24.3098C221.49 22.0899 224.187 21.3551 227.181 22.1029C229.335 22.6408 230.874 24.2036 232.578 25.9328C235.352 28.7483 238.564 32.0084 245.581 32.0084C252.173 32.0084 256.607 29.1304 258.881 23.3756C259.117 22.78 258.389 22.2905 257.919 22.7257C255.518 24.9455 252.821 25.6815 249.827 24.9337C247.675 24.3959 246.135 22.833 244.431 21.1039C241.656 18.2872 238.443 15.0283 231.427 15.0283ZM217.273 32.0084C210.681 32.0084 206.247 34.8864 203.973 40.6412C203.737 41.2368 204.465 41.7263 204.935 41.2911C207.336 39.0713 210.033 38.3353 213.027 39.0842C215.179 39.6233 216.719 41.1849 218.423 42.9129C221.198 45.7296 224.411 48.9897 231.427 48.9897C238.019 48.9897 242.453 46.1117 244.727 40.3569C244.963 39.7613 244.235 39.2718 243.765 39.707C241.364 41.9268 238.667 42.6629 235.673 41.9139C233.519 41.376 231.98 39.8132 230.276 38.0852C227.502 35.2685 224.29 32.0084 217.273 32.0084Z" fill="url(#paint0_linear_102_2)"/>
<path d="M325.162 14.2281L327.818 44.3249C327.928 45.5755 328.798 46.6299 330.005 46.9746L340.765 50.049C341.673 50.3088 342.635 50.3088 343.542 50.049L354.302 46.9746C355.509 46.6299 356.38 45.5765 356.49 44.3249L359.146 14.2281C359.251 13.0453 358.32 12.0283 357.133 12.0283H327.176C325.989 12.0283 325.058 13.0453 325.162 14.2281Z" fill="url(#paint1_linear_102_2)"/>
<path d="M342.154 15.0612V47.3113L352.139 44.4583C352.944 44.2278 353.525 43.5242 353.598 42.6901L355.909 16.1601C355.96 15.5687 355.495 15.0612 354.902 15.0612H342.154Z" fill="#35C1F1"/>
<path d="M351.354 20.1161H342.154V24.16H347.108L346.805 28.2039H342.154V32.2478H346.603L346.299 36.7971L342.154 38.2125V42.4586L350.141 39.8301L350.849 28.2039L351.354 20.1161Z" fill="white"/>
<path d="M342.154 20.1161V24.16H333.157L332.853 20.1161H342.154ZM337.504 28.2039L337.706 32.2478H342.154V28.2039H337.504ZM337.908 34.2697H333.864L334.168 39.8301L342.154 42.4586V38.2125L338.009 36.7971L337.908 34.2697Z" fill="#D6E0E9"/>
<path opacity="0.05" d="M351.354 20.1161L350.849 28.2039L350.141 39.8301L342.154 42.4586L334.168 39.8301L333.864 34.2697H337.908L338.009 36.7972L342.154 38.2125L346.299 36.7972L346.603 32.2478H342.154H337.706L337.504 28.2039H342.154H346.805L347.108 24.16H342.154H333.157L332.853 20.1161H342.154H351.354ZM352.43 19.1051H351.354H342.154H332.853H331.764L331.845 20.1919L332.149 24.2358L332.218 25.171H333.157H342.154H346.018L345.867 27.1929H342.154H337.504H336.441L336.494 28.2544L336.696 32.2983L336.745 33.2588H333.864H332.797L332.855 34.3243L333.159 39.8847L333.196 40.5742L333.852 40.7905L341.839 43.4191L342.154 43.5232L342.471 43.4191L350.457 40.7905L351.109 40.5762L351.15 39.8918L351.858 28.2656L352.363 20.1798L352.43 19.1051ZM338.88 33.2588H342.154H345.522L345.335 36.0581L342.154 37.1439L338.992 36.0642L338.918 34.2293L338.88 33.2588Z" fill="black"/>
<path opacity="0.07" d="M351.354 20.1161L350.849 28.2039L350.141 39.8301L342.154 42.4586L334.168 39.8301L333.864 34.2697H337.908L338.009 36.7971L342.154 38.2125L346.299 36.7971L346.603 32.2478H342.154H337.706L337.504 28.2039H342.154H346.805L347.108 24.16H342.154H333.157L332.853 20.1161H342.154H351.354ZM351.892 19.6106H351.354H342.154H332.853H332.308L332.349 20.1535L332.652 24.1974L332.688 24.6654H333.157H342.154H346.563L346.336 27.6984H342.154H337.504H336.972L336.998 28.2291L337.201 32.273L337.225 32.7532H337.706H342.154H346.063L345.818 36.4271L342.154 37.6787L338.501 36.4312L338.414 34.2495L338.394 33.7642H337.908H333.864H333.331L333.36 34.297L333.663 39.8574L333.682 40.2021L334.01 40.3103L341.997 42.9388L342.154 42.9904L342.312 42.9388L350.299 40.3103L350.624 40.2031L350.646 39.8604L351.353 28.2342L351.859 20.1474L351.892 19.6106Z" fill="black"/>
<path d="M309.05 12.3141H275.05L278.05 46.3142L292.05 50.3142L306.05 46.3142L309.05 12.3141Z" fill="#E65100"/>
<path d="M292.05 15.3143V47.2143L303.25 44.0143L305.75 15.3143H292.05Z" fill="#FF6D00"/>
<path d="M292.05 32.3142V28.3142H300.65L299.95 39.8142L292.05 42.4142V38.2142L296.15 36.8142L296.45 32.3142H292.05ZM300.95 24.3142L301.25 20.3142H292.05V24.3142H300.95Z" fill="white"/>
<path d="M292.05 38.2142V42.4142L284.15 39.8142L283.75 34.3142H287.75L287.95 36.8142L292.05 38.2142ZM287.15 24.3142H292.05V20.3142H282.95L283.65 32.3142H292.05V28.3142H287.45L287.15 24.3142Z" fill="#EEEEEE"/>
<defs>
<linearGradient id="paint0_linear_102_2" x1="228.904" y1="13.4159" x2="233.436" y2="46.8135" gradientUnits="userSpaceOnUse">
<stop stop-color="#00C1E0"/>
<stop offset="1" stop-color="#009BB8"/>
</linearGradient>
<linearGradient id="paint1_linear_102_2" x1="334.4" y1="4.19522" x2="350.538" y2="48.5336" gradientUnits="userSpaceOnUse">
<stop stop-color="#2AA4F4"/>
<stop offset="1" stop-color="#007AD9"/>
</linearGradient>
<clipPath id="clip0_102_2">
<rect width="36" height="40.6589" fill="white" transform="translate(375.258 9.65527)"/>
</clipPath>
</defs>
</svg>
