<svg width="420" height="280" viewBox="0 0 420 280" fill="none" xmlns="http://www.w3.org/2000/svg">
<g clip-path="url(#clip0_5_5)">
<rect width="420" height="280" fill="#404040"/>
<path d="M59.2938 157.239L83.75 149.481L118.449 177.885L83.75 177.885L59.2938 157.239Z" fill="#313131"/>
<path d="M75.1726 145.722L83.7203 142.433L117.945 170.182L113.481 176.316L75.1726 145.722Z" fill="#313131"/>
<path d="M85.7154 170.38L106.951 164.371L112.578 169.079L115.832 171.118L116.681 174.11V179.31L93.4125 183.643L94.5771 177.989L85.7154 170.38Z" fill="#232323"/>
<path d="M165.494 131.953H158.366C157.808 131.953 157.398 131.835 157.134 131.601C156.899 131.337 156.782 130.926 156.782 130.369V108.765H150.314C149.756 108.765 149.346 108.647 149.082 108.413C148.847 108.149 148.73 107.738 148.73 107.181V101.857C148.73 101.299 148.847 100.903 149.082 100.669C149.346 100.405 149.756 100.273 150.314 100.273H173.546C174.103 100.273 174.499 100.405 174.734 100.669C174.998 100.903 175.13 101.299 175.13 101.857V107.181C175.13 107.738 174.998 108.149 174.734 108.413C174.499 108.647 174.103 108.765 173.546 108.765H167.078V130.369C167.078 130.926 166.946 131.337 166.682 131.601C166.447 131.835 166.051 131.953 165.494 131.953ZM201.409 131.953H180.993C180.435 131.953 180.025 131.835 179.761 131.601C179.526 131.337 179.409 130.926 179.409 130.369V101.857C179.409 101.299 179.526 100.903 179.761 100.669C180.025 100.405 180.435 100.273 180.993 100.273H201.409C201.966 100.273 202.362 100.405 202.597 100.669C202.861 100.903 202.993 101.299 202.993 101.857V107.005C202.993 107.562 202.861 107.973 202.597 108.237C202.362 108.471 201.966 108.589 201.409 108.589H189.265V111.977H197.845C198.402 111.977 198.798 112.109 199.033 112.373C199.297 112.607 199.429 113.003 199.429 113.561V118.269C199.429 118.826 199.297 119.237 199.033 119.501C198.798 119.735 198.402 119.853 197.845 119.853H189.265V123.637H201.409C201.966 123.637 202.362 123.769 202.597 124.033C202.861 124.267 202.993 124.663 202.993 125.221V130.369C202.993 130.926 202.861 131.337 202.597 131.601C202.362 131.835 201.966 131.953 201.409 131.953ZM249.037 131.953H242.481C241.924 131.953 241.513 131.835 241.249 131.601C241.014 131.337 240.897 130.926 240.897 130.369V101.857C240.897 101.299 241.014 100.903 241.249 100.669C241.513 100.405 241.924 100.273 242.481 100.273H249.565C250.034 100.273 250.416 100.375 250.709 100.581C251.032 100.786 251.325 101.123 251.589 101.593L255.549 108.765C255.696 109.029 255.813 109.219 255.901 109.337C256.018 109.454 256.165 109.513 256.341 109.513H256.737C256.913 109.513 257.045 109.454 257.133 109.337C257.25 109.219 257.382 109.029 257.529 108.765L261.445 101.593C261.709 101.123 261.988 100.786 262.281 100.581C262.604 100.375 263 100.273 263.469 100.273H270.597C271.154 100.273 271.55 100.405 271.785 100.669C272.049 100.903 272.181 101.299 272.181 101.857V130.369C272.181 130.926 272.049 131.337 271.785 131.601C271.55 131.835 271.154 131.953 270.597 131.953H263.821C263.264 131.953 262.853 131.835 262.589 131.601C262.354 131.337 262.237 130.926 262.237 130.369V114.881L259.641 119.677C259.377 120.175 259.054 120.542 258.673 120.777C258.321 120.982 257.866 121.085 257.309 121.085H255.549C254.992 121.085 254.522 120.982 254.141 120.777C253.789 120.542 253.481 120.175 253.217 119.677L250.621 114.881V130.369C250.621 130.926 250.489 131.337 250.225 131.601C249.99 131.835 249.594 131.953 249.037 131.953ZM279.117 131.953C278.559 131.953 278.149 131.835 277.885 131.601C277.65 131.337 277.533 130.926 277.533 130.369V125.133C277.533 124.575 277.65 124.179 277.885 123.945C278.149 123.681 278.559 123.549 279.117 123.549H283.473V108.765H279.117C278.559 108.765 278.149 108.647 277.885 108.413C277.65 108.149 277.533 107.738 277.533 107.181V101.857C277.533 101.299 277.65 100.903 277.885 100.669C278.149 100.405 278.559 100.273 279.117 100.273H297.861C298.418 100.273 298.814 100.405 299.049 100.669C299.313 100.903 299.445 101.299 299.445 101.857V107.181C299.445 107.738 299.313 108.149 299.049 108.413C298.814 108.647 298.418 108.765 297.861 108.765H293.593V123.549H297.861C298.418 123.549 298.814 123.681 299.049 123.945C299.313 124.179 299.445 124.575 299.445 125.133V130.369C299.445 130.926 299.313 131.337 299.049 131.601C298.814 131.835 298.418 131.953 297.861 131.953H279.117ZM313.061 131.953H306.461C305.904 131.953 305.493 131.835 305.229 131.601C304.995 131.337 304.877 130.926 304.877 130.369V101.857C304.877 101.299 304.995 100.903 305.229 100.669C305.493 100.405 305.904 100.273 306.461 100.273H311.037C311.595 100.273 312.064 100.361 312.445 100.537C312.856 100.713 313.252 101.021 313.633 101.461L322.169 111.229V101.857C322.169 101.299 322.287 100.903 322.521 100.669C322.785 100.405 323.196 100.273 323.753 100.273H330.353C330.911 100.273 331.307 100.405 331.541 100.669C331.805 100.903 331.937 101.299 331.937 101.857V130.369C331.937 130.926 331.805 131.337 331.541 131.601C331.307 131.835 330.911 131.953 330.353 131.953H323.753C323.196 131.953 322.785 131.835 322.521 131.601C322.287 131.337 322.169 130.926 322.169 130.369V124.957L314.645 115.849V130.369C314.645 130.926 314.513 131.337 314.249 131.601C314.015 131.835 313.619 131.953 313.061 131.953ZM349.49 109.513L347.422 116.201H354.33L352.262 109.513C352.145 109.249 352.013 109.058 351.866 108.941C351.749 108.823 351.602 108.765 351.426 108.765H350.326C350.15 108.765 349.989 108.823 349.842 108.941C349.725 109.058 349.608 109.249 349.49 109.513ZM346.982 130.369C346.982 130.926 346.85 131.337 346.586 131.601C346.352 131.835 345.956 131.953 345.398 131.953H338.93C338.373 131.953 337.962 131.835 337.698 131.601C337.464 131.337 337.346 130.926 337.346 130.369V118.753C337.346 117.873 337.478 116.861 337.742 115.717C338.036 114.573 338.476 113.238 339.062 111.713L342.89 101.725C343.066 101.226 343.33 100.859 343.682 100.625C344.064 100.39 344.548 100.273 345.134 100.273H356.97C357.528 100.273 357.982 100.39 358.334 100.625C358.716 100.859 358.994 101.226 359.17 101.725L362.998 111.713C363.585 113.238 364.01 114.573 364.274 115.717C364.568 116.861 364.714 117.873 364.714 118.753V130.369C364.714 130.926 364.582 131.337 364.318 131.601C364.084 131.835 363.688 131.953 363.13 131.953H356.486C355.9 131.953 355.46 131.835 355.166 131.601C354.902 131.337 354.77 130.926 354.77 130.369V124.209H346.982V130.369ZM394.127 131.953H371.731C371.174 131.953 370.763 131.835 370.499 131.601C370.264 131.337 370.147 130.926 370.147 130.369V101.857C370.147 101.299 370.264 100.903 370.499 100.669C370.763 100.405 371.174 100.273 371.731 100.273H378.551C379.108 100.273 379.504 100.405 379.739 100.669C380.003 100.903 380.135 101.299 380.135 101.857V123.637H386.163V116.509C386.163 115.951 386.28 115.555 386.515 115.321C386.779 115.057 387.19 114.925 387.747 114.925H394.127C394.684 114.925 395.08 115.057 395.315 115.321C395.579 115.555 395.711 115.951 395.711 116.509V130.369C395.711 130.926 395.579 131.337 395.315 131.601C395.08 131.835 394.684 131.953 394.127 131.953ZM172.534 184.953H152.118C151.56 184.953 151.15 184.835 150.886 184.601C150.651 184.337 150.534 183.926 150.534 183.369V154.857C150.534 154.299 150.651 153.903 150.886 153.669C151.15 153.405 151.56 153.273 152.118 153.273H172.534C173.091 153.273 173.487 153.405 173.722 153.669C173.986 153.903 174.118 154.299 174.118 154.857V160.005C174.118 160.562 173.986 160.973 173.722 161.237C173.487 161.471 173.091 161.589 172.534 161.589H160.39V164.977H168.97C169.527 164.977 169.923 165.109 170.158 165.373C170.422 165.607 170.554 166.003 170.554 166.561V171.269C170.554 171.826 170.422 172.237 170.158 172.501C169.923 172.735 169.527 172.853 168.97 172.853H160.39V176.637H172.534C173.091 176.637 173.487 176.769 173.722 177.033C173.986 177.267 174.118 177.663 174.118 178.221V183.369C174.118 183.926 173.986 184.337 173.722 184.601C173.487 184.835 173.091 184.953 172.534 184.953ZM187.463 184.953H180.907C180.349 184.953 179.939 184.835 179.675 184.601C179.44 184.337 179.323 183.926 179.323 183.369V154.857C179.323 154.299 179.44 153.903 179.675 153.669C179.939 153.405 180.349 153.273 180.907 153.273H187.991C188.46 153.273 188.841 153.375 189.135 153.581C189.457 153.786 189.751 154.123 190.015 154.593L193.975 161.765C194.121 162.029 194.239 162.219 194.327 162.337C194.444 162.454 194.591 162.513 194.767 162.513H195.163C195.339 162.513 195.471 162.454 195.559 162.337C195.676 162.219 195.808 162.029 195.955 161.765L199.871 154.593C200.135 154.123 200.413 153.786 200.707 153.581C201.029 153.375 201.425 153.273 201.895 153.273H209.023C209.58 153.273 209.976 153.405 210.211 153.669C210.475 153.903 210.607 154.299 210.607 154.857V183.369C210.607 183.926 210.475 184.337 210.211 184.601C209.976 184.835 209.58 184.953 209.023 184.953H202.247C201.689 184.953 201.279 184.835 201.015 184.601C200.78 184.337 200.663 183.926 200.663 183.369V167.881L198.067 172.677C197.803 173.175 197.48 173.542 197.099 173.777C196.747 173.982 196.292 174.085 195.735 174.085H193.975C193.417 174.085 192.948 173.982 192.567 173.777C192.215 173.542 191.907 173.175 191.643 172.677L189.047 167.881V183.369C189.047 183.926 188.915 184.337 188.651 184.601C188.416 184.835 188.02 184.953 187.463 184.953ZM243.635 176.637C243.635 177.986 243.429 179.218 243.019 180.333C242.637 181.418 241.933 182.357 240.907 183.149C239.909 183.911 238.531 184.513 236.771 184.953C235.011 185.393 232.767 185.613 230.039 185.613C227.311 185.613 225.067 185.393 223.307 184.953C221.547 184.513 220.153 183.911 219.127 183.149C218.129 182.357 217.425 181.418 217.015 180.333C216.633 179.218 216.443 177.986 216.443 176.637V154.857C216.443 154.299 216.56 153.903 216.795 153.669C217.059 153.405 217.469 153.273 218.027 153.273H224.935C225.492 153.273 225.888 153.405 226.123 153.669C226.387 153.903 226.519 154.299 226.519 154.857V174.921C226.519 175.507 226.739 176.006 227.179 176.417C227.619 176.798 228.601 176.989 230.127 176.989C231.681 176.989 232.679 176.798 233.119 176.417C233.559 176.006 233.779 175.507 233.779 174.921V154.857C233.779 154.299 233.896 153.903 234.131 153.669C234.395 153.405 234.805 153.273 235.363 153.273H242.051C242.608 153.273 243.004 153.405 243.239 153.669C243.503 153.903 243.635 154.299 243.635 154.857V176.637ZM273.471 184.953H251.075C250.517 184.953 250.107 184.835 249.843 184.601C249.608 184.337 249.491 183.926 249.491 183.369V154.857C249.491 154.299 249.608 153.903 249.843 153.669C250.107 153.405 250.517 153.273 251.075 153.273H257.895C258.452 153.273 258.848 153.405 259.083 153.669C259.347 153.903 259.479 154.299 259.479 154.857V176.637H265.507V169.509C265.507 168.951 265.624 168.555 265.859 168.321C266.123 168.057 266.533 167.925 267.091 167.925H273.471C274.028 167.925 274.424 168.057 274.659 168.321C274.923 168.555 275.055 168.951 275.055 169.509V183.369C275.055 183.926 274.923 184.337 274.659 184.601C274.424 184.835 274.028 184.953 273.471 184.953ZM291.568 162.513L289.5 169.201H296.408L294.34 162.513C294.223 162.249 294.091 162.058 293.944 161.941C293.827 161.823 293.68 161.765 293.504 161.765H292.404C292.228 161.765 292.067 161.823 291.92 161.941C291.803 162.058 291.686 162.249 291.568 162.513ZM289.06 183.369C289.06 183.926 288.928 184.337 288.664 184.601C288.43 184.835 288.034 184.953 287.476 184.953H281.008C280.451 184.953 280.04 184.835 279.776 184.601C279.542 184.337 279.424 183.926 279.424 183.369V171.753C279.424 170.873 279.556 169.861 279.82 168.717C280.114 167.573 280.554 166.238 281.14 164.713L284.968 154.725C285.144 154.226 285.408 153.859 285.76 153.625C286.142 153.39 286.626 153.273 287.212 153.273H299.048C299.606 153.273 300.06 153.39 300.412 153.625C300.794 153.859 301.072 154.226 301.248 154.725L305.076 164.713C305.663 166.238 306.088 167.573 306.352 168.717C306.646 169.861 306.792 170.873 306.792 171.753V183.369C306.792 183.926 306.66 184.337 306.396 184.601C306.162 184.835 305.766 184.953 305.208 184.953H298.564C297.978 184.953 297.538 184.835 297.244 184.601C296.98 184.337 296.848 183.926 296.848 183.369V177.209H289.06V183.369ZM325.423 184.953H318.295C317.738 184.953 317.327 184.835 317.063 184.601C316.829 184.337 316.711 183.926 316.711 183.369V161.765H310.243C309.686 161.765 309.275 161.647 309.011 161.413C308.777 161.149 308.659 160.738 308.659 160.181V154.857C308.659 154.299 308.777 153.903 309.011 153.669C309.275 153.405 309.686 153.273 310.243 153.273H333.475C334.033 153.273 334.429 153.405 334.663 153.669C334.927 153.903 335.059 154.299 335.059 154.857V160.181C335.059 160.738 334.927 161.149 334.663 161.413C334.429 161.647 334.033 161.765 333.475 161.765H327.007V183.369C327.007 183.926 326.875 184.337 326.611 184.601C326.377 184.835 325.981 184.953 325.423 184.953ZM365.964 176.637C365.964 177.986 365.758 179.218 365.348 180.333C364.966 181.418 364.262 182.357 363.236 183.149C362.238 183.911 360.845 184.513 359.056 184.953C357.296 185.393 355.052 185.613 352.324 185.613C349.596 185.613 347.337 185.393 345.548 184.953C343.758 184.513 342.35 183.911 341.324 183.149C340.326 182.357 339.622 181.418 339.212 180.333C338.83 179.218 338.64 177.986 338.64 176.637V161.633C338.64 160.283 338.83 159.066 339.212 157.981C339.622 156.866 340.326 155.913 341.324 155.121C342.35 154.329 343.758 153.713 345.548 153.273C347.337 152.833 349.596 152.613 352.324 152.613C355.052 152.613 357.296 152.833 359.056 153.273C360.845 153.713 362.238 154.329 363.236 155.121C364.262 155.913 364.966 156.866 365.348 157.981C365.758 159.066 365.964 160.283 365.964 161.633V176.637ZM348.628 175.053C348.628 175.639 348.848 176.138 349.288 176.549C349.728 176.93 350.74 177.121 352.324 177.121C353.908 177.121 354.92 176.93 355.36 176.549C355.8 176.138 356.02 175.639 356.02 175.053V163.217C356.02 162.659 355.8 162.19 355.36 161.809C354.92 161.398 353.908 161.193 352.324 161.193C350.74 161.193 349.728 161.398 349.288 161.809C348.848 162.19 348.628 162.659 348.628 163.217V175.053Z" fill="black"/>
<path d="M218.142 108.193V113.825H221.442C222.204 113.825 222.718 113.634 222.982 113.253C223.246 112.842 223.378 112.343 223.378 111.757V110.261C223.378 109.674 223.246 109.19 222.982 108.809C222.718 108.398 222.204 108.193 221.442 108.193H218.142ZM216.558 131.953H209.782C209.224 131.953 208.814 131.835 208.55 131.601C208.315 131.337 208.198 130.926 208.198 130.369V101.857C208.198 101.299 208.315 100.903 208.55 100.669C208.814 100.405 209.224 100.273 209.782 100.273H224.434C227.719 100.273 229.978 100.962 231.21 102.341C232.471 103.69 233.102 105.45 233.102 107.621V109.645C233.102 110.877 232.911 111.933 232.53 112.813C232.178 113.663 231.547 114.279 230.638 114.661C232.222 114.837 233.498 115.482 234.466 116.597C235.463 117.711 235.962 119.193 235.962 121.041V130.369C235.962 130.926 235.83 131.337 235.566 131.601C235.331 131.835 234.935 131.953 234.378 131.953H227.558C227 131.953 226.59 131.835 226.326 131.601C226.091 131.337 225.974 130.926 225.974 130.369V123.637C225.974 122.991 225.842 122.522 225.578 122.229C225.343 121.906 224.918 121.745 224.302 121.745H218.142V130.369C218.142 130.926 218.01 131.337 217.746 131.601C217.511 131.835 217.115 131.953 216.558 131.953ZM381.509 161.193V166.825H384.809C385.572 166.825 386.085 166.634 386.349 166.253C386.613 165.842 386.745 165.343 386.745 164.757V163.261C386.745 162.674 386.613 162.19 386.349 161.809C386.085 161.398 385.572 161.193 384.809 161.193H381.509ZM379.925 184.953H373.149C372.592 184.953 372.181 184.835 371.917 184.601C371.682 184.337 371.565 183.926 371.565 183.369V154.857C371.565 154.299 371.682 153.903 371.917 153.669C372.181 153.405 372.592 153.273 373.149 153.273H387.801C391.086 153.273 393.345 153.962 394.577 155.341C395.838 156.69 396.469 158.45 396.469 160.621V162.645C396.469 163.877 396.278 164.933 395.897 165.813C395.545 166.663 394.914 167.279 394.005 167.661C395.589 167.837 396.865 168.482 397.833 169.597C398.83 170.711 399.329 172.193 399.329 174.041V183.369C399.329 183.926 399.197 184.337 398.933 184.601C398.698 184.835 398.302 184.953 397.745 184.953H390.925C390.368 184.953 389.957 184.835 389.693 184.601C389.458 184.337 389.341 183.926 389.341 183.369V176.637C389.341 175.991 389.209 175.522 388.945 175.229C388.71 174.906 388.285 174.745 387.669 174.745H381.509V183.369C381.509 183.926 381.377 184.337 381.113 184.601C380.878 184.835 380.482 184.953 379.925 184.953Z" fill="#00FF00"/>
<path d="M44.1957 126.161H102.975C110.154 126.161 115.975 131.981 115.975 139.161V181.984H44.1957V126.161Z" stroke="black" stroke-width="8"/>
<path d="M57.4666 140.402L75.1821 145.756V146.741L68.5238 149.797L57.4666 140.402Z" fill="#313131"/>
<path d="M58.3804 154.419L80.758 147.312V144.587L58.3804 137.553" stroke="black" stroke-width="6"/>
<path d="M85.7202 167.375H106.955" stroke="black" stroke-width="6"/>
<rect x="57.467" y="134.674" width="1.82683" height="5.75842" fill="black"/>
<rect x="57.467" y="151.6" width="1.82683" height="5.63928" fill="black"/>
<path d="M58.3804 154.419L80.758 147.312V144.587L58.3804 137.553" stroke="black" stroke-width="6"/>
<rect x="57.467" y="134.674" width="1.82683" height="5.75842" fill="black"/>
<rect x="57.467" y="151.6" width="1.82683" height="5.63928" fill="black"/>
<path d="M40.3877 211.78L43.2197 203.98L43.4297 202.78L44.4977 202.66L47.7857 211.78H46.5857L45.6977 209.08H42.4877L41.4917 211.78H40.3877ZM44.0657 203.38L43.7957 205.3L42.7817 208.18H45.4037L44.3357 205.3L44.0657 203.38ZM61.7451 210.754C61.8211 210.778 61.9091 210.8 62.0091 210.82C62.1091 210.84 62.2151 210.858 62.3271 210.874C62.4431 210.89 62.5591 210.902 62.6751 210.91C62.7951 210.918 62.9131 210.922 63.0291 210.922C63.2731 210.922 63.4931 210.882 63.6891 210.802C63.8891 210.722 64.0671 210.616 64.2231 210.484C64.3791 210.348 64.5151 210.19 64.6311 210.01C64.7471 209.826 64.8411 209.634 64.9131 209.434C64.9891 209.23 65.0451 209.02 65.0811 208.804C65.1171 208.588 65.1351 208.378 65.1351 208.174C65.1351 207.774 65.0831 207.438 64.9791 207.166C64.8751 206.894 64.7411 206.674 64.5771 206.506C64.4131 206.338 64.2311 206.218 64.0311 206.146C63.8351 206.074 63.6431 206.038 63.4551 206.038C63.1391 206.038 62.8371 206.1 62.5491 206.224C62.2651 206.344 61.9971 206.506 61.7451 206.71V210.754ZM60.6651 203.26L60.5451 202.18L61.7451 202.06V205.936L62.2551 205.39C62.4591 205.294 62.6711 205.218 62.8911 205.162C63.1151 205.106 63.3411 205.078 63.5691 205.078C63.8971 205.078 64.2251 205.146 64.5531 205.282C64.8811 205.418 65.1731 205.62 65.4291 205.888C65.6891 206.152 65.8991 206.478 66.0591 206.866C66.2231 207.254 66.3051 207.7 66.3051 208.204C66.3051 208.756 66.2131 209.258 66.0291 209.71C65.8491 210.162 65.6051 210.55 65.2971 210.874C64.9931 211.194 64.6391 211.442 64.2351 211.618C63.8351 211.794 63.4151 211.882 62.9751 211.882C62.7231 211.882 62.4771 211.872 62.2371 211.852C62.0011 211.836 61.7811 211.812 61.5771 211.78C61.3731 211.752 61.1911 211.72 61.0311 211.684C60.8751 211.644 60.7531 211.606 60.6651 211.57V203.26ZM75.2137 211.006C75.0897 211.134 74.9537 211.252 74.8057 211.36C74.6577 211.468 74.4937 211.562 74.3137 211.642C74.1337 211.718 73.9337 211.776 73.7137 211.816C73.4977 211.86 73.2557 211.882 72.9877 211.882C72.4557 211.882 71.9957 211.788 71.6077 211.6C71.2197 211.412 70.8997 211.16 70.6477 210.844C70.3957 210.528 70.2097 210.166 70.0897 209.758C69.9697 209.35 69.9097 208.924 69.9097 208.48C69.9097 208.196 69.9377 207.916 69.9937 207.64C70.0537 207.36 70.1377 207.094 70.2457 206.842C70.3577 206.59 70.4957 206.356 70.6597 206.14C70.8277 205.924 71.0197 205.738 71.2357 205.582C71.4557 205.426 71.6977 205.304 71.9617 205.216C72.2297 205.124 72.5217 205.078 72.8377 205.078C73.2697 205.078 73.6597 205.148 74.0077 205.288C74.3557 205.428 74.6517 205.624 74.8957 205.876C75.1397 206.128 75.3277 206.432 75.4597 206.788C75.5917 207.14 75.6577 207.528 75.6577 207.952C75.6577 208.076 75.6537 208.212 75.6457 208.36C75.6377 208.508 75.6257 208.648 75.6097 208.78H71.0497C71.0497 209.088 71.0977 209.374 71.1937 209.638C71.2897 209.898 71.4197 210.124 71.5837 210.316C71.7517 210.504 71.9477 210.652 72.1717 210.76C72.3997 210.868 72.6457 210.922 72.9097 210.922C73.1657 210.922 73.3837 210.904 73.5637 210.868C73.7477 210.828 73.9017 210.78 74.0257 210.724C74.1537 210.668 74.2597 210.608 74.3437 210.544C74.4277 210.48 74.4997 210.42 74.5597 210.364L75.2137 211.006ZM74.6017 207.88V207.616C74.6017 207.388 74.5557 207.178 74.4637 206.986C74.3757 206.794 74.2537 206.628 74.0977 206.488C73.9457 206.344 73.7677 206.232 73.5637 206.152C73.3637 206.072 73.1517 206.032 72.9277 206.032C72.6597 206.032 72.4237 206.076 72.2197 206.164C72.0197 206.248 71.8477 206.358 71.7037 206.494C71.5597 206.626 71.4437 206.772 71.3557 206.932C71.2677 207.092 71.2037 207.244 71.1637 207.388L70.8097 208.072L71.9197 207.88H74.6017ZM85.2744 211.78H84.0744V210.808L83.5104 211.48C83.4424 211.532 83.3544 211.582 83.2464 211.63C83.1424 211.678 83.0304 211.722 82.9104 211.762C82.7904 211.798 82.6684 211.826 82.5444 211.846C82.4204 211.87 82.3024 211.882 82.1904 211.882C81.8904 211.882 81.5884 211.836 81.2844 211.744C80.9804 211.648 80.7064 211.51 80.4624 211.33C80.2184 211.146 80.0184 210.92 79.8624 210.652C79.7104 210.38 79.6344 210.068 79.6344 209.716C79.6344 209.344 79.7124 209.024 79.8684 208.756C80.0284 208.484 80.2364 208.26 80.4924 208.084C80.7484 207.908 81.0404 207.778 81.3684 207.694C81.6964 207.61 82.0284 207.568 82.3644 207.568C82.7444 207.568 83.0744 207.59 83.3544 207.634C83.6344 207.674 83.8744 207.732 84.0744 207.808V207.55C84.0744 207.314 84.0444 207.102 83.9844 206.914C83.9284 206.726 83.8384 206.568 83.7144 206.44C83.5904 206.308 83.4304 206.208 83.2344 206.14C83.0424 206.072 82.8124 206.038 82.5444 206.038C82.2924 206.038 82.0744 206.054 81.8904 206.086C81.7104 206.114 81.5424 206.146 81.3864 206.182C81.2944 206.202 81.2064 206.224 81.1224 206.248C81.0384 206.272 80.9564 206.296 80.8764 206.32L80.4444 205.516C80.6124 205.44 80.8124 205.368 81.0444 205.3C81.2364 205.244 81.4544 205.194 81.6984 205.15C81.9464 205.102 82.2484 205.078 82.6044 205.078C83.0644 205.078 83.4564 205.14 83.7804 205.264C84.1044 205.388 84.3684 205.562 84.5724 205.786C84.7764 206.01 84.9244 206.28 85.0164 206.596C85.1084 206.908 85.1544 207.256 85.1544 207.64V210.7L85.2744 211.78ZM84.0744 208.63L83.7144 208.582C83.6584 208.578 83.5844 208.572 83.4924 208.564C83.4004 208.556 83.3004 208.55 83.1924 208.546L82.8744 208.534C82.7704 208.53 82.6804 208.528 82.6044 208.528C82.3804 208.528 82.1604 208.548 81.9444 208.588C81.7284 208.628 81.5344 208.694 81.3624 208.786C81.1944 208.878 81.0564 209 80.9484 209.152C80.8444 209.3 80.7924 209.486 80.7924 209.71C80.7924 209.89 80.8324 210.054 80.9124 210.202C80.9924 210.35 81.0984 210.478 81.2304 210.586C81.3664 210.694 81.5204 210.778 81.6924 210.838C81.8684 210.894 82.0504 210.922 82.2384 210.922C82.6104 210.922 82.9444 210.852 83.2404 210.712C83.5364 210.568 83.8144 210.376 84.0744 210.136V208.63ZM93.8051 205.18L94.8851 205.06V211.78H93.8051V210.7L93.4391 211.342C93.4031 211.386 93.3451 211.438 93.2651 211.498C93.1851 211.558 93.0851 211.618 92.9651 211.678C92.8451 211.734 92.7071 211.782 92.5511 211.822C92.3951 211.862 92.2211 211.882 92.0291 211.882C91.5451 211.882 91.1391 211.808 90.8111 211.66C90.4871 211.508 90.2271 211.308 90.0311 211.06C89.8351 210.812 89.6951 210.526 89.6111 210.202C89.5271 209.878 89.4851 209.544 89.4851 209.2V205.18L90.5651 205.06V209.2C90.5651 209.46 90.5911 209.694 90.6431 209.902C90.6951 210.11 90.7831 210.288 90.9071 210.436C91.0351 210.584 91.2031 210.698 91.4111 210.778C91.6231 210.854 91.8851 210.892 92.1971 210.892C92.4291 210.892 92.6351 210.86 92.8151 210.796C92.9951 210.728 93.1511 210.648 93.2831 210.556C93.4191 210.46 93.5291 210.36 93.6131 210.256C93.7011 210.152 93.7651 210.06 93.8051 209.98V205.18ZM101.25 209.524C101.25 209.788 101.264 210.01 101.292 210.19C101.324 210.366 101.368 210.51 101.424 210.622C101.484 210.73 101.556 210.808 101.64 210.856C101.728 210.9 101.828 210.922 101.94 210.922C102.128 210.922 102.314 210.9 102.498 210.856C102.682 210.812 102.854 210.762 103.014 210.706C103.174 210.646 103.316 210.588 103.44 210.532C103.564 210.472 103.66 210.428 103.728 210.4L104.142 211.126C104.106 211.158 104.018 211.216 103.878 211.3C103.742 211.38 103.568 211.464 103.356 211.552C103.148 211.64 102.912 211.716 102.648 211.78C102.384 211.848 102.108 211.882 101.82 211.882C101.46 211.882 101.17 211.816 100.95 211.684C100.734 211.552 100.568 211.372 100.452 211.144C100.336 210.916 100.26 210.652 100.224 210.352C100.188 210.048 100.17 209.724 100.17 209.38V206.14H98.4238V205.18H100.17V203.926L101.22 203.26V205.18H104.124L104.004 206.14H101.25V209.524ZM111.694 209.422C111.694 209.63 111.706 209.822 111.73 209.998C111.758 210.174 111.802 210.326 111.862 210.454C111.922 210.582 112.002 210.682 112.102 210.754C112.202 210.826 112.326 210.862 112.474 210.862C112.67 210.862 112.86 210.846 113.044 210.814C113.232 210.782 113.4 210.746 113.548 210.706C113.696 210.662 113.818 210.622 113.914 210.586C114.014 210.55 114.076 210.528 114.1 210.52L114.334 211.444C114.31 211.456 114.246 211.486 114.142 211.534C114.038 211.582 113.902 211.632 113.734 211.684C113.566 211.732 113.37 211.776 113.146 211.816C112.922 211.86 112.678 211.882 112.414 211.882C112.022 211.882 111.704 211.818 111.46 211.69C111.22 211.562 111.032 211.386 110.896 211.162C110.76 210.934 110.668 210.666 110.62 210.358C110.576 210.05 110.554 209.718 110.554 209.362V206.26L110.794 205.9L109.954 206.14H108.748L108.628 205.18H111.694V209.422ZM110.518 202.78H111.73V203.98H110.518V202.78ZM117.921 205.18H119.433V204.25C119.433 203.91 119.501 203.606 119.637 203.338C119.773 203.07 119.957 202.844 120.189 202.66C120.421 202.472 120.693 202.328 121.005 202.228C121.317 202.128 121.649 202.078 122.001 202.078C122.181 202.078 122.363 202.094 122.547 202.126C122.731 202.158 122.907 202.2 123.075 202.252C123.247 202.3 123.405 202.356 123.549 202.42C123.693 202.484 123.811 202.546 123.903 202.606L123.393 203.314C123.345 203.286 123.271 203.256 123.171 203.224C123.075 203.192 122.969 203.162 122.853 203.134C122.741 203.106 122.625 203.084 122.505 203.068C122.385 203.048 122.281 203.038 122.193 203.038C122.021 203.038 121.837 203.062 121.641 203.11C121.449 203.154 121.271 203.228 121.107 203.332C120.947 203.432 120.813 203.564 120.705 203.728C120.597 203.888 120.543 204.082 120.543 204.31V205.18H123.231L123.111 206.14H120.573V211.78H119.433V206.14H117.921V205.18ZM132.224 205.18L133.304 205.06V211.78H132.224V210.7L131.858 211.342C131.822 211.386 131.764 211.438 131.684 211.498C131.604 211.558 131.504 211.618 131.384 211.678C131.264 211.734 131.126 211.782 130.97 211.822C130.814 211.862 130.64 211.882 130.448 211.882C129.964 211.882 129.558 211.808 129.23 211.66C128.906 211.508 128.646 211.308 128.45 211.06C128.254 210.812 128.114 210.526 128.03 210.202C127.946 209.878 127.904 209.544 127.904 209.2V205.18L128.984 205.06V209.2C128.984 209.46 129.01 209.694 129.062 209.902C129.114 210.11 129.202 210.288 129.326 210.436C129.454 210.584 129.622 210.698 129.83 210.778C130.042 210.854 130.304 210.892 130.616 210.892C130.848 210.892 131.054 210.86 131.234 210.796C131.414 210.728 131.57 210.648 131.702 210.556C131.838 210.46 131.948 210.36 132.032 210.256C132.12 210.152 132.184 210.06 132.224 209.98V205.18ZM139.303 203.26L139.543 202.9L138.703 203.14H137.497L137.377 202.18H140.383V209.524C140.383 209.788 140.403 210.01 140.443 210.19C140.483 210.366 140.537 210.51 140.605 210.622C140.673 210.73 140.755 210.808 140.851 210.856C140.947 210.9 141.051 210.922 141.163 210.922C141.323 210.922 141.469 210.91 141.601 210.886C141.737 210.862 141.857 210.832 141.961 210.796C142.069 210.76 142.161 210.722 142.237 210.682C142.317 210.642 142.381 210.608 142.429 210.58L142.843 211.306C142.811 211.334 142.745 211.38 142.645 211.444C142.545 211.508 142.417 211.572 142.261 211.636C142.109 211.7 141.929 211.756 141.721 211.804C141.517 211.856 141.291 211.882 141.043 211.882C140.683 211.882 140.389 211.816 140.161 211.684C139.933 211.552 139.755 211.372 139.627 211.144C139.503 210.916 139.417 210.652 139.369 210.352C139.325 210.048 139.303 209.724 139.303 209.38V203.26ZM148.907 203.26L149.147 202.9L148.307 203.14H147.101L146.981 202.18H149.987V209.524C149.987 209.788 150.007 210.01 150.047 210.19C150.087 210.366 150.141 210.51 150.209 210.622C150.277 210.73 150.359 210.808 150.455 210.856C150.551 210.9 150.655 210.922 150.767 210.922C150.927 210.922 151.073 210.91 151.205 210.886C151.341 210.862 151.461 210.832 151.565 210.796C151.673 210.76 151.765 210.722 151.841 210.682C151.921 210.642 151.985 210.608 152.033 210.58L152.447 211.306C152.415 211.334 152.349 211.38 152.249 211.444C152.149 211.508 152.021 211.572 151.865 211.636C151.713 211.7 151.533 211.756 151.325 211.804C151.121 211.856 150.895 211.882 150.647 211.882C150.287 211.882 149.993 211.816 149.765 211.684C149.537 211.552 149.359 211.372 149.231 211.144C149.107 210.916 149.021 210.652 148.973 210.352C148.929 210.048 148.907 209.724 148.907 209.38V203.26ZM159.724 209.596L161.338 205.18L162.418 205.06L159.994 211.882C159.874 212.218 159.744 212.552 159.604 212.884C159.468 213.216 159.312 213.514 159.136 213.778C158.964 214.042 158.768 214.254 158.548 214.414C158.332 214.578 158.084 214.66 157.804 214.66C157.58 214.66 157.374 214.616 157.186 214.528C156.998 214.44 156.82 214.324 156.652 214.18L157.09 213.478C157.114 213.502 157.144 213.53 157.18 213.562C157.22 213.594 157.262 213.624 157.306 213.652C157.354 213.684 157.404 213.71 157.456 213.73C157.512 213.75 157.568 213.76 157.624 213.76C157.768 213.76 157.898 213.708 158.014 213.604C158.134 213.504 158.244 213.372 158.344 213.208C158.448 213.044 158.542 212.862 158.626 212.662C158.714 212.462 158.798 212.262 158.878 212.062L156.436 205.18L157.576 205.06L159.16 209.596L159.472 210.988L159.724 209.596ZM180.703 206.512C180.547 206.372 180.331 206.258 180.055 206.17C179.779 206.082 179.429 206.038 179.005 206.038C178.669 206.038 178.367 206.102 178.099 206.23C177.835 206.354 177.609 206.524 177.421 206.74C177.237 206.956 177.095 207.208 176.995 207.496C176.899 207.78 176.851 208.08 176.851 208.396C176.851 208.724 176.897 209.038 176.989 209.338C177.085 209.634 177.225 209.896 177.409 210.124C177.597 210.352 177.829 210.534 178.105 210.67C178.381 210.802 178.703 210.868 179.071 210.868C179.279 210.868 179.479 210.844 179.671 210.796C179.863 210.748 180.037 210.692 180.193 210.628C180.349 210.56 180.481 210.494 180.589 210.43C180.701 210.362 180.781 210.308 180.829 210.268L181.261 211.114C181.201 211.166 181.111 211.236 180.991 211.324C180.871 211.408 180.717 211.492 180.529 211.576C180.345 211.66 180.125 211.732 179.869 211.792C179.617 211.852 179.323 211.882 178.987 211.882C178.487 211.882 178.033 211.784 177.625 211.588C177.221 211.388 176.875 211.124 176.587 210.796C176.299 210.464 176.075 210.084 175.915 209.656C175.759 209.228 175.681 208.782 175.681 208.318C175.681 207.902 175.757 207.5 175.909 207.112C176.065 206.72 176.287 206.374 176.575 206.074C176.863 205.774 177.213 205.534 177.625 205.354C178.037 205.17 178.501 205.078 179.017 205.078C179.505 205.078 179.943 205.136 180.331 205.252C180.723 205.364 181.045 205.558 181.297 205.834L180.703 206.512ZM186.612 206.41L187.158 205.462C187.27 205.378 187.398 205.31 187.542 205.258C187.686 205.206 187.834 205.168 187.986 205.144C188.138 205.116 188.29 205.098 188.442 205.09C188.598 205.082 188.746 205.078 188.886 205.078C189.186 205.078 189.442 205.092 189.654 205.12C189.866 205.144 190.044 205.176 190.188 205.216C190.336 205.256 190.454 205.298 190.542 205.342C190.63 205.382 190.698 205.418 190.746 205.45L191.046 207.16L190.146 207.28L189.846 206.212C189.814 206.2 189.764 206.188 189.696 206.176C189.628 206.164 189.55 206.152 189.462 206.14C189.374 206.128 189.28 206.118 189.18 206.11C189.084 206.102 188.992 206.098 188.904 206.098C188.632 206.098 188.38 206.13 188.148 206.194C187.916 206.254 187.704 206.338 187.512 206.446C187.32 206.554 187.148 206.68 186.996 206.824C186.848 206.968 186.72 207.12 186.612 207.28V211.78H185.532V205.18L186.612 205.06V206.41ZM200.531 211.78H199.331V210.808L198.767 211.48C198.699 211.532 198.611 211.582 198.503 211.63C198.399 211.678 198.287 211.722 198.167 211.762C198.047 211.798 197.925 211.826 197.801 211.846C197.677 211.87 197.559 211.882 197.447 211.882C197.147 211.882 196.845 211.836 196.541 211.744C196.237 211.648 195.963 211.51 195.719 211.33C195.475 211.146 195.275 210.92 195.119 210.652C194.967 210.38 194.891 210.068 194.891 209.716C194.891 209.344 194.969 209.024 195.125 208.756C195.285 208.484 195.493 208.26 195.749 208.084C196.005 207.908 196.297 207.778 196.625 207.694C196.953 207.61 197.285 207.568 197.621 207.568C198.001 207.568 198.331 207.59 198.611 207.634C198.891 207.674 199.131 207.732 199.331 207.808V207.55C199.331 207.314 199.301 207.102 199.241 206.914C199.185 206.726 199.095 206.568 198.971 206.44C198.847 206.308 198.687 206.208 198.491 206.14C198.299 206.072 198.069 206.038 197.801 206.038C197.549 206.038 197.331 206.054 197.147 206.086C196.967 206.114 196.799 206.146 196.643 206.182C196.551 206.202 196.463 206.224 196.379 206.248C196.295 206.272 196.213 206.296 196.133 206.32L195.701 205.516C195.869 205.44 196.069 205.368 196.301 205.3C196.493 205.244 196.711 205.194 196.955 205.15C197.203 205.102 197.505 205.078 197.861 205.078C198.321 205.078 198.713 205.14 199.037 205.264C199.361 205.388 199.625 205.562 199.829 205.786C200.033 206.01 200.181 206.28 200.273 206.596C200.365 206.908 200.411 207.256 200.411 207.64V210.7L200.531 211.78ZM199.331 208.63L198.971 208.582C198.915 208.578 198.841 208.572 198.749 208.564C198.657 208.556 198.557 208.55 198.449 208.546L198.131 208.534C198.027 208.53 197.937 208.528 197.861 208.528C197.637 208.528 197.417 208.548 197.201 208.588C196.985 208.628 196.791 208.694 196.619 208.786C196.451 208.878 196.313 209 196.205 209.152C196.101 209.3 196.049 209.486 196.049 209.71C196.049 209.89 196.089 210.054 196.169 210.202C196.249 210.35 196.355 210.478 196.487 210.586C196.623 210.694 196.777 210.778 196.949 210.838C197.125 210.894 197.307 210.922 197.495 210.922C197.867 210.922 198.201 210.852 198.497 210.712C198.793 210.568 199.071 210.376 199.331 210.136V208.63ZM204.363 205.18H205.875V204.25C205.875 203.91 205.943 203.606 206.079 203.338C206.215 203.07 206.399 202.844 206.631 202.66C206.863 202.472 207.135 202.328 207.447 202.228C207.759 202.128 208.091 202.078 208.443 202.078C208.623 202.078 208.805 202.094 208.989 202.126C209.173 202.158 209.349 202.2 209.517 202.252C209.689 202.3 209.847 202.356 209.991 202.42C210.135 202.484 210.253 202.546 210.345 202.606L209.835 203.314C209.787 203.286 209.713 203.256 209.613 203.224C209.517 203.192 209.411 203.162 209.295 203.134C209.183 203.106 209.067 203.084 208.947 203.068C208.827 203.048 208.723 203.038 208.635 203.038C208.463 203.038 208.279 203.062 208.083 203.11C207.891 203.154 207.713 203.228 207.549 203.332C207.389 203.432 207.255 203.564 207.147 203.728C207.039 203.888 206.985 204.082 206.985 204.31V205.18H209.673L209.553 206.14H207.015V211.78H205.875V206.14H204.363V205.18ZM216.506 209.524C216.506 209.788 216.52 210.01 216.548 210.19C216.58 210.366 216.624 210.51 216.68 210.622C216.74 210.73 216.812 210.808 216.896 210.856C216.984 210.9 217.084 210.922 217.196 210.922C217.384 210.922 217.57 210.9 217.754 210.856C217.938 210.812 218.11 210.762 218.27 210.706C218.43 210.646 218.572 210.588 218.696 210.532C218.82 210.472 218.916 210.428 218.984 210.4L219.398 211.126C219.362 211.158 219.274 211.216 219.134 211.3C218.998 211.38 218.824 211.464 218.612 211.552C218.404 211.64 218.168 211.716 217.904 211.78C217.64 211.848 217.364 211.882 217.076 211.882C216.716 211.882 216.426 211.816 216.206 211.684C215.99 211.552 215.824 211.372 215.708 211.144C215.592 210.916 215.516 210.652 215.48 210.352C215.444 210.048 215.426 209.724 215.426 209.38V206.14H213.68V205.18H215.426V203.926L216.476 203.26V205.18H219.38L219.26 206.14H216.506V209.524ZM228.889 211.006C228.765 211.134 228.629 211.252 228.481 211.36C228.333 211.468 228.169 211.562 227.989 211.642C227.809 211.718 227.609 211.776 227.389 211.816C227.173 211.86 226.931 211.882 226.663 211.882C226.131 211.882 225.671 211.788 225.283 211.6C224.895 211.412 224.575 211.16 224.323 210.844C224.071 210.528 223.885 210.166 223.765 209.758C223.645 209.35 223.585 208.924 223.585 208.48C223.585 208.196 223.613 207.916 223.669 207.64C223.729 207.36 223.813 207.094 223.921 206.842C224.033 206.59 224.171 206.356 224.335 206.14C224.503 205.924 224.695 205.738 224.911 205.582C225.131 205.426 225.373 205.304 225.637 205.216C225.905 205.124 226.197 205.078 226.513 205.078C226.945 205.078 227.335 205.148 227.683 205.288C228.031 205.428 228.327 205.624 228.571 205.876C228.815 206.128 229.003 206.432 229.135 206.788C229.267 207.14 229.333 207.528 229.333 207.952C229.333 208.076 229.329 208.212 229.321 208.36C229.313 208.508 229.301 208.648 229.285 208.78H224.725C224.725 209.088 224.773 209.374 224.869 209.638C224.965 209.898 225.095 210.124 225.259 210.316C225.427 210.504 225.623 210.652 225.847 210.76C226.075 210.868 226.321 210.922 226.585 210.922C226.841 210.922 227.059 210.904 227.239 210.868C227.423 210.828 227.577 210.78 227.701 210.724C227.829 210.668 227.935 210.608 228.019 210.544C228.103 210.48 228.175 210.42 228.235 210.364L228.889 211.006ZM228.277 207.88V207.616C228.277 207.388 228.231 207.178 228.139 206.986C228.051 206.794 227.929 206.628 227.773 206.488C227.621 206.344 227.443 206.232 227.239 206.152C227.039 206.072 226.827 206.032 226.603 206.032C226.335 206.032 226.099 206.076 225.895 206.164C225.695 206.248 225.523 206.358 225.379 206.494C225.235 206.626 225.119 206.772 225.031 206.932C224.943 207.092 224.879 207.244 224.839 207.388L224.485 208.072L225.595 207.88H228.277ZM236.765 206.14C236.397 206.14 236.063 206.21 235.763 206.35C235.463 206.486 235.205 206.672 234.989 206.908C234.777 207.144 234.613 207.422 234.497 207.742C234.381 208.062 234.323 208.404 234.323 208.768C234.323 209.124 234.373 209.436 234.473 209.704C234.577 209.972 234.711 210.196 234.875 210.376C235.043 210.556 235.231 210.692 235.439 210.784C235.647 210.872 235.857 210.916 236.069 210.916C236.257 210.916 236.435 210.884 236.603 210.82C236.771 210.756 236.927 210.676 237.071 210.58C237.215 210.484 237.345 210.38 237.461 210.268C237.577 210.152 237.675 210.044 237.755 209.944V206.14H236.765ZM237.755 211.78V210.808L237.239 211.486C237.095 211.582 236.903 211.672 236.663 211.756C236.423 211.84 236.147 211.882 235.835 211.882C235.475 211.882 235.135 211.818 234.815 211.69C234.495 211.558 234.215 211.36 233.975 211.096C233.735 210.828 233.545 210.49 233.405 210.082C233.265 209.67 233.195 209.184 233.195 208.624C233.195 208.144 233.287 207.696 233.471 207.28C233.659 206.86 233.913 206.494 234.233 206.182C234.553 205.87 234.929 205.626 235.361 205.45C235.797 205.27 236.263 205.18 236.759 205.18H237.755V202.06L238.835 202.18V210.7L238.955 211.78H237.755ZM258.381 211.156C258.217 211.288 258.051 211.4 257.883 211.492C257.715 211.584 257.539 211.66 257.355 211.72C257.171 211.776 256.977 211.816 256.773 211.84C256.569 211.868 256.349 211.882 256.113 211.882C255.729 211.882 255.363 211.826 255.015 211.714C254.667 211.598 254.343 211.438 254.043 211.234C253.747 211.026 253.479 210.778 253.239 210.49C252.999 210.202 252.795 209.884 252.627 209.536C252.459 209.184 252.329 208.808 252.237 208.408C252.145 208.008 252.099 207.592 252.099 207.16C252.099 206.556 252.185 205.984 252.357 205.444C252.529 204.9 252.785 204.424 253.125 204.016C253.465 203.604 253.885 203.278 254.385 203.038C254.889 202.798 255.471 202.678 256.131 202.678C256.591 202.678 257.005 202.752 257.373 202.9C257.745 203.044 258.075 203.254 258.363 203.53L257.823 204.172C257.727 204.108 257.625 204.048 257.517 203.992C257.409 203.932 257.289 203.88 257.157 203.836C257.029 203.792 256.887 203.758 256.731 203.734C256.579 203.706 256.411 203.692 256.227 203.692C255.739 203.692 255.313 203.784 254.949 203.968C254.589 204.152 254.289 204.402 254.049 204.718C253.809 205.03 253.629 205.396 253.509 205.816C253.393 206.232 253.335 206.674 253.335 207.142C253.335 207.434 253.365 207.728 253.425 208.024C253.485 208.32 253.571 208.606 253.683 208.882C253.799 209.158 253.941 209.416 254.109 209.656C254.277 209.896 254.469 210.106 254.685 210.286C254.905 210.466 255.147 210.608 255.411 210.712C255.675 210.812 255.961 210.862 256.269 210.862C256.449 210.862 256.607 210.854 256.743 210.838C256.879 210.822 257.007 210.796 257.127 210.76C257.251 210.724 257.375 210.678 257.499 210.622C257.623 210.562 257.763 210.488 257.919 210.4L258.381 211.156ZM263.401 210.82H267.781L267.661 211.78H262.231L262.351 210.58V204.04L262.171 202.78L263.461 202.66V209.74L263.401 210.82ZM271.908 202.78H277.308V203.74H275.16V210.82H277.428L277.308 211.78H271.908V210.82H274.044V203.74H271.788L271.908 202.78Z" fill="black"/>
<path d="M312.728 277.463H306.579L306.579 270.551C306.579 270.551 309.368 267.278 312.728 270.551V277.463Z" fill="#212121"/>
<path d="M306.579 243.783L312.728 243.783V254.881C310.06 251.746 308.69 261.222 306.579 254.881V243.783Z" fill="#212121"/>
<path d="M325.169 273.495L319.557 257.566V269.023L322.732 277.463H327.38L330.98 267.968L334.579 258.473V257.566H330.895L325.169 273.495Z" fill="#212121"/>
<path d="M314.601 263.372L309.51 257.986C308.83 259.31 307.411 259.535 306.579 258.416V268.068C307.646 267.155 307.703 266.73 309.51 266.73L309.958 263.716L314.601 268.692H316.99V257.958L314.601 258.341V263.372Z" fill="#5B5B5B"/>
<path d="M312.728 277.463H306.579L306.579 270.551C306.579 270.551 309.368 267.278 312.728 270.551V277.463Z" stroke="black"/>
<path d="M306.579 243.783L312.728 243.783V254.881C310.06 251.746 308.69 261.222 306.579 254.881V243.783Z" stroke="black"/>
<path d="M325.169 273.495L319.557 257.566V269.023L322.732 277.463H327.38L330.98 267.968L334.579 258.473V257.566H330.895L325.169 273.495Z" stroke="black"/>
<path d="M314.601 263.372L309.51 257.986C308.83 259.31 307.411 259.535 306.579 258.416V268.068C307.646 267.155 307.703 266.73 309.51 266.73L309.958 263.716L314.601 268.692H316.99V257.958L314.601 258.341V263.372Z" stroke="black"/>
<path d="M339.567 265.976V275.437H338.214V265.976H339.567Z" fill="black"/>
<path d="M343.354 275.437H342.001V265.976H343.354L349.041 273.313V265.976H350.394V275.437H349.041L343.354 268.1V275.437Z" fill="black"/>
<path d="M354.174 275.437H352.822V265.976H354.174L359.862 273.313V265.976H361.214V275.437H359.862L354.174 268.1V275.437Z" fill="black"/>
<path d="M371.751 274.085C371.751 274.269 371.716 274.445 371.646 274.613C371.575 274.775 371.479 274.918 371.355 275.041C371.232 275.165 371.087 275.261 370.92 275.332C370.757 275.402 370.584 275.437 370.399 275.437H364.995C364.81 275.437 364.634 275.402 364.467 275.332C364.304 275.261 364.162 275.165 364.038 275.041C363.915 274.918 363.818 274.775 363.748 274.613C363.678 274.445 363.642 274.269 363.642 274.085V267.328C363.642 267.144 363.678 266.97 363.748 266.807C363.818 266.64 363.915 266.497 364.038 266.378C364.162 266.255 364.304 266.158 364.467 266.088C364.634 266.013 364.81 265.976 364.995 265.976H370.399C370.584 265.976 370.757 266.013 370.92 266.088C371.087 266.158 371.232 266.255 371.355 266.378C371.479 266.497 371.575 266.64 371.646 266.807C371.716 266.97 371.751 267.144 371.751 267.328V274.085ZM364.995 267.328V274.085H370.399V267.328H364.995Z" fill="black"/>
<path d="M377.023 275.437L373.374 265.976H374.826L377.769 273.761L380.718 265.976H382.163L378.514 275.437H377.023Z" fill="black"/>
<path d="M385.132 265.976V275.437H383.779V265.976H385.132Z" fill="black"/>
<path d="M388.457 265.976L390.984 269.519L393.525 265.976H395.161L391.809 270.667L395.233 275.437H393.597L390.984 271.802L388.391 275.437H386.755L390.179 270.667L386.828 265.976H388.457Z" fill="black"/>
<path d="M398.209 265.976V275.437H396.856V265.976H398.209Z" fill="black"/>
<path d="M399.832 265.976H407.4V267.328H404.292V275.437H402.94V267.328H399.832V265.976Z" fill="black"/>
<path d="M409.65 265.976L412.401 270.396L415.159 265.976H416.729L413.081 271.683V275.437H411.728V271.683L408.08 265.976H409.65Z" fill="black"/>
<path d="M337 276.79H417V277.463H337V276.79Z" fill="black"/>
<path d="M338.883 276.7L339.494 275.649H338.273L338.883 276.7Z" fill="black"/>
<path d="M339.56 265.453C339.56 265.584 339.264 265.691 338.898 265.691C338.532 265.691 338.235 265.584 338.235 265.453C338.235 265.322 338.532 265.216 338.898 265.216C339.264 265.216 339.56 265.322 339.56 265.453Z" fill="black"/>
<path d="M338.235 265.439H339.56V265.792H338.235V265.439Z" fill="black"/>
<path d="M412.975 276.137C412.975 276.448 412.723 276.7 412.412 276.7C412.101 276.7 411.849 276.448 411.849 276.137C411.849 275.826 412.101 275.574 412.412 275.574C412.723 275.574 412.975 275.826 412.975 276.137Z" fill="black"/>
<path d="M5.80701 276L4.61901 270.249H5.38401L6.22101 274.546L6.37851 275.374H6.45951L6.61251 274.546L7.45401 270.397H8.55651L9.39801 274.546L9.55101 275.374H9.63201L9.79401 274.546L10.631 270.249H11.387L10.2035 276H9.02451L8.35851 272.692L8.04351 271.014H7.97151L7.65201 272.692L6.99501 276H5.80701ZM13.5965 276V271.608H14.3255V276H13.5965ZM13.961 270.888C13.811 270.888 13.6985 270.849 13.6235 270.771C13.5515 270.69 13.5155 270.58 13.5155 270.442V270.42C13.5155 270.279 13.5515 270.169 13.6235 270.091C13.6985 270.013 13.811 269.974 13.961 269.974C14.111 269.974 14.2235 270.013 14.2985 270.091C14.3735 270.169 14.411 270.279 14.411 270.42V270.442C14.411 270.583 14.3735 270.693 14.2985 270.771C14.2235 270.849 14.111 270.888 13.961 270.888ZM18.4817 276.09C18.1427 276.09 17.8697 276.039 17.6627 275.937C17.4557 275.835 17.3057 275.68 17.2127 275.473C17.1197 275.266 17.0732 275.008 17.0732 274.699V271.927H17.7932V274.614C17.7932 274.902 17.8592 275.115 17.9912 275.253C18.1232 275.388 18.3452 275.455 18.6572 275.455C18.8342 275.455 19.0037 275.436 19.1657 275.397C19.3307 275.358 19.4852 275.302 19.6292 275.23L19.5617 275.856C19.4207 275.928 19.2557 275.985 19.0667 276.027C18.8777 276.069 18.6827 276.09 18.4817 276.09ZM16.3532 272.256V271.671H19.5842L19.5167 272.256H16.3532ZM17.0777 271.743L17.0732 270.51L17.8067 270.415L17.7752 271.743H17.0777ZM24.7322 276V273.268C24.7322 273.031 24.6992 272.827 24.6332 272.656C24.5702 272.485 24.4652 272.353 24.3182 272.26C24.1742 272.164 23.9762 272.116 23.7242 272.116C23.4932 272.116 23.2937 272.16 23.1257 272.247C22.9577 272.334 22.8212 272.452 22.7162 272.602C22.6142 272.749 22.5422 272.917 22.5002 273.106L22.3382 272.589H22.5272C22.5722 272.391 22.6547 272.211 22.7747 272.049C22.8947 271.884 23.0552 271.753 23.2562 271.657C23.4602 271.558 23.7077 271.509 23.9987 271.509C24.3467 271.509 24.6272 271.575 24.8402 271.707C25.0562 271.839 25.2137 272.029 25.3127 272.278C25.4117 272.524 25.4612 272.827 25.4612 273.188V276H24.7322ZM21.7937 276V270.037H22.5182V271.468L22.4957 272.728L22.5227 272.787V276H21.7937ZM33.8045 276.104C33.0935 276.104 32.5595 275.904 32.2025 275.505C31.8485 275.106 31.6715 274.539 31.6715 273.804V272.44C31.6715 271.705 31.8485 271.14 32.2025 270.744C32.5565 270.345 33.0875 270.145 33.7955 270.145C34.0235 270.145 34.2305 270.166 34.4165 270.208C34.6055 270.25 34.7735 270.304 34.9205 270.37C35.0675 270.436 35.192 270.505 35.294 270.577L35.357 271.271C35.18 271.144 34.9715 271.035 34.7315 270.942C34.4945 270.846 34.2155 270.798 33.8945 270.798C33.4115 270.798 33.047 270.942 32.801 271.23C32.555 271.515 32.432 271.921 32.432 272.449V273.777C32.432 274.302 32.5565 274.71 32.8055 275.001C33.0545 275.289 33.4265 275.433 33.9215 275.433C34.2395 275.433 34.52 275.386 34.763 275.293C35.009 275.2 35.222 275.086 35.402 274.951L35.339 275.662C35.237 275.734 35.111 275.805 34.961 275.874C34.811 275.943 34.6385 275.998 34.4435 276.041C34.2515 276.083 34.0385 276.104 33.8045 276.104ZM38.2652 271.608V274.339C38.2652 274.57 38.2967 274.773 38.3597 274.947C38.4257 275.118 38.5322 275.251 38.6792 275.347C38.8262 275.44 39.0242 275.487 39.2732 275.487C39.5072 275.487 39.7082 275.445 39.8762 275.361C40.0442 275.274 40.1807 275.155 40.2857 275.005C40.3937 274.855 40.4672 274.686 40.5062 274.497L40.6367 275.014H40.4792C40.4342 275.212 40.3517 275.394 40.2317 275.559C40.1117 275.721 39.9497 275.851 39.7457 275.95C39.5447 276.047 39.2957 276.095 38.9987 276.095C38.6537 276.095 38.3732 276.03 38.1572 275.901C37.9442 275.769 37.7882 275.578 37.6892 275.329C37.5902 275.077 37.5407 274.774 37.5407 274.42V271.608H38.2652ZM41.2037 271.608V276H40.4747L40.5062 274.947L40.4747 274.902V271.608H41.2037ZM45.1161 276.099C44.7621 276.099 44.4531 276.062 44.1891 275.986C43.9251 275.908 43.7061 275.824 43.5321 275.734L43.4646 275.059C43.6836 275.173 43.9236 275.272 44.1846 275.356C44.4486 275.44 44.7471 275.482 45.0801 275.482C45.4191 275.482 45.6741 275.428 45.8451 275.32C46.0161 275.212 46.1016 275.052 46.1016 274.839V274.789C46.1016 274.651 46.0686 274.537 46.0026 274.447C45.9396 274.357 45.8241 274.278 45.6561 274.209C45.4881 274.14 45.2496 274.071 44.9406 274.002C44.5716 273.921 44.2806 273.826 44.0676 273.718C43.8546 273.607 43.7016 273.471 43.6086 273.309C43.5186 273.147 43.4736 272.949 43.4736 272.715V272.674C43.4736 272.29 43.6071 271.999 43.8741 271.801C44.1411 271.603 44.5431 271.504 45.0801 271.504C45.4251 271.504 45.7236 271.543 45.9756 271.621C46.2306 271.699 46.4391 271.786 46.6011 271.882L46.6686 272.499C46.4736 272.385 46.2501 272.29 45.9981 272.215C45.7461 272.14 45.4626 272.103 45.1476 272.103C44.9196 272.103 44.7351 272.127 44.5941 272.175C44.4531 272.22 44.3511 272.286 44.2881 272.373C44.2251 272.457 44.1936 272.559 44.1936 272.679V272.715C44.1936 272.847 44.2251 272.959 44.2881 273.052C44.3511 273.142 44.4636 273.222 44.6256 273.291C44.7906 273.357 45.0186 273.421 45.3096 273.484C45.6846 273.559 45.9816 273.649 46.2006 273.754C46.4226 273.859 46.5816 273.993 46.6776 274.155C46.7736 274.314 46.8216 274.519 46.8216 274.771V274.848C46.8216 275.262 46.6776 275.574 46.3896 275.784C46.1016 275.994 45.6771 276.099 45.1161 276.099ZM50.6373 276.09C50.2983 276.09 50.0253 276.039 49.8183 275.937C49.6113 275.835 49.4613 275.68 49.3683 275.473C49.2753 275.266 49.2288 275.008 49.2288 274.699V271.927H49.9488V274.614C49.9488 274.902 50.0148 275.115 50.1468 275.253C50.2788 275.388 50.5008 275.455 50.8128 275.455C50.9898 275.455 51.1593 275.436 51.3213 275.397C51.4863 275.358 51.6408 275.302 51.7848 275.23L51.7173 275.856C51.5763 275.928 51.4113 275.985 51.2223 276.027C51.0333 276.069 50.8383 276.09 50.6373 276.09ZM48.5088 272.256V271.671H51.7398L51.6723 272.256H48.5088ZM49.2333 271.743L49.2288 270.51L49.9623 270.415L49.9308 271.743H49.2333ZM55.5724 276.113C54.9424 276.113 54.4639 275.943 54.1369 275.604C53.8129 275.262 53.6509 274.771 53.6509 274.132V273.462C53.6509 272.826 53.8144 272.338 54.1414 271.999C54.4684 271.66 54.9454 271.491 55.5724 271.491C56.2024 271.491 56.6794 271.66 57.0034 271.999C57.3304 272.338 57.4939 272.826 57.4939 273.462V274.132C57.4939 274.771 57.3304 275.262 57.0034 275.604C56.6794 275.943 56.2024 276.113 55.5724 276.113ZM55.5724 275.518C55.9624 275.518 56.2579 275.403 56.4589 275.172C56.6629 274.941 56.7649 274.608 56.7649 274.173V273.421C56.7649 272.989 56.6629 272.659 56.4589 272.431C56.2579 272.2 55.9624 272.085 55.5724 272.085C55.1854 272.085 54.8899 272.2 54.6859 272.431C54.4819 272.659 54.3799 272.989 54.3799 273.421V274.173C54.3799 274.608 54.4819 274.941 54.6859 275.172C54.8899 275.403 55.1854 275.518 55.5724 275.518ZM65.3376 276V273.25C65.3376 273.019 65.3076 272.82 65.2476 272.652C65.1906 272.481 65.0946 272.349 64.9596 272.256C64.8276 272.163 64.6491 272.116 64.4241 272.116C64.2111 272.116 64.0266 272.16 63.8706 272.247C63.7146 272.334 63.5886 272.451 63.4926 272.598C63.3966 272.742 63.3291 272.907 63.2901 273.093L63.1776 272.575H63.2676C63.3156 272.386 63.3966 272.211 63.5106 272.049C63.6246 271.887 63.7791 271.756 63.9741 271.657C64.1691 271.558 64.4106 271.509 64.6986 271.509C65.0256 271.509 65.2881 271.573 65.4861 271.702C65.6871 271.831 65.8341 272.02 65.9271 272.269C66.0201 272.515 66.0666 272.815 66.0666 273.169V276H65.3376ZM59.8521 276V271.608H60.5811L60.5496 272.661L60.5811 272.706V276H59.8521ZM62.5971 276V273.25C62.5971 273.019 62.5671 272.82 62.5071 272.652C62.4501 272.481 62.3556 272.349 62.2236 272.256C62.0916 272.163 61.9131 272.116 61.6881 272.116C61.4721 272.116 61.2861 272.16 61.1301 272.247C60.9741 272.334 60.8481 272.452 60.7521 272.602C60.6561 272.749 60.5886 272.917 60.5496 273.106L60.4146 272.589H60.5766C60.6216 272.391 60.6996 272.211 60.8106 272.049C60.9216 271.884 61.0716 271.753 61.2606 271.657C61.4526 271.558 61.6851 271.509 61.9581 271.509C62.3631 271.509 62.6706 271.614 62.8806 271.824C63.0936 272.034 63.2271 272.34 63.2811 272.742C63.2961 272.802 63.3066 272.868 63.3126 272.94C63.3186 273.009 63.3216 273.078 63.3216 273.147V276H62.5971ZM74.4117 276.104C73.7007 276.104 73.1667 275.904 72.8097 275.505C72.4557 275.106 72.2787 274.539 72.2787 273.804V272.44C72.2787 271.705 72.4557 271.14 72.8097 270.744C73.1637 270.345 73.6947 270.145 74.4027 270.145C74.6307 270.145 74.8377 270.166 75.0237 270.208C75.2127 270.25 75.3807 270.304 75.5277 270.37C75.6747 270.436 75.7992 270.505 75.9012 270.577L75.9642 271.271C75.7872 271.144 75.5787 271.035 75.3387 270.942C75.1017 270.846 74.8227 270.798 74.5017 270.798C74.0187 270.798 73.6542 270.942 73.4082 271.23C73.1622 271.515 73.0392 271.921 73.0392 272.449V273.777C73.0392 274.302 73.1637 274.71 73.4127 275.001C73.6617 275.289 74.0337 275.433 74.5287 275.433C74.8467 275.433 75.1272 275.386 75.3702 275.293C75.6162 275.2 75.8292 275.086 76.0092 274.951L75.9462 275.662C75.8442 275.734 75.7182 275.805 75.5682 275.874C75.4182 275.943 75.2457 275.998 75.0507 276.041C74.8587 276.083 74.6457 276.104 74.4117 276.104ZM79.948 276.113C79.318 276.113 78.8395 275.943 78.5125 275.604C78.1885 275.262 78.0265 274.771 78.0265 274.132V273.462C78.0265 272.826 78.19 272.338 78.517 271.999C78.844 271.66 79.321 271.491 79.948 271.491C80.578 271.491 81.055 271.66 81.379 271.999C81.706 272.338 81.8695 272.826 81.8695 273.462V274.132C81.8695 274.771 81.706 275.262 81.379 275.604C81.055 275.943 80.578 276.113 79.948 276.113ZM79.948 275.518C80.338 275.518 80.6335 275.403 80.8345 275.172C81.0385 274.941 81.1405 274.608 81.1405 274.173V273.421C81.1405 272.989 81.0385 272.659 80.8345 272.431C80.6335 272.2 80.338 272.085 79.948 272.085C79.561 272.085 79.2655 272.2 79.0615 272.431C78.8575 272.659 78.7555 272.989 78.7555 273.421V274.173C78.7555 274.608 78.8575 274.941 79.0615 275.172C79.2655 275.403 79.561 275.518 79.948 275.518ZM89.7132 276V273.25C89.7132 273.019 89.6832 272.82 89.6232 272.652C89.5662 272.481 89.4702 272.349 89.3352 272.256C89.2032 272.163 89.0247 272.116 88.7997 272.116C88.5867 272.116 88.4022 272.16 88.2462 272.247C88.0902 272.334 87.9642 272.451 87.8682 272.598C87.7722 272.742 87.7047 272.907 87.6657 273.093L87.5532 272.575H87.6432C87.6912 272.386 87.7722 272.211 87.8862 272.049C88.0002 271.887 88.1547 271.756 88.3497 271.657C88.5447 271.558 88.7862 271.509 89.0742 271.509C89.4012 271.509 89.6637 271.573 89.8617 271.702C90.0627 271.831 90.2097 272.02 90.3027 272.269C90.3957 272.515 90.4422 272.815 90.4422 273.169V276H89.7132ZM84.2277 276V271.608H84.9567L84.9252 272.661L84.9567 272.706V276H84.2277ZM86.9727 276V273.25C86.9727 273.019 86.9427 272.82 86.8827 272.652C86.8257 272.481 86.7312 272.349 86.5992 272.256C86.4672 272.163 86.2887 272.116 86.0637 272.116C85.8477 272.116 85.6617 272.16 85.5057 272.247C85.3497 272.334 85.2237 272.452 85.1277 272.602C85.0317 272.749 84.9642 272.917 84.9252 273.106L84.7902 272.589H84.9522C84.9972 272.391 85.0752 272.211 85.1862 272.049C85.2972 271.884 85.4472 271.753 85.6362 271.657C85.8282 271.558 86.0607 271.509 86.3337 271.509C86.7387 271.509 87.0462 271.614 87.2562 271.824C87.4692 272.034 87.6027 272.34 87.6567 272.742C87.6717 272.802 87.6822 272.868 87.6882 272.94C87.6942 273.009 87.6972 273.078 87.6972 273.147V276H86.9727ZM98.4109 276V273.25C98.4109 273.019 98.3809 272.82 98.3209 272.652C98.2639 272.481 98.1679 272.349 98.0329 272.256C97.9009 272.163 97.7224 272.116 97.4974 272.116C97.2844 272.116 97.0999 272.16 96.9439 272.247C96.7879 272.334 96.6619 272.451 96.5659 272.598C96.4699 272.742 96.4024 272.907 96.3634 273.093L96.2509 272.575H96.3409C96.3889 272.386 96.4699 272.211 96.5839 272.049C96.6979 271.887 96.8524 271.756 97.0474 271.657C97.2424 271.558 97.4839 271.509 97.7719 271.509C98.0989 271.509 98.3614 271.573 98.5594 271.702C98.7604 271.831 98.9074 272.02 99.0004 272.269C99.0934 272.515 99.1399 272.815 99.1399 273.169V276H98.4109ZM92.9254 276V271.608H93.6544L93.6229 272.661L93.6544 272.706V276H92.9254ZM95.6704 276V273.25C95.6704 273.019 95.6404 272.82 95.5804 272.652C95.5234 272.481 95.4289 272.349 95.2969 272.256C95.1649 272.163 94.9864 272.116 94.7614 272.116C94.5454 272.116 94.3594 272.16 94.2034 272.247C94.0474 272.334 93.9214 272.452 93.8254 272.602C93.7294 272.749 93.6619 272.917 93.6229 273.106L93.4879 272.589H93.6499C93.6949 272.391 93.7729 272.211 93.8839 272.049C93.9949 271.884 94.1449 271.753 94.3339 271.657C94.5259 271.558 94.7584 271.509 95.0314 271.509C95.4364 271.509 95.7439 271.614 95.9539 271.824C96.1669 272.034 96.3004 272.34 96.3544 272.742C96.3694 272.802 96.3799 272.868 96.3859 272.94C96.3919 273.009 96.3949 273.078 96.3949 273.147V276H95.6704ZM104.229 276L104.26 274.933L104.233 274.821V273.421L104.238 273.165C104.238 272.808 104.146 272.544 103.963 272.373C103.783 272.202 103.497 272.116 103.104 272.116C102.789 272.116 102.499 272.161 102.235 272.251C101.974 272.341 101.742 272.446 101.538 272.566L101.605 271.945C101.719 271.876 101.854 271.809 102.01 271.743C102.169 271.674 102.349 271.617 102.55 271.572C102.754 271.527 102.978 271.504 103.221 271.504C103.536 271.504 103.803 271.543 104.022 271.621C104.244 271.696 104.422 271.806 104.557 271.95C104.695 272.094 104.796 272.268 104.859 272.472C104.922 272.676 104.953 272.904 104.953 273.156V276H104.229ZM102.717 276.095C102.282 276.095 101.947 275.99 101.713 275.779C101.482 275.566 101.367 275.263 101.367 274.87V274.74C101.367 274.335 101.491 274.033 101.74 273.835C101.992 273.634 102.391 273.495 102.937 273.417L104.328 273.219L104.368 273.75L103.027 273.943C102.691 273.991 102.451 274.074 102.307 274.191C102.163 274.305 102.091 274.474 102.091 274.699V274.771C102.091 275.002 102.162 275.179 102.303 275.302C102.447 275.425 102.661 275.487 102.946 275.487C103.198 275.487 103.414 275.443 103.594 275.356C103.774 275.269 103.92 275.152 104.031 275.005C104.142 274.858 104.217 274.695 104.256 274.515L104.368 275.01H104.229C104.187 275.202 104.107 275.38 103.99 275.545C103.876 275.71 103.716 275.844 103.509 275.946C103.302 276.045 103.038 276.095 102.717 276.095ZM110.359 276V273.268C110.359 273.031 110.326 272.827 110.26 272.656C110.197 272.485 110.092 272.353 109.945 272.26C109.801 272.164 109.603 272.116 109.351 272.116C109.12 272.116 108.919 272.16 108.748 272.247C108.58 272.334 108.443 272.452 108.338 272.602C108.233 272.749 108.16 272.917 108.118 273.106L107.987 272.589H108.145C108.193 272.391 108.277 272.211 108.397 272.049C108.517 271.884 108.677 271.753 108.878 271.657C109.082 271.558 109.331 271.509 109.625 271.509C109.973 271.509 110.254 271.575 110.467 271.707C110.683 271.839 110.84 272.029 110.939 272.278C111.038 272.524 111.088 272.827 111.088 273.188V276H110.359ZM107.42 276V271.608H108.149L108.118 272.661L108.149 272.701V276H107.42ZM115.018 276.095C114.49 276.095 114.088 275.931 113.812 275.604C113.536 275.277 113.398 274.8 113.398 274.173V273.448C113.398 272.818 113.538 272.338 113.817 272.008C114.096 271.675 114.507 271.509 115.05 271.509C115.32 271.509 115.554 271.555 115.752 271.648C115.95 271.738 116.11 271.866 116.233 272.031C116.356 272.196 116.439 272.391 116.481 272.616H116.719L116.503 273.286C116.494 273.028 116.436 272.812 116.328 272.638C116.223 272.461 116.079 272.328 115.896 272.238C115.716 272.148 115.509 272.103 115.275 272.103C114.903 272.103 114.618 272.211 114.42 272.427C114.225 272.643 114.127 272.961 114.127 273.381V274.218C114.127 274.632 114.225 274.947 114.42 275.163C114.618 275.379 114.903 275.487 115.275 275.487C115.497 275.487 115.693 275.445 115.864 275.361C116.035 275.274 116.176 275.155 116.287 275.005C116.401 274.852 116.479 274.68 116.521 274.488L116.701 275.01H116.485C116.443 275.208 116.362 275.389 116.242 275.554C116.125 275.719 115.966 275.851 115.765 275.95C115.567 276.047 115.318 276.095 115.018 276.095ZM116.485 276L116.517 274.938L116.503 274.704V272.868L116.508 272.715L116.49 271.468V270.037H117.214V276H116.485ZM125.705 276.108C124.979 276.108 124.427 275.908 124.049 275.509C123.671 275.107 123.482 274.533 123.482 273.786V272.458C123.482 271.714 123.671 271.143 124.049 270.744C124.427 270.342 124.979 270.141 125.705 270.141C126.431 270.141 126.983 270.342 127.361 270.744C127.739 271.143 127.928 271.714 127.928 272.458V273.786C127.928 274.533 127.739 275.107 127.361 275.509C126.983 275.908 126.431 276.108 125.705 276.108ZM125.705 275.482C126.191 275.482 126.557 275.338 126.803 275.05C127.049 274.759 127.172 274.348 127.172 273.817V272.427C127.172 271.896 127.049 271.486 126.803 271.198C126.557 270.91 126.191 270.766 125.705 270.766C125.222 270.766 124.858 270.91 124.612 271.198C124.366 271.486 124.243 271.896 124.243 272.427V273.817C124.243 274.348 124.366 274.759 124.612 275.05C124.858 275.338 125.222 275.482 125.705 275.482ZM133.284 276V273.268C133.284 273.031 133.251 272.827 133.185 272.656C133.122 272.485 133.017 272.353 132.87 272.26C132.726 272.164 132.528 272.116 132.276 272.116C132.045 272.116 131.844 272.16 131.673 272.247C131.505 272.334 131.369 272.452 131.264 272.602C131.159 272.749 131.085 272.917 131.043 273.106L130.913 272.589H131.07C131.118 272.391 131.202 272.211 131.322 272.049C131.442 271.884 131.603 271.753 131.804 271.657C132.008 271.558 132.257 271.509 132.551 271.509C132.899 271.509 133.179 271.575 133.392 271.707C133.608 271.839 133.766 272.029 133.865 272.278C133.964 272.524 134.013 272.827 134.013 273.188V276H133.284ZM130.346 276V271.608H131.075L131.043 272.661L131.075 272.701V276H130.346ZM143.787 276L143.625 274.821C143.595 274.599 143.544 274.407 143.472 274.245C143.4 274.08 143.289 273.951 143.139 273.858C142.992 273.765 142.782 273.718 142.509 273.718L140.948 273.714V273.124L142.617 273.12C143.01 273.12 143.291 273.024 143.459 272.832C143.627 272.637 143.711 272.373 143.711 272.04V271.905C143.711 271.575 143.625 271.32 143.454 271.14C143.283 270.957 142.998 270.865 142.599 270.865H140.925V270.249H142.698C143.316 270.249 143.765 270.385 144.044 270.658C144.326 270.928 144.467 271.302 144.467 271.779V271.932C144.467 272.307 144.378 272.614 144.201 272.854C144.024 273.091 143.73 273.235 143.319 273.286V273.376L143 273.264C143.333 273.288 143.589 273.361 143.769 273.484C143.952 273.604 144.086 273.769 144.17 273.979C144.254 274.189 144.318 274.441 144.363 274.735L144.557 276H143.787ZM140.435 276V270.249H141.168V273.322L141.173 273.606V276H140.435ZM148.607 276.099C147.938 276.099 147.434 275.935 147.095 275.608C146.756 275.281 146.586 274.813 146.586 274.204V273.421C146.586 272.803 146.744 272.328 147.059 271.995C147.374 271.659 147.834 271.491 148.44 271.491C148.848 271.491 149.189 271.567 149.462 271.72C149.735 271.87 149.94 272.085 150.078 272.364C150.216 272.643 150.285 272.976 150.285 273.363V273.525C150.285 273.621 150.281 273.717 150.272 273.813C150.266 273.909 150.257 274.003 150.245 274.096H149.574C149.58 273.952 149.583 273.816 149.583 273.687C149.586 273.558 149.588 273.439 149.588 273.331C149.588 273.064 149.544 272.839 149.457 272.656C149.373 272.47 149.246 272.329 149.075 272.233C148.907 272.134 148.695 272.085 148.44 272.085C148.062 272.085 147.779 272.194 147.59 272.413C147.401 272.632 147.306 272.946 147.306 273.354V273.772L147.311 273.862V274.281C147.311 274.464 147.338 274.629 147.392 274.776C147.446 274.923 147.53 275.05 147.644 275.158C147.761 275.263 147.908 275.344 148.085 275.401C148.265 275.455 148.478 275.482 148.724 275.482C149.009 275.482 149.274 275.445 149.52 275.37C149.766 275.295 149.997 275.193 150.213 275.064L150.146 275.694C149.951 275.817 149.724 275.916 149.466 275.991C149.208 276.063 148.922 276.099 148.607 276.099ZM146.969 274.096V273.547H150.092V274.096H146.969ZM154.061 276.095C153.533 276.095 153.131 275.931 152.855 275.604C152.579 275.277 152.441 274.8 152.441 274.173V273.448C152.441 272.818 152.58 272.338 152.859 272.008C153.141 271.675 153.552 271.509 154.092 271.509C154.362 271.509 154.596 271.555 154.794 271.648C154.995 271.738 155.157 271.866 155.28 272.031C155.406 272.196 155.489 272.391 155.528 272.616H155.771L155.546 273.286C155.537 273.022 155.477 272.803 155.366 272.629C155.255 272.452 155.108 272.32 154.925 272.233C154.745 272.146 154.538 272.103 154.304 272.103C153.938 272.103 153.657 272.211 153.462 272.427C153.267 272.643 153.17 272.964 153.17 273.39V274.218C153.17 274.632 153.267 274.947 153.462 275.163C153.66 275.379 153.944 275.487 154.313 275.487C154.538 275.487 154.736 275.445 154.907 275.361C155.078 275.274 155.219 275.155 155.33 275.005C155.444 274.852 155.522 274.68 155.564 274.488L155.73 275.01H155.523C155.478 275.208 155.397 275.389 155.28 275.554C155.163 275.719 155.004 275.851 154.803 275.95C154.605 276.047 154.358 276.095 154.061 276.095ZM155.532 277.548V276.122L155.555 274.87L155.546 274.726V272.89L155.559 272.665L155.528 271.608H156.257V277.548H155.532ZM159.466 271.608V274.339C159.466 274.57 159.498 274.773 159.561 274.947C159.627 275.118 159.733 275.251 159.88 275.347C160.027 275.44 160.225 275.487 160.474 275.487C160.708 275.487 160.909 275.445 161.077 275.361C161.245 275.274 161.382 275.155 161.487 275.005C161.595 274.855 161.668 274.686 161.707 274.497L161.838 275.014H161.68C161.635 275.212 161.553 275.394 161.433 275.559C161.313 275.721 161.151 275.851 160.947 275.95C160.746 276.047 160.497 276.095 160.2 276.095C159.855 276.095 159.574 276.03 159.358 275.901C159.145 275.769 158.989 275.578 158.89 275.329C158.791 275.077 158.742 274.774 158.742 274.42V271.608H159.466ZM162.405 271.608V276H161.676L161.707 274.947L161.676 274.902V271.608H162.405ZM166.79 276.099C166.121 276.099 165.617 275.935 165.278 275.608C164.939 275.281 164.769 274.813 164.769 274.204V273.421C164.769 272.803 164.927 272.328 165.242 271.995C165.557 271.659 166.017 271.491 166.623 271.491C167.031 271.491 167.372 271.567 167.645 271.72C167.918 271.87 168.123 272.085 168.261 272.364C168.399 272.643 168.468 272.976 168.468 273.363V273.525C168.468 273.621 168.464 273.717 168.455 273.813C168.449 273.909 168.44 274.003 168.428 274.096H167.757C167.763 273.952 167.766 273.816 167.766 273.687C167.769 273.558 167.771 273.439 167.771 273.331C167.771 273.064 167.727 272.839 167.64 272.656C167.556 272.47 167.429 272.329 167.258 272.233C167.09 272.134 166.878 272.085 166.623 272.085C166.245 272.085 165.962 272.194 165.773 272.413C165.584 272.632 165.489 272.946 165.489 273.354V273.772L165.494 273.862V274.281C165.494 274.464 165.521 274.629 165.575 274.776C165.629 274.923 165.713 275.05 165.827 275.158C165.944 275.263 166.091 275.344 166.268 275.401C166.448 275.455 166.661 275.482 166.907 275.482C167.192 275.482 167.457 275.445 167.703 275.37C167.949 275.295 168.18 275.193 168.396 275.064L168.329 275.694C168.134 275.817 167.907 275.916 167.649 275.991C167.391 276.063 167.105 276.099 166.79 276.099ZM165.152 274.096V273.547H168.275V274.096H165.152ZM172.176 276.099C171.822 276.099 171.513 276.062 171.249 275.986C170.985 275.908 170.766 275.824 170.592 275.734L170.525 275.059C170.744 275.173 170.984 275.272 171.245 275.356C171.509 275.44 171.807 275.482 172.14 275.482C172.479 275.482 172.734 275.428 172.905 275.32C173.076 275.212 173.162 275.052 173.162 274.839V274.789C173.162 274.651 173.129 274.537 173.063 274.447C173 274.357 172.884 274.278 172.716 274.209C172.548 274.14 172.31 274.071 172.001 274.002C171.632 273.921 171.341 273.826 171.128 273.718C170.915 273.607 170.762 273.471 170.669 273.309C170.579 273.147 170.534 272.949 170.534 272.715V272.674C170.534 272.29 170.667 271.999 170.934 271.801C171.201 271.603 171.603 271.504 172.14 271.504C172.485 271.504 172.784 271.543 173.036 271.621C173.291 271.699 173.499 271.786 173.661 271.882L173.729 272.499C173.534 272.385 173.31 272.29 173.058 272.215C172.806 272.14 172.523 272.103 172.208 272.103C171.98 272.103 171.795 272.127 171.654 272.175C171.513 272.22 171.411 272.286 171.348 272.373C171.285 272.457 171.254 272.559 171.254 272.679V272.715C171.254 272.847 171.285 272.959 171.348 273.052C171.411 273.142 171.524 273.222 171.686 273.291C171.851 273.357 172.079 273.421 172.37 273.484C172.745 273.559 173.042 273.649 173.261 273.754C173.483 273.859 173.642 273.993 173.738 274.155C173.834 274.314 173.882 274.519 173.882 274.771V274.848C173.882 275.262 173.738 275.574 173.45 275.784C173.162 275.994 172.737 276.099 172.176 276.099ZM177.697 276.09C177.358 276.09 177.085 276.039 176.878 275.937C176.671 275.835 176.521 275.68 176.428 275.473C176.335 275.266 176.289 275.008 176.289 274.699V271.927H177.009V274.614C177.009 274.902 177.075 275.115 177.207 275.253C177.339 275.388 177.561 275.455 177.873 275.455C178.05 275.455 178.219 275.436 178.381 275.397C178.546 275.358 178.701 275.302 178.845 275.23L178.777 275.856C178.636 275.928 178.471 275.985 178.282 276.027C178.093 276.069 177.898 276.09 177.697 276.09ZM175.569 272.256V271.671H178.8L178.732 272.256H175.569ZM176.293 271.743L176.289 270.51L177.022 270.415L176.991 271.743H176.293ZM181.574 273.025L181.07 272.674L181.853 271.797V271.792L180.768 271.558L180.912 270.973L181.997 271.374H182.001L181.916 270.249H182.564L182.483 271.374H182.487L183.567 270.973L183.716 271.558L182.627 271.792V271.797L183.405 272.674L182.906 273.025L182.244 272.071H182.235L181.574 273.025Z" fill="white"/>
</g>
<defs>
<clipPath id="clip0_5_5">
<rect width="420" height="280" fill="white"/>
</clipPath>
</defs>
</svg>
