<svg width="37" height="42" viewBox="0 0 37 42" fill="none" xmlns="http://www.w3.org/2000/svg">
<g clip-path="url(#clip0_72_61)">
<path d="M19.8306 7.92869L26.2683 11.6445C26.4998 11.7743 26.5055 12.1414 26.2683 12.2656L18.6165 16.6816C18.385 16.8172 18.1139 16.8059 17.8937 16.6816L10.2476 12.2656C10.0161 12.1358 10.0048 11.7687 10.2476 11.6445L16.6796 7.92869V0.655273L0.257935 10.1367V29.0995L6.56005 25.4628V18.0313C6.55441 17.7659 6.87064 17.5795 7.10217 17.7207L14.7539 22.1367C14.9855 22.2722 15.1153 22.5151 15.1153 22.7635V31.5955C15.121 31.861 14.8104 32.0473 14.5789 31.9061L8.14123 28.1904L1.83346 31.8327L18.2551 41.3141L34.6768 31.8327L28.3803 28.196L21.9426 31.9118C21.7168 32.0473 21.3949 31.8722 21.4062 31.6012V22.7692C21.4062 22.5038 21.553 22.2666 21.7676 22.1424L29.4137 17.7263C29.6396 17.5852 29.9615 17.7659 29.9558 18.0369V25.4685L36.2579 29.1052V10.1367L19.8306 0.655273V7.92869Z" fill="white"/>
</g>
<defs>
<clipPath id="clip0_72_61">
<rect width="36" height="40.6589" fill="white" transform="translate(0.257935 0.655273)"/>
</clipPath>
</defs>
</svg>
