<svg width="111" height="58" viewBox="0 0 111 58" fill="none" xmlns="http://www.w3.org/2000/svg">
<path d="M79.5775 51.7126L98.768 32.2709L79.5775 12.8293L85.4283 6.90366L110.47 32.2709L85.4283 57.6382L79.5775 51.7126Z" fill="#0B4047"/>
<path d="M31.3614 51.7126L12.1513 32.271L31.3418 12.8293L25.4911 6.90372L0.46936 32.271L25.5106 57.6383L31.3614 51.7126Z" fill="#0B4047"/>
<path d="M79.5775 47.9476L98.768 28.5059L79.5775 9.064L85.4283 3.13837L110.47 28.5059L85.4283 53.8732L79.5775 47.9476Z" fill="#0F787E"/>
<path d="M31.3614 47.9473L12.1513 28.5056L31.3418 9.064L25.4911 3.13837L0.46936 28.5056L25.5106 53.8729L31.3614 47.9473Z" fill="#0F787E"/>
<path d="M68.3277 2.4613L76.3853 5.55434L56.872 56.3883L48.8144 53.2952L68.3277 2.4613Z" fill="#0B4047"/>
<path d="M66.8861 0.227051L74.9437 3.32009L55.4304 54.154L47.3728 51.061L66.8861 0.227051Z" fill="#0F787E"/>
</svg>
