<svg width="62" height="62" viewBox="0 0 62 62" fill="none" xmlns="http://www.w3.org/2000/svg">
<path fill-rule="evenodd" clip-rule="evenodd" d="M31.4518 0.87207C48.2965 0.87207 61.9516 14.5271 61.9518 31.3716C61.9518 48.2162 48.2966 61.8721 31.4518 61.8721C14.607 61.872 0.951782 48.2162 0.951782 31.3716C0.951971 14.5272 14.6071 0.872131 31.4518 0.87207ZM35.37 48.7128V52.5662H50.7872V48.7128H35.37ZM41.1511 39.4643L38.0681 36.3808L35.37 39.0784L43.0791 46.7861L50.7872 39.0784L48.0892 36.3808L45.0061 39.4643V31.4202H41.1511V39.4643ZM19.9528 10.177C18.8932 10.1771 17.986 10.5542 17.2314 11.3085C16.4767 12.0631 16.0988 12.9707 16.0987 14.0304V41.0051C16.0987 42.0648 16.4766 42.9723 17.2314 43.7269C17.9861 44.4814 18.8931 44.8593 19.9528 44.8594H31.516V41.0051H19.9528V14.0304H31.516V23.6648H41.1511V27.5658H45.0061V21.7381L33.443 10.177H19.9528Z" fill="#EAE7C7"/>
</svg>
