<svg width="62" height="62" viewBox="0 0 62 62" fill="none" xmlns="http://www.w3.org/2000/svg">
<path fill-rule="evenodd" clip-rule="evenodd" d="M31.189 0.87207C14.3377 0.87207 0.688965 14.866 0.688965 32.1435C0.688965 45.9812 9.41959 57.6689 21.5433 61.8123C23.0683 62.086 23.6402 61.1478 23.6402 60.3269C23.6402 59.5842 23.6021 57.1216 23.6021 54.5026C15.939 55.9489 13.9565 52.5872 13.3465 50.8282C13.0033 49.9292 11.5165 47.1538 10.2202 46.4111C9.15271 45.8248 7.62771 44.3785 10.1821 44.3394C12.584 44.3003 14.2996 46.6066 14.8715 47.5447C17.6165 52.2745 22.0008 50.9455 23.7546 50.1246C24.0215 48.092 24.8221 46.7239 25.699 45.9421C18.9127 45.1603 11.8215 42.4631 11.8215 30.5018C11.8215 27.101 13.0033 24.2866 14.9477 22.0976C14.6427 21.3158 13.5752 18.1105 15.2527 13.8106C15.2527 13.8106 17.8071 12.9898 23.6402 17.016C26.0802 16.3124 28.6727 15.9606 31.2652 15.9606C33.8577 15.9606 36.4502 16.3124 38.8902 17.016C44.7233 12.9507 47.2777 13.8106 47.2777 13.8106C48.9552 18.1105 47.8877 21.3158 47.5827 22.0976C49.5271 24.2866 50.709 27.0619 50.709 30.5018C50.709 42.5022 43.5796 45.1603 36.7933 45.9421C37.899 46.9193 38.8521 48.7956 38.8521 51.7273C38.8521 55.9098 38.814 59.2715 38.814 60.3269C38.814 61.1478 39.3858 62.125 40.9108 61.8123C52.9583 57.6689 61.689 45.9421 61.689 32.1435C61.689 14.866 48.0402 0.87207 31.189 0.87207Z" fill="#EAE7C7"/>
</svg>
