<svg width="62" height="62" viewBox="0 0 62 62" fill="none" xmlns="http://www.w3.org/2000/svg">
<path d="M30.6987 0.0117188C47.5434 0.0117188 61.1987 13.667 61.1987 30.5117C61.1987 47.3564 47.5434 61.0117 30.6987 61.0117C13.854 61.0117 0.19873 47.3564 0.19873 30.5117C0.19873 13.667 13.854 0.0117188 30.6987 0.0117188ZM30.7114 9.5127C25.0069 9.5127 24.292 9.53729 22.0513 9.63574C19.8189 9.73422 18.2842 10.0955 16.9546 10.6123C15.5675 11.1538 14.3935 11.8678 13.228 13.041C12.0545 14.2059 11.34 15.3787 10.7983 16.7568C10.2812 18.0942 9.92027 19.6209 9.82178 21.8525C9.7233 24.1002 9.69873 24.8142 9.69873 30.5156C9.69873 36.2177 9.72328 36.9321 9.82178 39.1719C9.92029 41.4033 10.2813 42.9375 10.7983 44.2666C11.34 45.6531 12.0544 46.8262 13.228 47.9912C14.3936 49.1562 15.5678 49.8788 16.9468 50.4121C18.2845 50.9289 19.8112 51.2893 22.0435 51.3877C24.2842 51.4861 24.9983 51.5107 30.7026 51.5107C36.4068 51.5107 37.1213 51.4861 39.3618 51.3877C41.5944 51.2892 43.1298 50.929 44.4595 50.4121C45.8384 49.8788 47.0117 49.1562 48.1772 47.9912C49.3428 46.8262 50.0656 45.6528 50.5991 44.2744C51.1161 42.9372 51.4772 41.4111 51.5757 39.1797C51.6742 36.94 51.6987 36.2261 51.6987 30.5244C51.6987 24.8224 51.6742 24.108 51.5757 21.8682C51.4772 19.6368 51.1162 18.1025 50.5991 16.7734C50.082 15.3788 49.3675 14.206 48.1938 13.041C47.0284 11.8761 45.8549 11.1534 44.4761 10.6201C43.1382 10.1032 41.611 9.74201 39.3784 9.64355C37.1297 9.53691 36.4154 9.5127 30.7114 9.5127ZM30.7114 13.2949C36.3251 13.2949 36.9901 13.3195 39.1978 13.418C41.2497 13.5082 42.3585 13.8525 43.0972 14.1396C44.0738 14.517 44.7798 14.9769 45.5103 15.707C46.2489 16.4454 46.7001 17.1429 47.0776 18.1191C47.3649 18.8575 47.71 19.9737 47.8003 22.0166C47.8988 24.2315 47.9233 24.8967 47.9233 30.5C47.9233 36.1114 47.8988 36.7765 47.8003 38.9834C47.71 41.0341 47.3649 42.1415 47.0776 42.8799C46.7001 43.8561 46.2406 44.5619 45.5103 45.292C44.7716 46.0303 44.0738 46.482 43.0972 46.8594C42.3585 47.1465 41.2415 47.4908 39.1978 47.5811C36.9819 47.6795 36.3168 47.7041 30.7114 47.7041C25.0973 47.7041 24.432 47.6795 22.2241 47.5811C20.1725 47.4908 19.0644 47.1465 18.3257 46.8594C17.349 46.482 16.643 46.0221 15.9126 45.292C15.1739 44.5536 14.7218 43.8562 14.3442 42.8799C14.057 42.1415 13.7129 41.0258 13.6226 38.9834C13.5241 36.7683 13.4985 36.1032 13.4985 30.5C13.4985 24.8885 13.5241 24.2233 13.6226 22.0166C13.7128 19.9656 14.057 18.8575 14.3442 18.1191C14.7218 17.1428 15.1821 16.4372 15.9126 15.707C16.6512 14.9688 17.349 14.517 18.3257 14.1396C19.0644 13.8525 20.1808 13.5082 22.2241 13.418C24.432 13.3195 25.0973 13.2949 30.7114 13.2949ZM30.7114 19.7275C24.7526 19.7275 19.9177 24.5594 19.9175 30.5156C19.9175 36.472 24.7525 41.3047 30.7114 41.3047C36.6702 41.3045 41.5044 36.4719 41.5044 30.5156C41.5042 24.5595 36.6701 19.7277 30.7114 19.7275ZM30.7114 23.5176C34.5771 23.5178 37.7122 26.6516 37.7124 30.5156C37.7124 34.3798 34.5772 37.5144 30.7114 37.5146C26.8455 37.5146 23.7095 34.3799 23.7095 30.5156C23.7097 26.6515 26.8456 23.5176 30.7114 23.5176ZM41.9312 16.7812C40.5441 16.7813 39.4116 17.9061 39.4116 19.3008C39.4118 20.6871 40.536 21.8193 41.9312 21.8193C43.3182 21.8193 44.4505 20.6954 44.4507 19.3008C44.4507 17.9142 43.3183 16.7812 41.9312 16.7812Z" fill="#EAE7C7"/>
</svg>
