<svg width="62" height="62" viewBox="0 0 62 62" fill="none" xmlns="http://www.w3.org/2000/svg">
<path fill-rule="evenodd" clip-rule="evenodd" d="M31.4359 0.0117188C48.2806 0.0117188 61.9359 13.667 61.9359 30.5117C61.9359 47.3564 48.2806 61.0117 31.4359 61.0117C14.5912 61.0117 0.935913 47.3564 0.935913 30.5117C0.935913 13.667 14.5912 0.0117188 31.4359 0.0117188ZM14.1703 24.3701V47.792H21.4506V24.3701H14.1703ZM39.9886 23.7881C38.6056 23.7368 37.234 24.0613 36.0209 24.7275C34.808 25.3937 33.7986 26.3768 33.1 27.5713H33.0023V24.3701H26.0199V47.792H33.2933V36.2051C33.2934 33.1498 33.8727 30.1904 37.6605 30.1904C41.3946 30.1904 41.4427 33.6874 41.4427 36.4033V47.792H48.7162L48.7191 34.9443C48.7191 28.6368 47.3598 23.7881 39.9886 23.7881ZM19.4281 13.0488C18.6569 12.7295 17.8082 12.6466 16.9896 12.8096C16.1709 12.9726 15.4186 13.3745 14.8285 13.9648C14.2384 14.5552 13.8369 15.3074 13.6742 16.126C13.5115 16.9447 13.5948 17.7933 13.9144 18.5645C14.2339 19.3355 14.7751 19.9944 15.4691 20.458C16.1631 20.9216 16.9793 21.169 17.8138 21.1689C18.368 21.1689 18.9171 21.0598 19.4291 20.8477C19.9409 20.6355 20.4065 20.3245 20.7982 19.9326C21.19 19.5406 21.5013 19.0746 21.7133 18.5625C21.9252 18.0506 22.0336 17.5014 22.0336 16.9473C22.0333 16.1129 21.7862 15.2972 21.3226 14.6035C20.8588 13.9096 20.1994 13.3681 19.4281 13.0488Z" fill="#EAE7C7"/>
</svg>
