<svg width="62" height="62" viewBox="0 0 62 62" fill="none" xmlns="http://www.w3.org/2000/svg">
<path d="M30.901 0.87207C47.7457 0.87207 61.401 14.5274 61.401 31.3721C61.401 48.2168 47.7457 61.8721 30.901 61.8721C14.0563 61.8721 0.401001 48.2168 0.401001 31.3721C0.401001 14.5274 14.0563 0.87207 30.901 0.87207ZM13.651 14.4404C12.0199 14.4404 10.4557 15.0888 9.30237 16.2422C8.14902 17.3955 7.50061 18.9597 7.50061 20.5908V42.1533C7.50061 43.7844 8.14902 45.3486 9.30237 46.502C10.4557 47.6553 12.0199 48.3037 13.651 48.3037H48.151C49.7821 48.3037 51.3463 47.6553 52.4996 46.502C53.653 45.3486 54.3014 43.7844 54.3014 42.1533V20.5908C54.3014 18.9597 53.653 17.3955 52.4996 16.2422C51.3463 15.0888 49.7821 14.4404 48.151 14.4404H13.651ZM48.151 18.1162C48.8074 18.1162 49.4368 18.3767 49.901 18.8408C50.3652 19.305 50.6256 19.9344 50.6256 20.5908V42.1533C50.6256 42.8097 50.3652 43.4392 49.901 43.9033C49.4368 44.3675 48.8074 44.6279 48.151 44.6279H13.651C12.9946 44.6279 12.3652 44.3675 11.901 43.9033C11.4368 43.4392 11.1764 42.8097 11.1764 42.1533V20.5908C11.1764 19.9344 11.4368 19.305 11.901 18.8408C12.3652 18.3767 12.9946 18.1162 13.651 18.1162H48.151ZM20.8893 33.127C20.4039 33.127 19.9377 33.3189 19.5934 33.6611L13.8434 39.4111C13.4975 39.7546 13.3022 40.2215 13.3004 40.709C13.2987 41.1965 13.4911 41.6648 13.8346 42.0107C14.1781 42.3567 14.6449 42.552 15.1324 42.5537C15.6199 42.5554 16.0883 42.363 16.4342 42.0195L22.1832 36.2695L22.1842 36.2705C22.3564 36.0997 22.4933 35.8958 22.5865 35.6719C22.6797 35.4482 22.7271 35.2081 22.7272 34.9658C22.7272 34.7233 22.6798 34.4827 22.5865 34.2588C22.5166 34.0908 22.4218 33.9347 22.3063 33.7949L22.1842 33.6611C21.84 33.319 21.3745 33.1271 20.8893 33.127ZM40.9567 33.127C40.4712 33.127 40.005 33.3189 39.6608 33.6611C39.4888 33.8318 39.3526 34.0351 39.2594 34.2588C39.1661 34.4827 39.1178 34.7233 39.1178 34.9658C39.1178 35.2082 39.1662 35.4481 39.2594 35.6719C39.3523 35.8949 39.4885 36.0972 39.6598 36.2676L45.4108 42.0195C45.5821 42.1896 45.786 42.3244 46.0094 42.416C46.2326 42.5075 46.4713 42.5545 46.7125 42.5537C46.9539 42.5529 47.193 42.5043 47.4156 42.4111C47.6383 42.318 47.8412 42.1821 48.0114 42.0107C48.1813 41.8395 48.3153 41.6362 48.4069 41.4131C48.4985 41.1897 48.5454 40.9504 48.5446 40.709C48.5437 40.4676 48.4951 40.2285 48.402 40.0059C48.3322 39.8391 48.2384 39.6838 48.1237 39.5449L48.0016 39.4111L42.2516 33.6611C41.9074 33.3191 41.4419 33.127 40.9567 33.127ZM14.8932 21.5742C14.6429 21.5905 14.3987 21.6582 14.1754 21.7725C13.952 21.8868 13.754 22.0457 13.5944 22.2393C13.4348 22.4328 13.3163 22.6575 13.2467 22.8984C13.1772 23.1393 13.1583 23.3919 13.1901 23.6406C13.2218 23.8895 13.3043 24.1299 13.4323 24.3457C13.5562 24.5547 13.7209 24.7359 13.9156 24.8809L29.7281 37.8193C30.0584 38.0923 30.4734 38.2411 30.902 38.2402H30.9039C31.3261 38.2368 31.7338 38.0872 32.0592 37.8184L32.0602 37.8193L47.8727 24.8818L47.8737 24.8799C48.2466 24.5715 48.4836 24.129 48.5319 23.6475C48.58 23.1658 48.4361 22.6838 48.1315 22.3076L48.1305 22.3066L48.0094 22.1719C47.8819 22.0438 47.7356 21.9354 47.5758 21.8496C47.3627 21.7352 47.129 21.6635 46.8883 21.6396C46.6478 21.6158 46.4048 21.6398 46.1735 21.71C45.9424 21.7801 45.7272 21.8956 45.5406 22.0488L30.901 34.0312L16.2477 22.0488C16.0687 21.8863 15.8593 21.7592 15.6315 21.6777C15.3952 21.5932 15.1436 21.558 14.8932 21.5742Z" fill="#EAE7C7"/>
</svg>
