<svg width="68" height="68" viewBox="0 0 68 68" fill="none" xmlns="http://www.w3.org/2000/svg">
<path fill-rule="evenodd" clip-rule="evenodd" d="M32.5392 1.51657C33.6205 0.909841 34.9518 0.909841 36.0315 1.51657C41.3742 4.51519 57.4518 13.5413 62.7961 16.5399C63.8774 17.145 64.543 18.2661 64.543 19.4796C64.543 25.4768 64.543 43.5274 64.543 49.5247C64.543 50.7381 63.8774 51.8592 62.7961 52.466C57.4534 55.4646 41.3758 64.4907 36.0315 67.4893C34.9502 68.096 33.6189 68.096 32.5392 67.4893C27.1965 64.4907 11.119 55.4646 5.77464 52.466C4.69495 51.8592 4.0293 50.7397 4.0293 49.5263C4.0293 43.529 4.0293 25.4784 4.0293 19.4812C4.0293 18.2677 4.69495 17.1466 5.77623 16.5399C11.1174 13.5413 27.1981 4.51519 32.5392 1.51657Z" fill="#EAE7C7"/>
<path fill-rule="evenodd" clip-rule="evenodd" d="M4.51341 51.0708C4.08981 50.5039 4.0293 49.9657 4.0293 49.2411C4.0293 43.2789 4.0293 25.3318 4.0293 19.368C4.0293 18.1609 4.69336 17.0462 5.77146 16.4442C11.0951 13.4631 27.1185 4.48958 32.4421 1.50689C33.5202 0.903341 34.9805 0.916081 36.0586 1.51963C41.3822 4.50072 57.3515 13.3978 62.6751 16.3789C63.105 16.621 63.4331 16.9124 63.7261 17.2962L4.51341 51.0708Z" fill="#EAE7C7"/>
<path fill-rule="evenodd" clip-rule="evenodd" d="M34.2862 12.208C46.5912 12.208 56.5808 22.1976 56.5808 34.5025C56.5808 46.8075 46.5912 56.7971 34.2862 56.7971C21.9812 56.7971 11.9917 46.8075 11.9917 34.5025C11.9917 22.1976 21.9812 12.208 34.2862 12.208ZM34.2862 23.3553C40.4379 23.3553 45.4335 28.3493 45.4335 34.5025C45.4335 40.6542 40.4379 45.6498 34.2862 45.6498C28.1345 45.6498 23.139 40.6542 23.139 34.5025C23.139 28.3493 28.1329 23.3553 34.2862 23.3553Z" fill="#08090A"/>
<path fill-rule="evenodd" clip-rule="evenodd" d="M63.7231 17.3125C64.5448 18.0817 64.5289 19.241 64.5289 20.1535C64.5289 26.1969 64.4779 43.386 64.5432 49.4294C64.5496 50.06 64.3409 50.7241 64.0288 51.2241L33.6382 34.5032L63.7231 17.3125Z" fill="#EAE7C7"/>
<path opacity="0.05" d="M34.2862 12.2087C42.4523 12.2087 49.577 16.6214 53.4611 23.176L43.79 28.7019C41.8297 25.501 38.3103 23.3559 34.2862 23.3559C28.1329 23.3559 23.1389 28.3499 23.1389 34.5032C23.1389 40.6549 28.1345 45.6505 34.2862 45.6505C38.3788 45.6505 41.9491 43.4338 43.8872 40.1421L53.6522 45.5151C49.8127 52.2465 42.5829 56.7978 34.2862 56.7978C21.9812 56.7978 11.9916 46.8082 11.9916 34.5032C11.9916 22.1982 21.9812 12.2087 34.2862 12.2087ZM34.2862 10.6162C21.1149 10.6162 10.3992 21.3319 10.3992 34.5032C10.3992 47.6745 21.1149 58.3902 34.2862 58.3902C42.8329 58.3902 50.7841 53.7593 55.036 46.3034L55.837 44.8988L54.4197 44.1185L44.6547 38.7455L43.2995 38.0003L42.5145 39.3332C40.7994 42.2474 37.6463 44.058 34.2862 44.058C29.0183 44.058 24.7314 39.7711 24.7314 34.5032C24.7314 29.2353 29.0183 24.9484 34.2862 24.9484C37.6288 24.9484 40.6736 26.6619 42.4316 29.5331L43.239 30.8517L44.5799 30.0857L54.2509 24.5599L55.6555 23.7572L54.8306 22.3654C50.5373 15.1181 42.6657 10.6162 34.2862 10.6162Z" fill="#08090A"/>
<path opacity="0.07" d="M34.2861 12.2083C42.4523 12.2083 49.577 16.6211 53.461 23.1757L43.7899 28.7015C41.8296 25.5007 38.3102 23.3556 34.2861 23.3556C28.1328 23.3556 23.1388 28.3496 23.1388 34.5029C23.1388 40.6546 28.1344 45.6502 34.2861 45.6502C38.3787 45.6502 41.949 43.4334 43.8871 40.1418L53.6521 45.5148C49.8126 52.2461 42.5828 56.7974 34.2861 56.7974C21.9811 56.7974 11.9915 46.8079 11.9915 34.5029C11.9915 22.1979 21.9811 12.2083 34.2861 12.2083ZM34.2861 11.4121C21.5543 11.4121 11.1953 21.7711 11.1953 34.5029C11.1953 47.2347 21.5543 57.5937 34.2861 57.5937C42.5478 57.5937 50.233 53.1156 54.3432 45.9097L54.7445 45.2074L54.0359 44.8173L44.2709 39.4443L43.5941 39.0717L43.2023 39.7373C41.3423 42.8936 37.9265 44.8539 34.2861 44.8539C28.5787 44.8539 23.935 40.2103 23.935 34.5029C23.935 28.7955 28.5787 24.1518 34.2861 24.1518C37.9089 24.1518 41.2069 26.0087 43.1115 29.1172L43.5144 29.7764L44.1849 29.3927L53.8559 23.8668L54.5582 23.4655L54.1457 22.7696C49.9942 15.7643 42.3854 11.4121 34.2861 11.4121Z" fill="#08090A"/>
</svg>
