<svg width="68" height="68" viewBox="0 0 68 68" fill="none" xmlns="http://www.w3.org/2000/svg">
<path fill-rule="evenodd" clip-rule="evenodd" d="M32.5378 1.51657C33.6191 0.909841 34.9504 0.909841 36.03 1.51657C41.3728 4.51519 57.4503 13.5413 62.7946 16.5399C63.8759 17.145 64.5416 18.2661 64.5416 19.4796C64.5416 25.4768 64.5416 43.5274 64.5416 49.5247C64.5416 50.7381 63.8759 51.8592 62.7946 52.466C57.4519 55.4646 41.3744 64.4907 36.03 67.4893C34.9488 68.096 33.6175 68.096 32.5378 67.4893C27.195 64.4907 11.1175 55.4646 5.77318 52.466C4.69348 51.8592 4.02783 50.7397 4.02783 49.5263C4.02783 43.529 4.02783 25.4784 4.02783 19.4812C4.02783 18.2677 4.69348 17.1466 5.77477 16.5399C11.1159 13.5413 27.1966 4.51519 32.5378 1.51657Z" fill="url(#paint0_linear_286_670)"/>
<path fill-rule="evenodd" clip-rule="evenodd" d="M4.51194 51.0708C4.08835 50.5039 4.02783 49.9657 4.02783 49.2411C4.02783 43.2789 4.02783 25.3318 4.02783 19.368C4.02783 18.1609 4.69189 17.0462 5.76999 16.4442C11.0936 13.4631 27.117 4.48958 32.4406 1.50689C33.5187 0.903341 34.979 0.916081 36.0571 1.51963C41.3807 4.50072 57.35 13.3978 62.6736 16.3789C63.1036 16.621 63.4316 16.9124 63.7246 17.2962L4.51194 51.0708Z" fill="url(#paint1_linear_286_670)"/>
<path fill-rule="evenodd" clip-rule="evenodd" d="M34.2848 12.208C46.5898 12.208 56.5793 22.1976 56.5793 34.5025C56.5793 46.8075 46.5898 56.7971 34.2848 56.7971C21.9798 56.7971 11.9902 46.8075 11.9902 34.5025C11.9902 22.1976 21.9798 12.208 34.2848 12.208ZM34.2848 23.3553C40.4365 23.3553 45.432 28.3493 45.432 34.5025C45.432 40.6542 40.4365 45.6498 34.2848 45.6498C28.1331 45.6498 23.1375 40.6542 23.1375 34.5025C23.1375 28.3493 28.1315 23.3553 34.2848 23.3553Z" fill="white"/>
<path fill-rule="evenodd" clip-rule="evenodd" d="M63.7216 17.3125C64.5433 18.0817 64.5274 19.241 64.5274 20.1535C64.5274 26.1969 64.4764 43.386 64.5417 49.4294C64.5481 50.06 64.3395 50.7241 64.0274 51.2241L33.6367 34.5032L63.7216 17.3125Z" fill="url(#paint2_linear_286_670)"/>
<path opacity="0.05" d="M34.2847 12.2087C42.4509 12.2087 49.5756 16.6214 53.4596 23.176L43.7886 28.7019C41.8282 25.501 38.3089 23.3559 34.2847 23.3559C28.1314 23.3559 23.1374 28.3499 23.1374 34.5032C23.1374 40.6549 28.133 45.6505 34.2847 45.6505C38.3773 45.6505 41.9477 43.4338 43.8857 40.1421L53.6507 45.5151C49.8113 52.2465 42.5815 56.7978 34.2847 56.7978C21.9797 56.7978 11.9902 46.8082 11.9902 34.5032C11.9902 22.1982 21.9797 12.2087 34.2847 12.2087ZM34.2847 10.6162C21.1134 10.6162 10.3977 21.3319 10.3977 34.5032C10.3977 47.6745 21.1134 58.3902 34.2847 58.3902C42.8315 58.3902 50.7827 53.7593 55.0345 46.3034L55.8356 44.8988L54.4183 44.1185L44.6533 38.7455L43.2981 38.0003L42.513 39.3332C40.7979 42.2474 37.6448 44.058 34.2847 44.058C29.0168 44.058 24.7299 39.7711 24.7299 34.5032C24.7299 29.2353 29.0168 24.9484 34.2847 24.9484C37.6273 24.9484 40.6721 26.6619 42.4302 29.5331L43.2376 30.8517L44.5784 30.0857L54.2495 24.5599L55.654 23.7572L54.8291 22.3654C50.5358 15.1181 42.6643 10.6162 34.2847 10.6162Z" fill="black"/>
<path opacity="0.07" d="M34.2846 12.2083C42.4508 12.2083 49.5755 16.6211 53.4595 23.1757L43.7885 28.7015C41.8281 25.5007 38.3088 23.3556 34.2846 23.3556C28.1313 23.3556 23.1374 28.3496 23.1374 34.5029C23.1374 40.6546 28.1329 45.6502 34.2846 45.6502C38.3773 45.6502 41.9476 43.4334 43.8856 40.1418L53.6506 45.5148C49.8112 52.2461 42.5814 56.7974 34.2846 56.7974C21.9796 56.7974 11.9901 46.8079 11.9901 34.5029C11.9901 22.1979 21.9796 12.2083 34.2846 12.2083ZM34.2846 11.4121C21.5528 11.4121 11.1938 21.7711 11.1938 34.5029C11.1938 47.2347 21.5528 57.5937 34.2846 57.5937C42.5463 57.5937 50.2316 53.1156 54.3417 45.9097L54.743 45.2074L54.0344 44.8173L44.2694 39.4443L43.5926 39.0717L43.2008 39.7373C41.3408 42.8936 37.925 44.8539 34.2846 44.8539C28.5772 44.8539 23.9336 40.2103 23.9336 34.5029C23.9336 28.7955 28.5772 24.1518 34.2846 24.1518C37.9075 24.1518 41.2055 26.0087 43.1101 29.1172L43.513 29.7764L44.1834 29.3927L53.8544 23.8668L54.5567 23.4655L54.1443 22.7696C49.9927 15.7643 42.3839 11.4121 34.2846 11.4121Z" fill="black"/>
<defs>
<linearGradient id="paint0_linear_286_670" x1="31.8642" y1="27.8512" x2="46.7585" y2="68.7728" gradientUnits="userSpaceOnUse">
<stop stop-color="#3940A4"/>
<stop offset="1" stop-color="#293091"/>
</linearGradient>
<linearGradient id="paint1_linear_286_670" x1="22.2297" y1="1.66932" x2="38.5637" y2="46.545" gradientUnits="userSpaceOnUse">
<stop stop-color="#7B83EB"/>
<stop offset="1" stop-color="#5961C3"/>
</linearGradient>
<linearGradient id="paint2_linear_286_670" x1="45.4815" y1="16.7711" x2="59.3407" y2="54.8501" gradientUnits="userSpaceOnUse">
<stop stop-color="#5C65D6"/>
<stop offset="0.999" stop-color="#464EB0"/>
</linearGradient>
</defs>
</svg>
