<svg width="68" height="68" viewBox="0 0 68 68" fill="none" xmlns="http://www.w3.org/2000/svg">
<path d="M64.3961 20.6423C64.3956 19.5158 64.1547 18.5203 63.6674 17.6659C63.1888 16.8258 62.472 16.1216 61.5106 15.5648C53.5745 10.9888 45.6307 6.42682 37.6971 1.84614C35.5582 0.611352 33.4845 0.656368 31.3615 1.90889C28.2027 3.7718 12.3876 12.8326 7.67486 15.5623C5.73404 16.6858 4.78963 18.4053 4.78916 20.6402C4.78613 29.8429 4.78916 39.0453 4.78613 48.2481C4.7866 49.35 5.01728 50.3261 5.48307 51.1676C5.96192 52.0332 6.6887 52.7567 7.67229 53.3261C12.3852 56.0557 28.2024 65.1158 31.3606 66.9792C33.4845 68.2324 35.5582 68.2772 37.6978 67.042C45.6316 62.4611 53.5759 57.8993 61.5132 53.3233C62.4968 52.7542 63.2235 52.0302 63.7024 51.1653C64.1675 50.3237 64.3986 49.3476 64.3991 48.2456C64.3991 48.2456 64.3991 29.8452 64.3961 20.6423Z" fill="#EAE7C7"/>
<path d="M34.6839 34.3545L5.48315 51.1677C5.962 52.0332 6.68879 52.7567 7.67238 53.3261C12.3853 56.0557 28.2025 65.1159 31.3607 66.9793C33.4846 68.2325 35.5584 68.2773 37.6979 67.042C45.6317 62.4611 53.576 57.8993 61.5133 53.3233C62.4969 52.7542 63.2237 52.0302 63.7025 51.1653L34.6839 34.3545Z" fill="#EAE7C7"/>
<path d="M26.0349 39.3347C27.7341 42.301 30.9284 44.3018 34.5926 44.3018C38.2795 44.3018 41.492 42.2756 43.1825 39.2775L34.6838 34.3545L26.0349 39.3347Z" fill="#EAE7C7"/>
<path d="M64.3961 20.6424C64.3956 19.5159 64.1547 18.5204 63.6674 17.666L34.6838 34.3546L63.7024 51.1655C64.1675 50.3239 64.3987 49.3478 64.3991 48.2457C64.3991 48.2457 64.3991 29.8453 64.3961 20.6424Z" fill="#EAE7C7"/>
<path d="M62.8002 35.5564H60.5326V37.8245H58.2646V35.5564H55.9972V33.2891H58.2646V31.0215H60.5326V33.2891H62.8002V35.5564ZM54.5259 35.5564H52.2586V37.8245H49.991V35.5564H47.7234V33.2891H49.991V31.0215H52.2586V33.2891H54.5259V35.5564Z" fill="#08090A"/>
<path d="M43.1826 39.2773C41.4921 42.2754 38.2796 44.3016 34.5927 44.3016C30.9285 44.3016 27.7342 42.3009 26.035 39.3345C25.1814 37.846 24.7331 36.1597 24.7349 34.4438C24.7349 28.9997 29.1486 24.5862 34.5927 24.5862C38.2334 24.5862 41.4109 26.562 43.1185 29.4981L51.7348 24.5365C48.3101 18.6247 41.9161 14.6475 34.5927 14.6475C23.6592 14.6475 14.7961 23.5107 14.7961 34.4438C14.7961 38.0306 15.7503 41.3942 17.418 44.2956C20.8341 50.2386 27.2462 54.2404 34.5927 54.2404C41.9528 54.2404 48.3749 50.2225 51.7861 44.262L43.1826 39.2773Z" fill="#08090A"/>
</svg>
