<svg width="68" height="68" viewBox="0 0 68 68" fill="none" xmlns="http://www.w3.org/2000/svg">
<path d="M64.3948 20.6423C64.3944 19.5158 64.1534 18.5203 63.6662 17.6659C63.1876 16.8258 62.4708 16.1216 61.5094 15.5648C53.5733 10.9888 45.6294 6.42682 37.6959 1.84614C35.557 0.611352 33.4833 0.656368 31.3603 1.90889C28.2014 3.7718 12.3863 12.8326 7.67364 15.5623C5.73282 16.6858 4.78841 18.4053 4.78794 20.6402C4.78491 29.8429 4.78794 39.0453 4.78491 48.2481C4.78538 49.35 5.01606 50.3261 5.48185 51.1676C5.9607 52.0332 6.68748 52.7567 7.67107 53.3261C12.384 56.0557 28.2012 65.1158 31.3593 66.9792C33.4833 68.2324 35.557 68.2772 37.6966 67.042C45.6304 62.4611 53.5747 57.8993 61.5119 53.3233C62.4955 52.7542 63.2223 52.0302 63.7012 51.1653C64.1663 50.3237 64.3974 49.3476 64.3979 48.2456C64.3979 48.2456 64.3979 29.8452 64.3948 20.6423Z" fill="#5C8DBC"/>
<path d="M34.6827 34.3545L5.48193 51.1677C5.96078 52.0332 6.68757 52.7567 7.67116 53.3261C12.3841 56.0557 28.2013 65.1159 31.3594 66.9793C33.4834 68.2325 35.5571 68.2773 37.6967 67.042C45.6305 62.4611 53.5748 57.8993 61.5121 53.3233C62.4957 52.7542 63.2225 52.0302 63.7013 51.1653L34.6827 34.3545Z" fill="#1A4674"/>
<path d="M26.0337 39.3347C27.7329 42.301 30.9272 44.3018 34.5914 44.3018C38.2783 44.3018 41.4908 42.2756 43.1813 39.2775L34.6826 34.3545L26.0337 39.3347Z" fill="#1A4674"/>
<path d="M64.3949 20.6424C64.3944 19.5159 64.1535 18.5204 63.6662 17.666L34.6826 34.3546L63.7012 51.1655C64.1663 50.3239 64.3974 49.3478 64.3979 48.2457C64.3979 48.2457 64.3979 29.8453 64.3949 20.6424Z" fill="#1B598E"/>
<path d="M62.799 35.5564H60.5314V37.8245H58.2634V35.5564H55.996V33.2891H58.2634V31.0215H60.5314V33.2891H62.799V35.5564ZM54.5247 35.5564H52.2574V37.8245H49.9898V35.5564H47.7222V33.2891H49.9898V31.0215H52.2574V33.2891H54.5247V35.5564Z" fill="white"/>
<path d="M43.1814 39.2773C41.4909 42.2754 38.2784 44.3016 34.5915 44.3016C30.9272 44.3016 27.733 42.3009 26.0338 39.3345C25.1802 37.846 24.7319 36.1597 24.7337 34.4438C24.7337 28.9997 29.1474 24.5862 34.5915 24.5862C38.2322 24.5862 41.4097 26.562 43.1173 29.4981L51.7336 24.5365C48.3088 18.6247 41.9149 14.6475 34.5915 14.6475C23.658 14.6475 14.7949 23.5107 14.7949 34.4438C14.7949 38.0306 15.7491 41.3942 17.4168 44.2956C20.8329 50.2386 27.245 54.2404 34.5915 54.2404C41.9515 54.2404 48.3737 50.2225 51.7849 44.262L43.1814 39.2773Z" fill="white"/>
</svg>
