<svg width="68" height="68" viewBox="0 0 68 68" fill="none" xmlns="http://www.w3.org/2000/svg">
<path d="M64.0895 20.6424C64.089 19.5158 63.8481 18.5203 63.3608 17.6659C62.8822 16.8258 62.1654 16.1216 61.204 15.5649C53.2679 10.9889 45.324 6.42683 37.3905 1.84615C35.2516 0.611351 33.1779 0.656367 31.0549 1.90889C27.896 3.77181 12.0809 12.8326 7.36822 15.5623C5.4274 16.6858 4.48299 18.4053 4.48252 20.6403C4.47949 29.8429 4.48252 39.0453 4.47949 48.2482C4.47949 49.3501 4.71064 50.3262 5.17643 51.1677C5.65528 52.0333 6.38206 52.7568 7.36566 53.3262C12.0786 56.0558 27.8958 65.116 31.0539 66.9793C33.1779 68.2326 35.2516 68.2774 37.3912 67.0421C45.325 62.4612 53.2693 57.8994 61.2066 53.3234C62.1902 52.7543 62.917 52.0303 63.3958 51.1654C63.8609 50.3238 64.0925 49.3477 64.0925 48.2456C64.0925 48.2456 64.0925 29.8452 64.0895 20.6424Z" fill="#EAE7C7"/>
<path d="M34.3773 34.3545L5.17651 51.1677C5.65536 52.0332 6.38215 52.7568 7.36574 53.3261C12.0787 56.0558 27.8959 65.1159 31.054 66.9793C33.1779 68.2325 35.2517 68.2773 37.3913 67.042C45.3251 62.4611 53.2694 57.8993 61.2067 53.3233C62.1903 52.7542 62.917 52.0302 63.3959 51.1653L34.3773 34.3545Z" fill="#EAE7C7"/>
<path d="M64.0895 20.6415C64.089 19.5149 63.8481 18.5194 63.3608 17.665L34.3772 34.3537L63.3958 51.1645C63.8609 50.323 64.092 49.3468 64.0925 48.2447C64.0925 48.2447 64.0925 29.8443 64.0895 20.6415Z" fill="#EAE7C7"/>
<path d="M51.5697 28.0693V31.212H54.7124V28.0693H56.2837V31.212H59.4263V32.7833H56.2837V35.926H59.4263V37.4973H56.2837V40.64H54.7124V37.4973H51.5697V40.64H49.9984V37.4973H46.8557V35.926H49.9984V32.7833H46.8557V31.212H49.9984V28.0693H51.5697ZM54.7124 32.7833H51.5697V35.926H54.7124V32.7833Z" fill="#08090A"/>
<path d="M34.4413 12.2852C42.6384 12.2852 49.7951 16.7369 53.6284 23.354L53.591 23.2903L43.9467 28.8435C42.0465 25.6262 38.563 23.455 34.5672 23.4103L34.4413 23.4096C28.3476 23.4096 23.4074 28.3496 23.4074 34.4432C23.4074 36.436 23.9387 38.3039 24.8626 39.9173C26.7645 43.2376 30.3399 45.4771 34.4413 45.4771C38.568 45.4771 42.1637 43.2092 44.056 39.8534L44.01 39.9339L53.6398 45.5127C49.8486 52.0737 42.7899 56.5117 34.6881 56.6002L34.4413 56.6015C26.2184 56.6015 19.0413 52.1224 15.2176 45.4703C13.351 42.2229 12.283 38.458 12.283 34.4432C12.283 22.2058 22.2034 12.2852 34.4413 12.2852Z" fill="#08090A"/>
</svg>
