<svg width="68" height="68" viewBox="0 0 68 68" fill="none" xmlns="http://www.w3.org/2000/svg">
<path d="M64.0883 20.6424C64.0878 19.5158 63.8468 18.5203 63.3596 17.6659C62.881 16.8258 62.1642 16.1216 61.2028 15.5649C53.2667 10.9889 45.3228 6.42683 37.3893 1.84615C35.2504 0.611351 33.1766 0.656367 31.0536 1.90889C27.8948 3.77181 12.0797 12.8326 7.367 15.5623C5.42618 16.6858 4.48177 18.4053 4.4813 20.6403C4.47827 29.8429 4.4813 39.0453 4.47827 48.2482C4.47827 49.3501 4.70942 50.3262 5.17521 51.1677C5.65406 52.0333 6.38084 52.7568 7.36443 53.3262C12.0774 56.0558 27.8946 65.116 31.0527 66.9793C33.1766 68.2326 35.2504 68.2774 37.39 67.0421C45.3238 62.4612 53.2681 57.8994 61.2054 53.3234C62.1889 52.7543 62.9157 52.0303 63.3946 51.1654C63.8597 50.3238 64.0913 49.3477 64.0913 48.2456C64.0913 48.2456 64.0913 29.8452 64.0883 20.6424Z" fill="#A179DC"/>
<path d="M34.3761 34.3545L5.17529 51.1677C5.65414 52.0332 6.38093 52.7568 7.36452 53.3261C12.0775 56.0558 27.8947 65.1159 31.0528 66.9793C33.1767 68.2325 35.2505 68.2773 37.39 67.042C45.3238 62.4611 53.2681 57.8993 61.2054 53.3233C62.189 52.7542 62.9158 52.0302 63.3947 51.1653L34.3761 34.3545Z" fill="#280068"/>
<path d="M64.0883 20.6415C64.0878 19.5149 63.8468 18.5194 63.3596 17.665L34.376 34.3537L63.3946 51.1645C63.8597 50.323 64.0908 49.3468 64.0913 48.2447C64.0913 48.2447 64.0913 29.8443 64.0883 20.6415Z" fill="#390091"/>
<path d="M51.5685 28.0693V31.212H54.7111V28.0693H56.2825V31.212H59.4251V32.7833H56.2825V35.926H59.4251V37.4973H56.2825V40.64H54.7111V37.4973H51.5685V40.64H49.9972V37.4973H46.8545V35.926H49.9972V32.7833H46.8545V31.212H49.9972V28.0693H51.5685ZM54.7111 32.7833H51.5685V35.926H54.7111V32.7833Z" fill="white"/>
<path d="M34.4401 12.2852C42.6371 12.2852 49.7939 16.7369 53.6272 23.354L53.5897 23.2903L43.9454 28.8435C42.0453 25.6262 38.5618 23.455 34.5659 23.4103L34.4401 23.4096C28.3464 23.4096 23.4062 28.3496 23.4062 34.4432C23.4062 36.436 23.9375 38.3039 24.8614 39.9173C26.7633 43.2376 30.3387 45.4771 34.4401 45.4771C38.5668 45.4771 42.1625 43.2092 44.0548 39.8534L44.0088 39.9339L53.6386 45.5127C49.8474 52.0737 42.7887 56.5117 34.6869 56.6002L34.4401 56.6015C26.2171 56.6015 19.0401 52.1224 15.2164 45.4703C13.3498 42.2229 12.2817 38.458 12.2817 34.4432C12.2817 22.2058 22.2021 12.2852 34.4401 12.2852Z" fill="white"/>
</svg>
