<svg width="68" height="68" viewBox="0 0 68 68" fill="none" xmlns="http://www.w3.org/2000/svg">
<path d="M0.786133 0.944336H54.6661C61.9121 0.944336 67.7861 6.81836 67.7861 14.0643V54.8243C67.7861 62.0703 61.9121 67.9443 54.6661 67.9443H13.9061C6.66016 67.9443 0.786133 62.0703 0.786133 54.8243V0.944336Z" fill="#EAE7C7"/>
<path d="M58.3514 61.5866C56.7448 61.5866 55.5142 61.1166 54.6596 60.1766C53.805 59.2365 53.3606 57.8863 53.3264 56.1258H56.7875C56.8046 57.6812 57.3515 58.4588 58.4283 58.4588C58.9753 58.4588 59.3598 58.2879 59.582 57.9461C59.8042 57.6042 59.9153 57.0573 59.9153 56.3053C59.9153 55.7071 59.77 55.2114 59.4795 54.8183C59.1889 54.4252 58.7018 54.0748 58.0181 53.7671L56.7362 53.1518C55.5911 52.6049 54.7621 51.9554 54.2494 51.2034C53.7537 50.4513 53.5059 49.4002 53.5059 48.0499C53.5059 46.5458 53.9417 45.3238 54.8134 44.3837C55.7022 43.4437 56.9242 42.9736 58.4796 42.9736C59.9837 42.9736 61.1459 43.4351 61.9663 44.3581C62.8038 45.281 63.2397 46.6056 63.2739 48.3319H59.941C59.9239 47.597 59.8128 47.05 59.6077 46.6911C59.4197 46.3151 59.0522 46.1271 58.5052 46.1271C57.531 46.1271 57.0439 46.7082 57.0439 47.8704C57.0439 48.4516 57.1635 48.913 57.4028 49.2549C57.6592 49.5796 58.0779 49.8702 58.6591 50.1266L59.8897 50.665C61.1545 51.2461 62.0689 51.9639 62.6329 52.8185C63.197 53.6731 63.479 54.8183 63.479 56.254C63.479 57.9632 63.026 59.2792 62.1202 60.2022C61.2143 61.1252 59.958 61.5866 58.3514 61.5866Z" fill="#08090A"/>
<path d="M47.1734 61.5866C45.5668 61.5866 44.3362 61.1166 43.4816 60.1766C42.627 59.2365 42.1826 57.8863 42.1484 56.1258H45.6095C45.6266 57.6812 46.1736 58.4588 47.2504 58.4588C47.7973 58.4588 48.1819 58.2879 48.404 57.9461C48.6262 57.6042 48.7373 57.0573 48.7373 56.3053C48.7373 55.7071 48.5921 55.2114 48.3015 54.8183C48.0109 54.4252 47.5238 54.0748 46.8401 53.7671L45.5583 53.1518C44.4131 52.6049 43.5842 51.9554 43.0714 51.2034C42.5757 50.4513 42.3279 49.4002 42.3279 48.0499C42.3279 46.5458 42.7637 45.3238 43.6354 44.3837C44.5242 43.4437 45.7463 42.9736 47.3016 42.9736C48.8057 42.9736 49.968 43.4351 50.7884 44.3581C51.6259 45.281 52.0617 46.6056 52.0959 48.3319H48.763C48.7459 47.597 48.6348 47.05 48.4297 46.6911C48.2417 46.3151 47.8742 46.1271 47.3273 46.1271C46.353 46.1271 45.8659 46.7082 45.8659 47.8704C45.8659 48.4516 45.9856 48.913 46.2248 49.2549C46.4812 49.5796 46.9 49.8702 47.4811 50.1266L48.7117 50.665C49.9765 51.2461 50.8909 51.9639 51.4549 52.8185C52.019 53.6731 52.301 54.8183 52.301 56.254C52.301 57.9632 51.8481 59.2792 50.9422 60.2022C50.0363 61.1252 48.7801 61.5866 47.1734 61.5866Z" fill="#08090A"/>
<path d="M35.5338 61.5864C33.9614 61.5864 32.7136 61.1591 31.7907 60.3045C30.8677 59.4499 30.4062 58.1766 30.4062 56.4845V48.1266C30.4062 46.4516 30.8934 45.1782 31.8676 44.3065C32.8589 43.4349 34.1579 42.999 35.7645 42.999C37.3199 42.999 38.5505 43.4434 39.4564 44.3322C40.3793 45.221 40.8408 46.5456 40.8408 48.306V48.9726H37.1746V48.3317C37.1746 47.648 37.0293 47.1438 36.7388 46.819C36.4653 46.4772 36.1064 46.3063 35.662 46.3063C35.0638 46.3063 34.645 46.5114 34.4057 46.9216C34.1835 47.3318 34.0724 47.9386 34.0724 48.7419V55.9974C34.0724 57.5185 34.6023 58.2877 35.662 58.3048C36.1577 58.3048 36.5337 58.1253 36.7901 57.7664C37.0464 57.4074 37.1746 56.9032 37.1746 56.2537V55.7154H40.8408V56.2794C40.8408 57.4587 40.6101 58.4415 40.1486 59.2277C39.6871 60.0139 39.0547 60.6036 38.2514 60.9967C37.4652 61.3898 36.5593 61.5864 35.5338 61.5864Z" fill="#08090A"/>
</svg>
