<svg width="68" height="68" viewBox="0 0 68 68" fill="none" xmlns="http://www.w3.org/2000/svg">
<path d="M0.784912 0.944336H54.6649C61.9109 0.944336 67.7849 6.81836 67.7849 14.0643V54.8243C67.7849 62.0703 61.9109 67.9443 54.6649 67.9443H13.9049C6.65893 67.9443 0.784912 62.0703 0.784912 54.8243V0.944336Z" fill="#663399"/>
<path d="M58.3502 61.5866C56.7436 61.5866 55.513 61.1166 54.6584 60.1766C53.8038 59.2365 53.3594 57.8863 53.3252 56.1258H56.7863C56.8034 57.6812 57.3503 58.4588 58.4271 58.4588C58.974 58.4588 59.3586 58.2879 59.5808 57.9461C59.803 57.6042 59.9141 57.0573 59.9141 56.3053C59.9141 55.7071 59.7688 55.2114 59.4783 54.8183C59.1877 54.4252 58.7006 54.0748 58.0169 53.7671L56.735 53.1518C55.5899 52.6049 54.7609 51.9554 54.2482 51.2034C53.7525 50.4513 53.5047 49.4002 53.5047 48.0499C53.5047 46.5458 53.9405 45.3238 54.8122 44.3837C55.701 43.4437 56.923 42.9736 58.4784 42.9736C59.9825 42.9736 61.1447 43.4351 61.9651 44.3581C62.8026 45.281 63.2385 46.6056 63.2726 48.3319H59.9397C59.9226 47.597 59.8115 47.05 59.6064 46.6911C59.4184 46.3151 59.051 46.1271 58.504 46.1271C57.5298 46.1271 57.0427 46.7082 57.0427 47.8704C57.0427 48.4516 57.1623 48.913 57.4016 49.2549C57.658 49.5796 58.0767 49.8702 58.6578 50.1266L59.8885 50.665C61.1533 51.2461 62.0677 51.9639 62.6317 52.8185C63.1957 53.6731 63.4777 54.8183 63.4777 56.254C63.4777 57.9632 63.0248 59.2792 62.1189 60.2022C61.2131 61.1252 59.9568 61.5866 58.3502 61.5866Z" fill="white"/>
<path d="M47.1722 61.5866C45.5656 61.5866 44.335 61.1166 43.4804 60.1766C42.6258 59.2365 42.1814 57.8863 42.1472 56.1258H45.6083C45.6254 57.6812 46.1723 58.4588 47.2491 58.4588C47.7961 58.4588 48.1806 58.2879 48.4028 57.9461C48.625 57.6042 48.7361 57.0573 48.7361 56.3053C48.7361 55.7071 48.5908 55.2114 48.3003 54.8183C48.0097 54.4252 47.5226 54.0748 46.8389 53.7671L45.557 53.1518C44.4119 52.6049 43.5829 51.9554 43.0702 51.2034C42.5745 50.4513 42.3267 49.4002 42.3267 48.0499C42.3267 46.5458 42.7625 45.3238 43.6342 44.3837C44.523 43.4437 45.745 42.9736 47.3004 42.9736C48.8045 42.9736 49.9667 43.4351 50.7871 44.3581C51.6246 45.281 52.0605 46.6056 52.0947 48.3319H48.7618C48.7447 47.597 48.6336 47.05 48.4285 46.6911C48.2405 46.3151 47.873 46.1271 47.326 46.1271C46.3518 46.1271 45.8647 46.7082 45.8647 47.8704C45.8647 48.4516 45.9843 48.913 46.2236 49.2549C46.48 49.5796 46.8987 49.8702 47.4799 50.1266L48.7105 50.665C49.9753 51.2461 50.8897 51.9639 51.4537 52.8185C52.0178 53.6731 52.2998 54.8183 52.2998 56.254C52.2998 57.9632 51.8468 59.2792 50.941 60.2022C50.0351 61.1252 48.7788 61.5866 47.1722 61.5866Z" fill="white"/>
<path d="M35.5326 61.5864C33.9601 61.5864 32.7124 61.1591 31.7895 60.3045C30.8665 59.4499 30.405 58.1766 30.405 56.4845V48.1266C30.405 46.4516 30.8921 45.1782 31.8664 44.3065C32.8577 43.4349 34.1567 42.999 35.7633 42.999C37.3187 42.999 38.5493 43.4434 39.4552 44.3322C40.3781 45.221 40.8396 46.5456 40.8396 48.306V48.9726H37.1734V48.3317C37.1734 47.648 37.0281 47.1438 36.7376 46.819C36.4641 46.4772 36.1052 46.3063 35.6608 46.3063C35.0626 46.3063 34.6438 46.5114 34.4045 46.9216C34.1823 47.3318 34.0712 47.9386 34.0712 48.7419V55.9974C34.0712 57.5185 34.6011 58.2877 35.6608 58.3048C36.1564 58.3048 36.5325 58.1253 36.7888 57.7664C37.0452 57.4074 37.1734 56.9032 37.1734 56.2537V55.7154H40.8396V56.2794C40.8396 57.4587 40.6089 58.4415 40.1474 59.2277C39.6859 60.0139 39.0535 60.6036 38.2502 60.9967C37.464 61.3898 36.5581 61.5864 35.5326 61.5864Z" fill="white"/>
</svg>
