<svg width="68" height="68" viewBox="0 0 68 68" fill="none" xmlns="http://www.w3.org/2000/svg">
<path d="M24.8573 67.8146C30.9973 67.8146 35.9805 62.8315 35.9805 56.6915V45.5684H24.8573C18.7173 45.5684 13.7341 50.5515 13.7341 56.6915C13.7341 62.8315 18.7173 67.8146 24.8573 67.8146Z" fill="#EAE7C7"/>
<path d="M13.7341 34.4435C13.7341 28.3035 18.7173 23.3203 24.8573 23.3203H35.9805V45.5666H24.8573C18.7173 45.5666 13.7341 40.5834 13.7341 34.4435Z" fill="#EAE7C7"/>
<path d="M13.7341 12.1974C13.7341 6.05739 18.7173 1.07422 24.8573 1.07422H35.9805V23.3205H24.8573C18.7173 23.3205 13.7341 18.3374 13.7341 12.1974Z" fill="#EAE7C7"/>
<path d="M35.9805 1.07422H47.1037C53.2437 1.07422 58.2268 6.05739 58.2268 12.1974C58.2268 18.3374 53.2437 23.3205 47.1037 23.3205H35.9805V1.07422Z" fill="#EAE7C7"/>
<path d="M58.2268 34.4435C58.2268 40.5834 53.2437 45.5666 47.1037 45.5666C40.9637 45.5666 35.9805 40.5834 35.9805 34.4435C35.9805 28.3035 40.9637 23.3203 47.1037 23.3203C53.2437 23.3203 58.2268 28.3035 58.2268 34.4435Z" fill="#EAE7C7"/>
</svg>
