<svg width="68" height="68" viewBox="0 0 68 68" fill="none" xmlns="http://www.w3.org/2000/svg">
<path d="M24.8561 67.8146C30.9961 67.8146 35.9792 62.8315 35.9792 56.6915V45.5684H24.8561C18.7161 45.5684 13.7329 50.5515 13.7329 56.6915C13.7329 62.8315 18.7161 67.8146 24.8561 67.8146Z" fill="#0ACF83"/>
<path d="M13.7329 34.4435C13.7329 28.3035 18.7161 23.3203 24.8561 23.3203H35.9792V45.5666H24.8561C18.7161 45.5666 13.7329 40.5834 13.7329 34.4435Z" fill="#A259FF"/>
<path d="M13.7329 12.1974C13.7329 6.05739 18.7161 1.07422 24.8561 1.07422H35.9792V23.3205H24.8561C18.7161 23.3205 13.7329 18.3374 13.7329 12.1974Z" fill="#F24E1E"/>
<path d="M35.9792 1.07422H47.1024C53.2424 1.07422 58.2256 6.05739 58.2256 12.1974C58.2256 18.3374 53.2424 23.3205 47.1024 23.3205H35.9792V1.07422Z" fill="#FF7262"/>
<path d="M58.2256 34.4435C58.2256 40.5834 53.2424 45.5666 47.1024 45.5666C40.9624 45.5666 35.9792 40.5834 35.9792 34.4435C35.9792 28.3035 40.9624 23.3203 47.1024 23.3203C53.2424 23.3203 58.2256 28.3035 58.2256 34.4435Z" fill="#1ABCFE"/>
</svg>
