<svg width="68" height="68" viewBox="0 0 68 68" fill="none" xmlns="http://www.w3.org/2000/svg">
<path d="M66.1236 31.5126L37.2329 2.78391C35.5701 1.12932 32.8716 1.12932 31.2067 2.78391L25.2074 8.74987L32.8178 16.318C34.5863 15.7237 36.6143 16.1224 38.0241 17.5243C39.4406 18.9352 39.8386 20.9692 39.2265 22.7335L46.5609 30.0274C48.3353 29.4195 50.3827 29.8127 51.8 31.2244C53.7807 33.1934 53.7807 36.3846 51.8 38.3548C49.8187 40.3253 46.6097 40.3253 44.6274 38.3548C43.1376 36.8717 42.7695 34.6958 43.5237 32.8705L36.6839 26.0687L36.6831 43.9683C37.1789 44.2122 37.6318 44.5342 38.0241 44.922C40.0048 46.8909 40.0048 50.0824 38.0241 52.0541C36.0428 54.0236 32.8323 54.0236 30.8539 52.0541C28.8732 50.0824 28.8732 46.8912 30.8539 44.9222C31.3286 44.45 31.8927 44.076 32.5136 43.8218V25.7553C31.8918 25.5029 31.3273 25.1287 30.8539 24.6549C29.3532 23.1646 28.9923 20.9748 29.7613 19.1424L22.2592 11.6812L2.44938 31.3797C0.784777 33.0358 0.784777 35.7196 2.44938 37.3744L31.3406 66.1036C33.0039 67.7584 35.7019 67.7584 37.3673 66.1036L66.1233 37.5078C67.7874 35.8525 67.7874 33.1671 66.1233 31.5126" fill="#EAE7C7"/>
</svg>
