<svg width="68" height="68" viewBox="0 0 68 68" fill="none" xmlns="http://www.w3.org/2000/svg">
<path d="M66.1224 31.5126L37.2317 2.78391C35.5689 1.12932 32.8703 1.12932 31.2055 2.78391L25.2062 8.74987L32.8166 16.318C34.5851 15.7237 36.6131 16.1224 38.0229 17.5243C39.4393 18.9352 39.8374 20.9692 39.2253 22.7335L46.5597 30.0274C48.3341 29.4195 50.3815 29.8127 51.7988 31.2244C53.7795 33.1934 53.7795 36.3846 51.7988 38.3548C49.8175 40.3253 46.6085 40.3253 44.6262 38.3548C43.1364 36.8717 42.7683 34.6958 43.5225 32.8705L36.6827 26.0687L36.6819 43.9683C37.1777 44.2122 37.6306 44.5342 38.0229 44.922C40.0036 46.8909 40.0036 50.0824 38.0229 52.0541C36.0416 54.0236 32.8311 54.0236 30.8527 52.0541C28.8719 50.0824 28.8719 46.8912 30.8527 44.9222C31.3273 44.45 31.8914 44.076 32.5124 43.8218V25.7553C31.8905 25.5029 31.3261 25.1287 30.8527 24.6549C29.3519 23.1646 28.9911 20.9748 29.7601 19.1424L22.258 11.6812L2.44816 31.3797C0.783556 33.0358 0.783556 35.7196 2.44816 37.3744L31.3394 66.1036C33.0027 67.7584 35.7007 67.7584 37.3661 66.1036L66.1221 37.5078C67.7862 35.8525 67.7862 33.1671 66.1221 31.5126" fill="#DE4C36"/>
</svg>
