<svg width="68" height="68" viewBox="0 0 68 68" fill="none" xmlns="http://www.w3.org/2000/svg">
<path d="M34.4718 1.91797C16.075 1.91797 1.15723 16.7503 1.15723 35.0474C1.15723 49.6851 10.7028 62.1034 23.9398 66.4841C25.6047 66.7907 26.2161 65.7654 26.2161 64.8903C26.2161 64.1004 26.185 61.4905 26.1709 58.7222C16.9025 60.7263 14.9468 54.8134 14.9468 54.8134C13.4314 50.984 11.2479 49.966 11.2479 49.966C8.22538 47.9097 11.4757 47.9518 11.4757 47.9518C14.8211 48.1857 16.5827 51.366 16.5827 51.366C19.554 56.4308 24.3762 54.9664 26.2772 54.1202C26.5761 51.9787 27.4397 50.5174 28.3923 49.6901C20.9928 48.8521 13.214 46.0114 13.214 33.3172C13.214 29.7004 14.5154 26.7449 16.6467 24.4249C16.3008 23.5903 15.1605 20.2208 16.9694 15.6575C16.9694 15.6575 19.7669 14.767 26.1333 19.0534C28.7905 18.3191 31.6405 17.9512 34.4718 17.9387C37.303 17.9512 40.1551 18.3191 42.8176 19.0534C49.1764 14.767 51.97 15.6575 51.97 15.6575C53.7833 20.2208 52.6425 23.5903 52.2966 24.4249C54.4325 26.7449 55.7251 29.7002 55.7251 33.3172C55.7251 46.0416 47.9316 48.8436 40.5134 49.6636C41.7082 50.6917 42.7729 52.708 42.7729 55.7987C42.7729 60.2313 42.7342 63.799 42.7342 64.8903C42.7342 65.7719 43.3339 66.805 45.0228 66.4797C58.2525 62.094 67.7861 49.6802 67.7861 35.0474C67.7861 16.7503 52.8703 1.91797 34.4718 1.91797Z" fill="#EAE7C7"/>
<path d="M13.6347 49.1116C13.5616 49.2761 13.3008 49.3254 13.0638 49.2127C12.8221 49.1046 12.6863 48.8801 12.7647 48.7148C12.8365 48.5454 13.0973 48.4981 13.3384 48.6119C13.5806 48.7198 13.7186 48.9463 13.6347 49.1116ZM15.2735 50.5656C15.1146 50.7121 14.804 50.6441 14.5931 50.4126C14.3752 50.1816 14.3344 49.8729 14.4956 49.724C14.6595 49.5777 14.9607 49.6461 15.1792 49.8773C15.3971 50.1109 15.4394 50.4178 15.2732 50.5659L15.2735 50.5656ZM16.3978 52.426C16.1934 52.5671 15.8595 52.4348 15.6534 52.1402C15.4493 51.8458 15.4493 51.4924 15.6578 51.3508C15.8648 51.2092 16.1934 51.3365 16.4025 51.6288C16.6063 51.9284 16.6063 52.2818 16.3975 52.4262L16.3978 52.426ZM18.2988 54.5807C18.1162 54.7808 17.7274 54.7273 17.4426 54.4539C17.1516 54.1868 17.0703 53.8077 17.2535 53.6074C17.4382 53.4068 17.8293 53.4632 18.1162 53.7342C18.4054 54.0008 18.4938 54.3827 18.2991 54.5807H18.2988ZM20.7559 55.3083C20.6757 55.5676 20.301 55.6855 19.9237 55.5754C19.547 55.4618 19.3003 55.1578 19.3764 54.8956C19.4547 54.6345 19.831 54.5116 20.2112 54.6296C20.5874 54.7426 20.8346 55.0443 20.7562 55.3083H20.7559ZM23.5527 55.6167C23.5621 55.89 23.242 56.1166 22.8459 56.1215C22.4475 56.1301 22.1253 55.909 22.1211 55.6403C22.1211 55.3644 22.4339 55.1399 22.8321 55.1334C23.2282 55.1256 23.5527 55.3451 23.5527 55.6167ZM26.2998 55.512C26.3473 55.7785 26.0719 56.0524 25.6787 56.1252C25.292 56.1953 24.9341 56.0308 24.8847 55.7666C24.8366 55.4932 25.1172 55.2196 25.5031 55.1487C25.8971 55.0806 26.2496 55.241 26.2998 55.512Z" fill="#EAE7C7"/>
</svg>
