<svg width="68" height="68" viewBox="0 0 68 68" fill="none" xmlns="http://www.w3.org/2000/svg">
<path d="M34.4706 1.91797C16.0738 1.91797 1.15601 16.7503 1.15601 35.0474C1.15601 49.6851 10.7016 62.1034 23.9386 66.4841C25.6035 66.7907 26.2149 65.7654 26.2149 64.8903C26.2149 64.1004 26.1838 61.4905 26.1697 58.7222C16.9013 60.7263 14.9456 54.8134 14.9456 54.8134C13.4302 50.984 11.2467 49.966 11.2467 49.966C8.22416 47.9097 11.4745 47.9518 11.4745 47.9518C14.8199 48.1857 16.5815 51.366 16.5815 51.366C19.5528 56.4308 24.3749 54.9664 26.276 54.1202C26.5749 51.9787 27.4385 50.5174 28.3911 49.6901C20.9916 48.8521 13.2128 46.0114 13.2128 33.3172C13.2128 29.7004 14.5142 26.7449 16.6455 24.4249C16.2996 23.5903 15.1593 20.2208 16.9682 15.6575C16.9682 15.6575 19.7657 14.767 26.1321 19.0534C28.7893 18.3191 31.6393 17.9512 34.4706 17.9387C37.3018 17.9512 40.1539 18.3191 42.8164 19.0534C49.1751 14.767 51.9688 15.6575 51.9688 15.6575C53.782 20.2208 52.6413 23.5903 52.2954 24.4249C54.4313 26.7449 55.7239 29.7002 55.7239 33.3172C55.7239 46.0416 47.9304 48.8436 40.5121 49.6636C41.707 50.6917 42.7717 52.708 42.7717 55.7987C42.7717 60.2313 42.733 63.799 42.733 64.8903C42.733 65.7719 43.3327 66.805 45.0216 66.4797C58.2512 62.094 67.7848 49.6802 67.7848 35.0474C67.7848 16.7503 52.8691 1.91797 34.4706 1.91797Z" fill="white"/>
<path d="M13.6335 49.1116C13.5603 49.2761 13.2996 49.3254 13.0626 49.2127C12.8209 49.1046 12.685 48.8801 12.7634 48.7148C12.8353 48.5454 13.096 48.4981 13.3372 48.6119C13.5794 48.7198 13.7174 48.9463 13.6335 49.1116ZM15.2723 50.5656C15.1134 50.7121 14.8027 50.6441 14.5919 50.4126C14.374 50.1816 14.3332 49.8729 14.4944 49.724C14.6582 49.5777 14.9595 49.6461 15.1779 49.8773C15.3958 50.1109 15.4382 50.4178 15.272 50.5659L15.2723 50.5656ZM16.3965 52.426C16.1922 52.5671 15.8583 52.4348 15.6522 52.1402C15.4481 51.8458 15.4481 51.4924 15.6566 51.3508C15.8635 51.2092 16.1922 51.3365 16.4012 51.6288C16.605 51.9284 16.605 52.2818 16.3963 52.4262L16.3965 52.426ZM18.2976 54.5807C18.115 54.7808 17.7262 54.7273 17.4414 54.4539C17.1503 54.1868 17.0691 53.8077 17.2522 53.6074C17.437 53.4068 17.8281 53.4632 18.115 53.7342C18.4042 54.0008 18.4925 54.3827 18.2979 54.5807H18.2976ZM20.7547 55.3083C20.6745 55.5676 20.2998 55.6855 19.9225 55.5754C19.5458 55.4618 19.2991 55.1578 19.3751 54.8956C19.4535 54.6345 19.8298 54.5116 20.2099 54.6296C20.5862 54.7426 20.8334 55.0443 20.755 55.3083H20.7547ZM23.5515 55.6167C23.5609 55.89 23.2408 56.1166 22.8447 56.1215C22.4462 56.1301 22.1241 55.909 22.1199 55.6403C22.1199 55.3644 22.4327 55.1399 22.8308 55.1334C23.2269 55.1256 23.5515 55.3451 23.5515 55.6167ZM26.2986 55.512C26.3461 55.7785 26.0707 56.0524 25.6775 56.1252C25.2908 56.1953 24.9328 56.0308 24.8835 55.7666C24.8354 55.4932 25.116 55.2196 25.5019 55.1487C25.8959 55.0806 26.2484 55.241 26.2986 55.512Z" fill="white"/>
</svg>
