<svg width="68" height="68" viewBox="0 0 68 68" fill="none" xmlns="http://www.w3.org/2000/svg">
<path d="M67.9732 0.944336H0.598877V67.9443H67.9732V0.944336Z" fill="#EAE7C7"/>
<path d="M45.857 53.2885C47.2142 55.492 48.9798 57.1117 52.1025 57.1117C54.7258 57.1117 56.4016 55.8079 56.4016 54.0063C56.4016 51.8474 54.6799 51.0828 51.7924 49.8268L50.2096 49.1515C45.641 47.2159 42.606 44.7912 42.606 39.6651C42.606 34.9432 46.2239 31.3486 51.8779 31.3486C55.9033 31.3486 58.7972 32.7418 60.8826 36.3896L55.9525 39.5375C54.867 37.602 53.696 36.8394 51.8779 36.8394C50.0236 36.8394 48.8482 38.0093 48.8482 39.5375C48.8482 41.4263 50.0246 42.1909 52.741 43.3608L54.3237 44.035C59.703 46.329 62.7402 48.6676 62.7402 53.9255C62.7402 59.5939 58.2625 62.6993 52.249 62.6993C46.3693 62.6993 42.5707 59.913 40.712 56.2609L45.857 53.2885ZM23.492 53.834C24.4866 55.5888 25.3913 57.0724 27.5665 57.0724C29.6466 57.0724 30.9588 56.2631 30.9588 53.1162V31.7081H37.2898V53.2013C37.2898 59.7205 33.4463 62.6876 27.836 62.6876C22.7669 62.6876 19.8313 60.0789 18.3384 56.9368L23.492 53.834Z" fill="#08090A"/>
</svg>
