<svg width="68" height="68" viewBox="0 0 68 68" fill="none" xmlns="http://www.w3.org/2000/svg">
<path d="M67.972 0.944336H0.597656V67.9443H67.972V0.944336Z" fill="#F7DF1E"/>
<path d="M45.8561 53.2885C47.2132 55.492 48.9788 57.1117 52.1016 57.1117C54.7249 57.1117 56.4007 55.8079 56.4007 54.0063C56.4007 51.8474 54.6789 51.0828 51.7914 49.8268L50.2087 49.1515C45.64 47.2159 42.605 44.7912 42.605 39.6651C42.605 34.9432 46.2229 31.3486 51.877 31.3486C55.9023 31.3486 58.7962 32.7418 60.8816 36.3896L55.9515 39.5375C54.866 37.602 53.695 36.8394 51.877 36.8394C50.0226 36.8394 48.8473 38.0093 48.8473 39.5375C48.8473 41.4263 50.0236 42.1909 52.74 43.3608L54.3228 44.035C59.702 46.329 62.7392 48.6676 62.7392 53.9255C62.7392 59.5939 58.2615 62.6993 52.2481 62.6993C46.3683 62.6993 42.5697 59.913 40.711 56.2609L45.8561 53.2885ZM23.491 53.834C24.4856 55.5888 25.3903 57.0724 27.5655 57.0724C29.6456 57.0724 30.9578 56.2631 30.9578 53.1162V31.7081H37.2888V53.2013C37.2888 59.7205 33.4453 62.6876 27.835 62.6876C22.7659 62.6876 19.8303 60.0789 18.3374 56.9368L23.491 53.834Z" fill="black"/>
</svg>
