<svg width="68" height="68" viewBox="0 0 68 68" fill="none" xmlns="http://www.w3.org/2000/svg">
<path d="M34.0498 2.1416C17.471 2.1416 18.5062 9.29118 18.5062 9.29118L18.5246 16.6984H34.3454V18.9222H12.2408C12.2408 18.9222 1.63208 17.7257 1.63208 34.3606C1.63208 50.996 10.8917 50.406 10.8917 50.406H16.4177V42.6866C16.4177 42.6866 16.1198 33.4785 25.5295 33.4785H41.2209C41.2209 33.4785 50.0368 33.6201 50.0368 25.0055V10.7618C50.0368 10.7618 51.3757 2.1416 34.0498 2.1416ZM25.3262 7.12279C25.7001 7.12245 26.0703 7.19543 26.4158 7.33755C26.7612 7.47967 27.0751 7.68814 27.3395 7.95103C27.6038 8.21391 27.8135 8.52606 27.9564 8.8696C28.0993 9.21314 28.1727 9.58134 28.1723 9.95312C28.1727 10.3249 28.0993 10.6931 27.9564 11.0366C27.8135 11.3802 27.6038 11.6923 27.3395 11.9552C27.0751 12.2181 26.7612 12.4266 26.4158 12.5687C26.0703 12.7108 25.7001 12.7838 25.3262 12.7835C24.9523 12.7838 24.5821 12.7108 24.2366 12.5687C23.8912 12.4266 23.5773 12.2181 23.3129 11.9552C23.0486 11.6923 22.8389 11.3802 22.696 11.0366C22.5531 10.6931 22.4797 10.3249 22.48 9.95312C22.4797 9.58134 22.5531 9.21314 22.696 8.8696C22.8389 8.52606 23.0486 8.21391 23.3129 7.95103C23.5773 7.68814 23.8912 7.47967 24.2366 7.33755C24.5821 7.19543 24.9523 7.12245 25.3262 7.12279Z" fill="url(#paint0_linear_284_588)"/>
<path d="M34.5203 66.7476C51.099 66.7476 50.0639 59.598 50.0639 59.598L50.0455 52.191H34.2244V49.9672H56.329C56.329 49.9672 66.9377 51.1637 66.9377 34.5283C66.9377 17.8931 57.6782 18.4831 57.6782 18.4831H52.1521V26.2023C52.1521 26.2023 52.45 35.4104 43.0403 35.4104H27.3489C27.3489 35.4104 18.533 35.2688 18.533 43.8836V58.1276C18.533 58.1276 17.1943 66.7476 34.52 66.7476H34.5203ZM43.2439 61.7669C42.87 61.7672 42.4998 61.6943 42.1543 61.5521C41.8088 61.41 41.4949 61.2015 41.2306 60.9387C40.9662 60.6758 40.7566 60.3636 40.6137 60.0201C40.4708 59.6765 40.3974 59.3083 40.3977 58.9366C40.3974 58.5648 40.4707 58.1965 40.6136 57.853C40.7565 57.5094 40.9661 57.1972 41.2305 56.9343C41.4949 56.6714 41.8088 56.4629 42.1542 56.3208C42.4997 56.1786 42.87 56.1056 43.2439 56.106C43.6177 56.1056 43.988 56.1786 44.3334 56.3207C44.6789 56.4628 44.9928 56.6713 45.2572 56.9342C45.5215 57.1971 45.7311 57.5092 45.8741 57.8528C46.017 58.1963 46.0904 58.5645 46.09 58.9363C46.0904 59.3081 46.017 59.6763 45.8741 60.0198C45.7311 60.3634 45.5215 60.6755 45.2572 60.9384C44.9928 61.2013 44.6789 61.4098 44.3334 61.5519C43.988 61.694 43.6177 61.767 43.2439 61.7666V61.7669Z" fill="url(#paint1_linear_284_588)"/>
<defs>
<linearGradient id="paint0_linear_284_588" x1="7.90796" y1="7.95247" x2="40.0931" y2="39.9945" gradientUnits="userSpaceOnUse">
<stop stop-color="#387EB8"/>
<stop offset="1" stop-color="#366994"/>
</linearGradient>
<linearGradient id="paint1_linear_284_588" x1="27.7725" y1="28.4134" x2="62.3445" y2="61.278" gradientUnits="userSpaceOnUse">
<stop stop-color="#FFE052"/>
<stop offset="1" stop-color="#FFC331"/>
</linearGradient>
</defs>
</svg>
