<svg width="68" height="68" viewBox="0 0 68 68" fill="none" xmlns="http://www.w3.org/2000/svg">
<path d="M34.051 2.1416C17.4723 2.1416 18.5074 9.29118 18.5074 9.29118L18.5258 16.6984H34.3466V18.9222H12.242C12.242 18.9222 1.6333 17.7257 1.6333 34.3606C1.6333 50.996 10.8929 50.406 10.8929 50.406H16.4189V42.6866C16.4189 42.6866 16.121 33.4785 25.5307 33.4785H41.2221C41.2221 33.4785 50.038 33.6201 50.038 25.0055V10.7618C50.038 10.7618 51.377 2.1416 34.051 2.1416ZM25.3274 7.12279C25.7013 7.12245 26.0715 7.19543 26.417 7.33755C26.7625 7.47967 27.0763 7.68814 27.3407 7.95103C27.6051 8.21391 27.8147 8.52606 27.9576 8.8696C28.1005 9.21314 28.1739 9.58134 28.1736 9.95312C28.1739 10.3249 28.1005 10.6931 27.9576 11.0366C27.8147 11.3802 27.6051 11.6923 27.3407 11.9552C27.0763 12.2181 26.7625 12.4266 26.417 12.5687C26.0715 12.7108 25.7013 12.7838 25.3274 12.7835C24.9536 12.7838 24.5833 12.7108 24.2378 12.5687C23.8924 12.4266 23.5785 12.2181 23.3141 11.9552C23.0498 11.6923 22.8401 11.3802 22.6972 11.0366C22.5543 10.6931 22.4809 10.3249 22.4813 9.95312C22.4809 9.58134 22.5543 9.21314 22.6972 8.8696C22.8401 8.52606 23.0498 8.21391 23.3141 7.95103C23.5785 7.68814 23.8924 7.47967 24.2378 7.33755C24.5833 7.19543 24.9536 7.12245 25.3274 7.12279Z" fill="#EAE7C7"/>
<path d="M34.5215 66.7476C51.1003 66.7476 50.0651 59.598 50.0651 59.598L50.0467 52.191H34.2256V49.9672H56.3302C56.3302 49.9672 66.939 51.1637 66.939 34.5283C66.939 17.8931 57.6794 18.4831 57.6794 18.4831H52.1533V26.2023C52.1533 26.2023 52.4512 35.4104 43.0415 35.4104H27.3501C27.3501 35.4104 18.5342 35.2688 18.5342 43.8836V58.1276C18.5342 58.1276 17.1956 66.7476 34.5213 66.7476H34.5215ZM43.2451 61.7669C42.8712 61.7672 42.501 61.6943 42.1555 61.5521C41.8101 61.41 41.4962 61.2015 41.2318 60.9387C40.9675 60.6758 40.7578 60.3636 40.6149 60.0201C40.472 59.6765 40.3986 59.3083 40.3989 58.9366C40.3986 58.5648 40.4719 58.1965 40.6148 57.853C40.7577 57.5094 40.9674 57.1972 41.2317 56.9343C41.4961 56.6714 41.81 56.4629 42.1555 56.3208C42.5009 56.1786 42.8712 56.1056 43.2451 56.106C43.619 56.1056 43.9892 56.1786 44.3347 56.3207C44.6801 56.4628 44.994 56.6713 45.2584 56.9342C45.5227 57.1971 45.7324 57.5092 45.8753 57.8528C46.0182 58.1963 46.0916 58.5645 46.0912 58.9363C46.0916 59.3081 46.0182 59.6763 45.8753 60.0198C45.7324 60.3634 45.5227 60.6755 45.2584 60.9384C44.994 61.2013 44.6801 61.4098 44.3347 61.5519C43.9892 61.694 43.619 61.767 43.2451 61.7666V61.7669Z" fill="#EAE7C7"/>
</svg>
