<svg width="68" height="68" viewBox="0 0 68 68" fill="none" xmlns="http://www.w3.org/2000/svg">
<path d="M34.2862 40.26C37.5159 40.26 40.1342 37.6563 40.1342 34.4445C40.1342 31.2326 37.5159 28.6289 34.2862 28.6289C31.0564 28.6289 28.4381 31.2326 28.4381 34.4445C28.4381 37.6563 31.0564 40.26 34.2862 40.26Z" fill="#EAE7C7"/>
<path fill-rule="evenodd" clip-rule="evenodd" d="M6.78877 31.3844C5.46259 32.575 5.02668 33.613 5.02668 34.4444C5.02668 35.2759 5.46259 36.3139 6.78877 37.5044C8.11405 38.6941 10.1514 39.8626 12.85 40.8873C18.2321 42.9308 25.8104 44.2389 34.2861 44.2389C42.7619 44.2389 50.3402 42.9308 55.7223 40.8873C58.4208 39.8626 60.4582 38.6941 61.7835 37.5044C63.1097 36.3139 63.5456 35.2759 63.5456 34.4444C63.5456 33.613 63.1097 32.575 61.7835 31.3844C60.4582 30.1947 58.4208 29.0262 55.7223 28.0016C50.3402 25.958 42.7619 24.6499 34.2861 24.6499C25.8104 24.6499 18.2321 25.958 12.85 28.0016C10.1514 29.0262 8.11405 30.1947 6.78877 31.3844ZM11.3447 24.0372C17.3198 21.7685 25.4314 20.4094 34.2861 20.4094C43.1409 20.4094 51.2525 21.7685 57.2276 24.0372C60.2077 25.1687 62.7658 26.5676 64.6163 28.2289C66.4659 29.8893 67.7861 31.9857 67.7861 34.4444C67.7861 36.9031 66.4659 38.9996 64.6163 40.66C62.7658 42.3212 60.2077 43.7201 57.2276 44.8516C51.2525 47.1204 43.1409 48.4795 34.2861 48.4795C25.4314 48.4795 17.3198 47.1204 11.3447 44.8516C8.36459 43.7201 5.80651 42.3212 3.956 40.66C2.10637 38.9996 0.786133 36.9031 0.786133 34.4444C0.786133 31.9857 2.10637 29.8893 3.956 28.2289C5.80651 26.5676 8.36459 25.1687 11.3447 24.0372Z" fill="#EAE7C7"/>
<path fill-rule="evenodd" clip-rule="evenodd" d="M23.2193 9.23783C21.5216 8.69166 20.3939 8.83249 19.6608 9.2534C18.9277 9.6743 18.2412 10.5751 17.868 12.3103C17.4947 14.0456 17.4958 16.3828 17.9525 19.2173C18.8634 24.8711 21.5121 32.0488 25.7487 39.3461C29.9853 46.6434 34.9117 52.5133 39.38 56.1247C41.6201 57.9352 43.655 59.1048 45.3528 59.651C47.0506 60.1972 48.1783 60.0563 48.9114 59.6354C49.6445 59.2145 50.331 58.3137 50.7042 56.5785C51.0775 54.8432 51.0764 52.506 50.6197 49.6715C49.7088 44.0177 47.0601 36.84 42.8235 29.5427C38.5869 22.2455 33.6604 16.3755 29.1922 12.7641C26.9521 10.9536 24.9172 9.78404 23.2193 9.23783ZM31.8653 9.48101C36.8311 13.4945 42.0723 19.8033 46.501 27.4313C50.9297 35.0594 53.8031 42.7276 54.8154 49.011C55.3203 52.145 55.3811 55.0492 54.8595 57.4744C54.3378 59.8997 53.1727 62.0785 51.0405 63.3027C48.9083 64.5269 46.4283 64.4409 44.0554 63.6775C41.6825 62.9141 39.1838 61.4097 36.7069 59.4078C31.7411 55.3943 26.4998 49.0856 22.0712 41.4575C17.6425 33.8295 14.7691 26.1612 13.7568 19.8779C13.2519 16.7438 13.1911 13.8397 13.7127 11.4145C14.2344 8.98913 15.3995 6.81029 17.5317 5.5861C19.6639 4.36192 22.1439 4.44795 24.5168 5.21136C26.8897 5.97473 29.3884 7.47912 31.8653 9.48101Z" fill="#EAE7C7"/>
<path fill-rule="evenodd" clip-rule="evenodd" d="M50.7042 12.3103C50.331 10.5751 49.6445 9.67429 48.9114 9.25339C48.1783 8.83248 47.0506 8.69165 45.3529 9.23782C43.655 9.78403 41.6202 10.9536 39.38 12.7641C34.9118 16.3755 29.9853 22.2455 25.7487 29.5427C21.5121 36.84 18.8634 44.0177 17.9525 49.6715C17.4959 52.506 17.4948 54.8432 17.868 56.5785C18.2412 58.3137 18.9277 59.2145 19.6608 59.6354C20.3939 60.0563 21.5217 60.1972 23.2194 59.651C24.9172 59.1048 26.9521 57.9352 29.1922 56.1247C33.6605 52.5133 38.5869 46.6433 42.8235 39.3461C47.0601 32.0488 49.7088 24.8711 50.6197 19.2173C51.0764 16.3828 51.0775 14.0456 50.7042 12.3103ZM54.8154 19.8779C53.8031 26.1612 50.9297 33.8295 46.501 41.4575C42.0724 49.0856 36.8311 55.3943 31.8653 59.4078C29.3884 61.4097 26.8897 62.9141 24.5169 63.6775C22.1439 64.4409 19.6639 64.5269 17.5317 63.3027C15.3995 62.0785 14.2344 59.8997 13.7128 57.4744C13.1911 55.0492 13.2519 52.145 13.7568 49.011C14.7691 42.7276 17.6425 35.0594 22.0712 27.4313C26.4999 19.8032 31.7412 13.4945 36.7069 9.481C39.1838 7.47911 41.6826 5.97472 44.0554 5.21135C46.4283 4.44794 48.9084 4.36191 51.0406 5.58609C53.1728 6.81028 54.3378 8.98912 54.8595 11.4144C55.3811 13.8397 55.3204 16.7438 54.8154 19.8779Z" fill="#EAE7C7"/>
</svg>
