<svg width="68" height="68" viewBox="0 0 68 68" fill="none" xmlns="http://www.w3.org/2000/svg">
<path d="M34.2849 40.26C37.5147 40.26 40.133 37.6563 40.133 34.4445C40.133 31.2326 37.5147 28.6289 34.2849 28.6289C31.0552 28.6289 28.4369 31.2326 28.4369 34.4445C28.4369 37.6563 31.0552 40.26 34.2849 40.26Z" fill="#61DAFB"/>
<path fill-rule="evenodd" clip-rule="evenodd" d="M6.78755 31.3844C5.46137 32.575 5.02546 33.613 5.02546 34.4444C5.02546 35.2759 5.46137 36.3139 6.78755 37.5044C8.11283 38.6941 10.1502 39.8626 12.8487 40.8873C18.2309 42.9308 25.8091 44.2389 34.2849 44.2389C42.7607 44.2389 50.339 42.9308 55.7211 40.8873C58.4196 39.8626 60.457 38.6941 61.7823 37.5044C63.1085 36.3139 63.5444 35.2759 63.5444 34.4444C63.5444 33.613 63.1085 32.575 61.7823 31.3844C60.457 30.1947 58.4196 29.0262 55.7211 28.0016C50.339 25.958 42.7607 24.6499 34.2849 24.6499C25.8091 24.6499 18.2309 25.958 12.8487 28.0016C10.1502 29.0262 8.11283 30.1947 6.78755 31.3844ZM11.3435 24.0372C17.3185 21.7685 25.4301 20.4094 34.2849 20.4094C43.1397 20.4094 51.2513 21.7685 57.2264 24.0372C60.2065 25.1687 62.7645 26.5676 64.6151 28.2289C66.4647 29.8893 67.7849 31.9857 67.7849 34.4444C67.7849 36.9031 66.4647 38.9996 64.6151 40.66C62.7645 42.3212 60.2065 43.7201 57.2264 44.8516C51.2513 47.1204 43.1397 48.4795 34.2849 48.4795C25.4301 48.4795 17.3185 47.1204 11.3435 44.8516C8.36337 43.7201 5.80529 42.3212 3.95477 40.66C2.10515 38.9996 0.784912 36.9031 0.784912 34.4444C0.784912 31.9857 2.10515 29.8893 3.95477 28.2289C5.80529 26.5676 8.36337 25.1687 11.3435 24.0372Z" fill="#61DAFB"/>
<path fill-rule="evenodd" clip-rule="evenodd" d="M23.2181 9.23783C21.5204 8.69166 20.3927 8.83249 19.6596 9.2534C18.9265 9.6743 18.24 10.5751 17.8668 12.3103C17.4935 14.0456 17.4946 16.3828 17.9513 19.2173C18.8622 24.8711 21.5109 32.0488 25.7475 39.3461C29.9841 46.6434 34.9105 52.5133 39.3788 56.1247C41.6189 57.9352 43.6538 59.1048 45.3516 59.651C47.0493 60.1972 48.1771 60.0563 48.9102 59.6354C49.6433 59.2145 50.3298 58.3137 50.703 56.5785C51.0762 54.8432 51.0751 52.506 50.6185 49.6715C49.7076 44.0177 47.0589 36.84 42.8223 29.5427C38.5857 22.2455 33.6592 16.3755 29.191 12.7641C26.9508 10.9536 24.916 9.78404 23.2181 9.23783ZM31.8641 9.48101C36.8298 13.4945 42.0711 19.8033 46.4998 27.4313C50.9285 35.0594 53.8019 42.7276 54.8142 49.011C55.3191 52.145 55.3799 55.0492 54.8582 57.4744C54.3366 59.8997 53.1715 62.0785 51.0393 63.3027C48.9071 64.5269 46.4271 64.4409 44.0541 63.6775C41.6813 62.9141 39.1826 61.4097 36.7057 59.4078C31.7399 55.3943 26.4986 49.0856 22.07 41.4575C17.6413 33.8295 14.7679 26.1612 13.7556 19.8779C13.2506 16.7438 13.1899 13.8397 13.7115 11.4145C14.2332 8.98913 15.3982 6.81029 17.5304 5.5861C19.6626 4.36192 22.1427 4.44795 24.5156 5.21136C26.8884 5.97473 29.3872 7.47912 31.8641 9.48101Z" fill="#61DAFB"/>
<path fill-rule="evenodd" clip-rule="evenodd" d="M50.703 12.3103C50.3298 10.5751 49.6433 9.67429 48.9102 9.25339C48.1771 8.83248 47.0494 8.69165 45.3517 9.23782C43.6538 9.78403 41.6189 10.9536 39.3788 12.7641C34.9105 16.3755 29.9841 22.2455 25.7475 29.5427C21.5109 36.84 18.8622 44.0177 17.9513 49.6715C17.4946 52.506 17.4935 54.8432 17.8668 56.5785C18.24 58.3137 18.9265 59.2145 19.6596 59.6354C20.3927 60.0563 21.5204 60.1972 23.2181 59.651C24.916 59.1048 26.9509 57.9352 29.191 56.1247C33.6593 52.5133 38.5857 46.6433 42.8223 39.3461C47.0589 32.0488 49.7076 24.8711 50.6185 19.2173C51.0752 16.3828 51.0763 14.0456 50.703 12.3103ZM54.8142 19.8779C53.8019 26.1612 50.9285 33.8295 46.4998 41.4575C42.0712 49.0856 36.8299 55.3943 31.8641 59.4078C29.3872 61.4097 26.8885 62.9141 24.5156 63.6775C22.1427 64.4409 19.6627 64.5269 17.5305 63.3027C15.3983 62.0785 14.2332 59.8997 13.7115 57.4744C13.1899 55.0492 13.2507 52.145 13.7556 49.011C14.7679 42.7276 17.6413 35.0594 22.07 27.4313C26.4986 19.8032 31.7399 13.4945 36.7057 9.481C39.1826 7.47911 41.6813 5.97472 44.0542 5.21135C46.4271 4.44794 48.9071 4.36191 51.0393 5.58609C53.1715 6.81028 54.3366 8.98912 54.8583 11.4144C55.3799 13.8397 55.3191 16.7438 54.8142 19.8779Z" fill="#61DAFB"/>
</svg>
