<svg width="68" height="68" viewBox="0 0 68 68" fill="none" xmlns="http://www.w3.org/2000/svg">
<path d="M34.2849 14.5684C25.4482 14.5684 19.9256 18.9854 17.7163 27.8188C21.0303 23.4017 24.8963 21.7459 29.3142 22.8498C31.8352 23.4796 33.6369 25.3086 35.6316 27.3323C38.8802 30.629 42.6401 34.4444 50.8536 34.4444C59.6894 34.4444 65.2128 30.0273 67.4214 21.1932C64.1082 25.6102 60.2422 27.2669 55.8234 26.163C53.3033 25.5332 51.5016 23.7042 49.5069 21.6804C46.2583 18.3838 42.4976 14.5684 34.2849 14.5684ZM17.7163 34.4444C8.88042 34.4444 3.35698 38.8615 1.14844 47.6957C4.46167 43.2786 8.32766 41.622 12.7464 42.7266C15.2666 43.3573 17.0682 45.1855 19.0629 47.2084C22.3115 50.505 26.0723 54.3213 34.2849 54.3213C43.1216 54.3213 48.6442 49.9042 50.8536 41.07C47.5395 45.4871 43.6735 47.1437 39.2556 46.039C36.7346 45.41 34.933 43.5802 32.9382 41.5573C29.6896 38.2607 25.9297 34.4444 17.7163 34.4444Z" fill="#06B6D4"/>
</svg>
