<svg width="68" height="68" viewBox="0 0 68 68" fill="none" xmlns="http://www.w3.org/2000/svg">
<path d="M34.2861 14.5684C25.4495 14.5684 19.9269 18.9854 17.7175 27.8188C21.0315 23.4017 24.8975 21.7459 29.3155 22.8498C31.8364 23.4796 33.6381 25.3086 35.6328 27.3323C38.8814 30.629 42.6413 34.4444 50.8548 34.4444C59.6906 34.4444 65.2141 30.0273 67.4226 21.1932C64.1094 25.6102 60.2434 27.2669 55.8246 26.163C53.3045 25.5332 51.5028 23.7042 49.5081 21.6804C46.2595 18.3838 42.4988 14.5684 34.2861 14.5684ZM17.7175 34.4444C8.88164 34.4444 3.3582 38.8615 1.14966 47.6957C4.46289 43.2786 8.32888 41.622 12.7476 42.7266C15.2678 43.3573 17.0694 45.1855 19.0642 47.2084C22.3128 50.505 26.0735 54.3213 34.2861 54.3213C43.1228 54.3213 48.6454 49.9042 50.8548 41.07C47.5407 45.4871 43.6747 47.1437 39.2568 46.039C36.7358 45.41 34.9342 43.5802 32.9395 41.5573C29.6909 38.2607 25.931 34.4444 17.7175 34.4444Z" fill="#EAE7C7"/>
</svg>
