<svg width="68" height="68" viewBox="0 0 68 68" fill="none" xmlns="http://www.w3.org/2000/svg">
<path d="M36.8199 13.4097L47.1917 19.3962C47.5647 19.6054 47.5738 20.1968 47.1917 20.397L34.8639 27.5116C34.4908 27.73 34.0541 27.7118 33.6993 27.5116L21.3806 20.397C21.0075 20.1877 20.9893 19.5963 21.3806 19.3962L31.7432 13.4097V1.69141L5.28613 16.967V47.5182L15.4395 41.6591V29.6861C15.4304 29.2585 15.9399 28.9582 16.313 29.1857L28.6408 36.3004C29.0138 36.5187 29.2231 36.9099 29.2231 37.3102V51.5396C29.2322 51.9672 28.7318 52.2674 28.3588 52.04L17.987 46.0535L7.82449 51.9217L34.2816 67.1973L60.7387 51.9217L50.5944 46.0625L40.2226 52.0491C39.8587 52.2674 39.3401 51.9854 39.3583 51.5487V37.3193C39.3583 36.8917 39.5948 36.5096 39.9406 36.3094L52.2593 29.1948C52.6232 28.9673 53.1418 29.2585 53.1327 29.6952V41.6682L63.2861 47.5273V16.967L36.8199 1.69141V13.4097Z" fill="#EAE7C7"/>
</svg>
