<svg width="68" height="68" viewBox="0 0 68 68" fill="none" xmlns="http://www.w3.org/2000/svg">
<path d="M36.8187 13.4097L47.1905 19.3962C47.5635 19.6054 47.5726 20.1968 47.1905 20.397L34.8626 27.5116C34.4896 27.73 34.0529 27.7118 33.6981 27.5116L21.3793 20.397C21.0063 20.1877 20.9881 19.5963 21.3793 19.3962L31.742 13.4097V1.69141L5.28491 16.967V47.5182L15.4383 41.6591V29.6861C15.4292 29.2585 15.9387 28.9582 16.3117 29.1857L28.6396 36.3004C29.0126 36.5187 29.2219 36.9099 29.2219 37.3102V51.5396C29.231 51.9672 28.7306 52.2674 28.3575 52.04L17.9858 46.0535L7.82327 51.9217L34.2804 67.1973L60.7375 51.9217L50.5931 46.0625L40.2214 52.0491C39.8575 52.2674 39.3389 51.9854 39.3571 51.5487V37.3193C39.3571 36.8917 39.5936 36.5096 39.9393 36.3094L52.2581 29.1948C52.622 28.9673 53.1406 29.2585 53.1315 29.6952V41.6682L63.2849 47.5273V16.967L36.8187 1.69141V13.4097Z" fill="white"/>
</svg>
